{
.appVersion = "3129";
.formatVersion = 3;
axes = (
{
name = Weight;
tag = wght;
}
);
classes = (
{
automatic = 1;

glyphs = (
{
glyphname = A;
kernLeft = A_2nd;
kernRight = A_1st;
layers = (
{
anchors = (
{
name = bottom;
pos = (288,0);
},
{
name = ogonek;
pos = (551,10);
},
{
name = top;
pos = (398,700);
}
);
background = {
shapes = (
{
closed = 1;
nodes = (
(-8,0,l),
(108,212,l),
(532,212,l),
(583,0,l),
(610,0,l),
(456,651,ls),
(445,696,o),
(430,713,o),
(398,713,cs),
(367,713,o),
(346,696,o),
(321,650,cs),
(-35,0,l)
);
},
{
closed = 1;
nodes = (
(344,642,ls),
(361,672,o),
(371,690,o),
(394,690,cs),
(417,690,o),
(424,671,o),
(431,642,cs),
(527,235,l),
(121,235,l)
);
}
);
};
layerId = "F0CAE04A-D5A8-412F-B560-CC5EB0DB4883";
shapes = (
{
closed = 1;
nodes = (
(-8,0,l),
(108,212,l),
(532,212,l),
(583,0,l),
(610,0,l),
(457,648,ls),
(446,694,o),
(431,713,o),
(395,713,cs),
(366,713,o),
(346,697,o),
(322,654,cs),
(-35,0,l)
);
},
{
closed = 1;
nodes = (
(345,645,ls),
(362,673,o),
(372,690,o),
(393,690,cs),
(417,690,o),
(424,673,o),
(432,640,cs),
(527,235,l),
(121,235,l)
);
}
);
width = 655;
},
{
anchors = (
{
name = bottom;
pos = (325,0);
},
{
name = ogonek;
pos = (617,10);
},
{
name = top;
pos = (435,700);
}
);
background = {
shapes = (
{
closed = 1;
nodes = (
(116,0,l),
(187,141,l),
(510,141,l),
(535,0,l),
(689,0,l),
(558,623,ls),
(545,684,o),
(497,712,o),
(436,712,cs),
(375,712,o),
(317,682,o),
(286,622,cs),
(-40,0,l)
);
},
{
closed = 1;
nodes = (
(399,574,ls),
(408,593,o),
(432,591,o),
(435,574,cs),
(488,267,l),
(250,267,l)
);
}
);
};
layerId = "2B2EB811-521F-412C-AF7C-8DB707505A49";
shapes = (
{
closed = 1;
nodes = (
(120,0,l),
(189,141,l),
(512,141,l),
(537,0,l),
(689,0,l),
(560,614,ls),
(547,676,o),
(497,713,o),
(432,713,cs),
(375,713,o),
(325,695,o),
(293,634,cs),
(-40,0,l)
);
},
{
closed = 1;
nodes = (
(396,574,ls),
(400,583,o),
(410,588,o),
(419,588,cs),
(429,588,o),
(437,583,o),
(439,574,cs),
(489,267,l),
(250,267,l)
);
}
);
width = 729;
},
{
anchors = (
{
name = bottom;
pos = (344,0);
},
{
name = ogonek;
pos = (654,10);
},
{
name = top;
pos = (455,700);
}
);
layerId = "DFD58E85-E3C3-490B-B779-464E2464870B";
shapes = (
{
closed = 1;
nodes = (
(183,0,l),
(242,122,l),
(481,122,l),
(500,0,l),
(729,0,l),
(604,593,ls),
(586,676,o),
(518,713,o),
(446,713,cs),
(381,713,o),
(314,683,o),
(276,609,cs),
(-41,0,l)
);
},
{
closed = 1;
nodes = (
(417,512,ls),
(419,516,o),
(422,518,o),
(425,518,cs),
(429,518,o),
(432,516,o),
(432,512,cs),
(462,287,l),
(313,287,l)
);
}
);
width = 770;
}
);
unicode = 65;
},
{
glyphname = Abreveacute;
kernLeft = A_2nd;
kernRight = A_1st;
layers = (
{
background = {
anchors = (
{
name = _top;
pos = (398,700);
},
{
name = bottom;
pos = (288,0);
},
{
name = ogonek;
pos = (551,10);
},
{
name = top;
pos = (398,700);
}
);
hints = (
{
horizontal = 1;
place = (141, 126);
place = (141, 126);
type = Stem;
},
{
horizontal = 1;
place = (0, 21);
target = up;
type = BottomGhost;
},
{
horizontal = 1;
place = (712, -20);
target = down;
type = TopGhost;
},
{
horizontal = 1;
place = (940, 21);
target = up;
type = BottomGhost;
},
{
horizontal = 1;
place = (1055, -20);
target = down;
type = TopGhost;
},
{
horizontal = 1;
place = (757, 21);
target = up;
type = BottomGhost;
},
{
horizontal = 1;
place = (872, -20);
target = down;
type = TopGhost;
},
{
horizontal = 1;
place = (909, 21);
target = up;
type = BottomGhost;
},
{
horizontal = 1;
place = (1032, -20);
target = down;
type = TopGhost;
},
{
horizontal = 1;
place = (141, 126);
place = (141, 126);
type = Stem;
},
{
horizontal = 1;
place = (0, 21);
target = up;
type = BottomGhost;
},
{
horizontal = 1;
place = (712, -20);
target = down;
type = TopGhost;
},
{
horizontal = 1;
place = (750, 21);
target = up;
type = BottomGhost;
},
{
horizontal = 1;
place = (865, -20);
target = down;
type = TopGhost;
}
);
shapes = (
{
closed = 1;
nodes = (
(-8,0,l),
(108,212,l),
(532,212,l),
(583,0,l),
(610,0,l),
(457,648,ls),
(446,694,o),
(431,713,o),
(395,713,cs),
(366,713,o),
(346,697,o),
(322,654,cs),
(-35,0,l)
);
},
{
closed = 1;
nodes = (
(345,645,ls),
(362,673,o),
(372,690,o),
(393,690,cs),
(417,690,o),
(424,673,o),
(432,640,cs),
(527,235,l),
(121,235,l)
);
},
{
alignment = -1;
pos = (211,0);
ref = breve;
},
{
closed = 1;
nodes = (
(423,909,l),
(542,1032,l),
(513,1032,l),
(394,909,l)
);
}
);
};
layerId = "F0CAE04A-D5A8-412F-B560-CC5EB0DB4883";
shapes = (
{
ref = A;
},
{
pos = (440,0);
ref = brevecomb.case;
},
{
pos = (507,152);
ref = acutecomb.case;
}
);
width = 655;
},
{
background = {
hints = (
{
horizontal = 1;
place = (141, 126);
place = (141, 126);
type = Stem;
},
{
horizontal = 1;
place = (0, 21);
target = up;
type = BottomGhost;
},
{
horizontal = 1;
place = (712, -20);
target = down;
type = TopGhost;
},
{
horizontal = 1;
place = (940, 21);
target = up;
type = BottomGhost;
},
{
horizontal = 1;
place = (1055, -20);
target = down;
type = TopGhost;
},
{
horizontal = 1;
place = (757, 21);
target = up;
type = BottomGhost;
},
{
horizontal = 1;
place = (872, -20);
target = down;
type = TopGhost;
},
{
horizontal = 1;
place = (779, 21);
target = up;
type = BottomGhost;
},
{
horizontal = 1;
place = (902, -20);
target = down;
type = TopGhost;
}
);
shapes = (
{
alignment = -1;
ref = A;
},
{
alignment = -1;
pos = (453,0);
ref = brevecomb.case;
},
{
closed = 1;
nodes = (
(507,909,l),
(611,1032,l),
(482,1032,l),
(378,909,l)
);
}
);
};
layerId = "2B2EB811-521F-412C-AF7C-8DB707505A49";
shapes = (
{
ref = A;
},
{
pos = (453,0);
ref = brevecomb.case;
},
{
pos = (455,152);
ref = acutecomb.case;
}
);
width = 729;
},
{
layerId = "DFD58E85-E3C3-490B-B779-464E2464870B";
shapes = (
{
ref = A;
},
{
pos = (471,0);
ref = brevecomb.case;
},
{
pos = (544,170);
ref = acutecomb.case;
}
);
width = 770;
}
);
unicode = 7854;
},
{
glyphname = Aogonek;
kernLeft = A_2nd;
kernRight = A_1st;
layers = (
{
background = {
shapes = (
{
closed = 1;
nodes = (
(561,-215,o),
(574,-213,o),
(588,-208,c),
(590,-187,l),
(576,-192,o),
(563,-194,o),
(551,-194,cs),
(521,-194,o),
(499,-179,o),
(499,-149,cs),
(499,-89,o),
(592,-15,o),
(610,0,c),
(593,13,l),
(584,6,o),
(474,-83,o),
(474,-149,cs),
(474,-189,o),
(506,-215,o),
(548,-215,cs)
);
},
{
ref = A;
}
);
};
layerId = "F0CAE04A-D5A8-412F-B560-CC5EB0DB4883";
shapes = (
{
ref = A;
},
{
closed = 1;
nodes = (
(561,-215,o),
(574,-213,o),
(588,-208,c),
(590,-187,l),
(576,-192,o),
(563,-194,o),
(551,-194,cs),
(521,-194,o),
(499,-179,o),
(499,-149,cs),
(499,-89,o),
(592,-15,o),
(610,0,c),
(593,13,l),
(584,6,o),
(474,-83,o),
(474,-149,cs),
(474,-189,o),
(506,-215,o),
(548,-215,cs)
);
}
);
width = 655;
},
{
background = {
shapes = (
{
closed = 1;
nodes = (
(615,-218,o),
(639,-215,o),
(654,-211,c),
(663,-126,l),
(648,-131,o),
(634,-134,o),
(619,-134,cs),
(588,-134,o),
(566,-112,o),
(570,-80,cs),
(575,-29,o),
(643,57,o),
(650,66,c),
(617,86,l),
(609,78,o),
(489,-33,o),
(482,-104,cs),
(474,-181,o),
(529,-218,o),
(601,-218,cs)
);
},
{
alignment = -1;
ref = A;
}
);
};
layerId = "2B2EB811-521F-412C-AF7C-8DB707505A49";
shapes = (
{
ref = A;
},
{
closed = 1;
nodes = (
(615,-218,o),
(639,-215,o),
(654,-211,c),
(663,-126,l),
(648,-131,o),
(634,-134,o),
(619,-134,cs),
(588,-134,o),
(566,-112,o),
(570,-80,cs),
(575,-29,o),
(643,57,o),
(650,66,c),
(617,86,l),
(609,78,o),
(489,-33,o),
(482,-104,cs),
(474,-181,o),
(529,-218,o),
(601,-218,cs)
);
}
);
width = 729;
},
{
background = {
shapes = (
{
closed = 1;
nodes = (
(577,-219,o),
(610,-215,o),
(629,-210,c),
(643,-117,l),
(631,-121,o),
(614,-124,o),
(598,-124,cs),
(568,-124,o),
(553,-109,o),
(553,-87,cs),
(553,-39,o),
(631,52,o),
(646,69,c),
(593,95,l),
(560,66,o),
(436,-33,o),
(436,-121,cs),
(436,-184,o),
(486,-219,o),
(556,-219,cs)
);
},
{
ref = A;
}
);
};
layerId = "DFD58E85-E3C3-490B-B779-464E2464870B";
shapes = (
{
ref = A;
},
{
closed = 1;
nodes = (
(577,-219,o),
(610,-215,o),
(629,-210,c),
(643,-117,l),
(631,-121,o),
(614,-124,o),
(598,-124,cs),
(568,-124,o),
(553,-109,o),
(553,-87,cs),
(553,-39,o),
(631,52,o),
(646,69,c),
(593,95,l),
(560,66,o),
(436,-33,o),
(436,-121,cs),
(436,-184,o),
(486,-219,o),
(556,-219,cs)
);
}
);
width = 770;
}
);
unicode = 260;
},
{
glyphname = AE;
kernLeft = A_2nd;
kernRight = E_1st;
layers = (
{
anchors = (
{
name = bottom;
pos = (427,0);
},
{
name = top;
pos = (560,700);
}
);
background = {
shapes = (
{
closed = 1;
nodes = (
(-8,0,l),
(108,212,l),
(533,212,l),
(565,81,ls),
(576,34,o),
(619,0,o),
(680,0,cs),
(879,0,l),
(883,23,l),
(685,23,ls),
(632,23,o),
(598,54,o),
(589,92,cs),
(529,345,l),
(891,345,l),
(895,368,l),
(524,368,l),
(501,456,ls),
(469,579,o),
(520,677,o),
(628,677,cs),
(985,677,l),
(989,700,l),
(633,700,ls),
(521,700,o),
(480,634,o),
(477,565,c),
(456,651,ls),
(445,695,o),
(430,713,o),
(398,713,cs),
(367,713,o),
(346,696,o),
(321,650,cs),
(-35,0,l)
);
},
{
closed = 1;
nodes = (
(344,642,ls),
(361,672,o),
(371,690,o),
(394,690,cs),
(417,690,o),
(424,671,o),
(431,642,cs),
(528,235,l),
(121,235,l)
);
}
);
};
layerId = "F0CAE04A-D5A8-412F-B560-CC5EB0DB4883";
shapes = (
{
closed = 1;
nodes = (
(-8,0,l),
(108,212,l),
(533,212,l),
(558,107,ls),
(574,40,o),
(607,0,o),
(680,0,cs),
(879,0,l),
(883,23,l),
(683,23,ls),
(620,23,o),
(597,60,o),
(583,118,cs),
(529,345,l),
(891,345,l),
(895,368,l),
(524,368,l),
(501,456,ls),
(494,482,o),
(491,506,o),
(491,529,cs),
(491,616,o),
(539,677,o),
(628,677,cs),
(985,677,l),
(989,700,l),
(633,700,ls),
(521,700,o),
(480,634,o),
(476,569,c),
(456,651,ls),
(445,695,o),
(430,713,o),
(398,713,cs),
(367,713,o),
(346,696,o),
(321,650,cs),
(-35,0,l)
);
},
{
closed = 1;
nodes = (
(344,642,ls),
(361,672,o),
(371,690,o),
(394,690,cs),
(417,690,o),
(424,671,o),
(431,642,cs),
(528,235,l),
(121,235,l)
);
}
);
width = 934;
},
{
anchors = (
{
name = bottom;
pos = (451,0);
},
{
name = top;
pos = (557,700);
}
);
background = {
shapes = (
{
closed = 1;
nodes = (
(98,0,l),
(169,141,l),
(495,141,l),
(503,98,ls),
(513,44,o),
(556,0,o),
(632,0,cs),
(886,0,l),
(906,126,l),
(694,126,ls),
(657,126,o),
(642,143,o),
(634,180,cs),
(610,293,l),
(898,293,l),
(918,419,l),
(584,419,l),
(574,470,ls),
(566,512,o),
(603,574,o),
(663,574,cs),
(976,574,l),
(996,700,l),
(664,700,ls),
(616,700,o),
(566,682,o),
(530,645,c),
(528,649,ls),
(505,695,o),
(468,712,o),
(420,712,cs),
(359,712,o),
(301,682,o),
(270,622,cs),
(-56,0,l)
);
},
{
closed = 1;
nodes = (
(387,574,ls),
(396,592,o),
(417,591,o),
(420,574,cs),
(473,267,l),
(232,267,l)
);
}
);
};
layerId = "2B2EB811-521F-412C-AF7C-8DB707505A49";
shapes = (
{
closed = 1;
nodes = (
(114,0,l),
(185,141,l),
(511,141,l),
(519,98,ls),
(529,44,o),
(572,0,o),
(648,0,cs),
(902,0,l),
(922,126,l),
(710,126,ls),
(673,126,o),
(659,136,o),
(650,180,cs),
(626,293,l),
(914,293,l),
(934,419,l),
(600,419,l),
(590,470,ls),
(589,477,o),
(588,484,o),
(588,490,cs),
(588,537,o),
(622,574,o),
(679,574,cs),
(992,574,l),
(1012,700,l),
(680,700,ls),
(616,700,o),
(583,682,o),
(547,642,c),
(546,644,ls),
(523,691,o),
(482,713,o),
(426,713,cs),
(375,713,o),
(323,694,o),
(292,634,cs),
(-40,0,l)
);
},
{
closed = 1;
nodes = (
(403,574,ls),
(407,583,o),
(415,587,o),
(421,587,cs),
(428,587,o),
(434,583,o),
(436,574,cs),
(489,267,l),
(248,267,l)
);
}
);
width = 982;
},
{
anchors = (
{
name = bottom;
pos = (457,0);
},
{
name = top;
pos = (618,700);
}
);
layerId = "DFD58E85-E3C3-490B-B779-464E2464870B";
shapes = (
{
closed = 1;
nodes = (
(158,0,l),
(225,131,l),
(480,131,l),
(483,118,ls),
(500,45,o),
(565,0,o),
(655,0,cs),
(918,0,l),
(945,170,l),
(724,169,ls),
(689,169,o),
(675,197,o),
(666,239,cs),
(659,270,l),
(927,270,l),
(953,434,l),
(624,434,l),
(621,449,ls),
(619,458,o),
(618,466,o),
(618,473,cs),
(618,509,o),
(638,533,o),
(675,533,cs),
(1002,533,l),
(1028,700,l),
(694,700,ls),
(642,700,o),
(599,684,o),
(572,643,c),
(567,651,ls),
(540,695,o),
(494,713,o),
(424,713,cs),
(356,713,o),
(295,680,o),
(258,609,cs),
(-56,0,l)
);
},
{
closed = 1;
nodes = (
(403,511,ls),
(405,515,o),
(409,520,o),
(411,520,cs),
(414,520,o),
(415,516,o),
(416,511,cs),
(453,296,l),
(294,296,l)
);
}
);
width = 996;
}
);
unicode = 198;
},
{
glyphname = B;
kernLeft = H_2nd;
kernRight = S_1st;
layers = (
{
anchors = (
{
name = bottom;
pos = (303,0);
},
{
name = center;
pos = (358,350);
},
{
name = top;
pos = (413,700);
}
);
background = {
shapes = (
{
closed = 1;
nodes = (
(398,0,ls),
(521,0,o),
(630,76,o),
(630,200,cs),
(630,280,o),
(576,341,o),
(510,360,c),
(587,376,o),
(668,440,o),
(668,540,cs),
(668,628,o),
(592,700,o),
(490,700,cs),
(155,700,l),
(45,0,l)
);
},
{
closed = 1;
nodes = (
(127,345,l),
(449,345,ls),
(533,345,o),
(604,287,o),
(604,202,cs),
(604,111,o),
(530,24,o),
(402,24,cs),
(77,24,l)
);
},
{
closed = 1;
nodes = (
(179,677,l),
(491,677,ls),
(578,677,o),
(642,616,o),
(642,540,cs),
(642,429,o),
(534,369,o),
(438,369,cs),
(131,369,l)
);
}
);
};
layerId = "F0CAE04A-D5A8-412F-B560-CC5EB0DB4883";
shapes = (
{
closed = 1;
nodes = (
(401,0,ls),
(524,0,o),
(630,76,o),
(630,200,cs),
(630,280,o),
(576,341,o),
(510,360,c),
(587,376,o),
(668,440,o),
(668,540,cs),
(668,628,o),
(592,700,o),
(490,700,cs),
(155,700,l),
(45,0,l)
);
},
{
closed = 1;
nodes = (
(125,345,l),
(449,345,ls),
(533,345,o),
(604,287,o),
(604,202,cs),
(604,111,o),
(533,23,o),
(405,23,cs),
(75,23,l)
);
},
{
closed = 1;
nodes = (
(177,677,l),
(491,677,ls),
(578,677,o),
(642,616,o),
(642,540,cs),
(642,429,o),
(534,369,o),
(438,369,cs),
(129,369,l)
);
}
);
width = 686;
},
{
anchors = (
{
name = bottom;
pos = (311,0);
},
{
name = center;
pos = (366,350);
},
{
name = top;
pos = (421,700);
}
);
layerId = "2B2EB811-521F-412C-AF7C-8DB707505A49";
shapes = (
{
closed = 1;
nodes = (
(420,0,ls),
(549,0,o),
(639,86,o),
(639,204,cs),
(639,279,o),
(592,341,o),
(530,363,c),
(618,394,o),
(657,463,o),
(657,531,cs),
(657,617,o),
(596,700,o),
(483,700,cs),
(125,700,l),
(15,0,l)
);
},
{
closed = 1;
nodes = (
(205,296,l),
(420,296,ls),
(468,296,o),
(498,261,o),
(498,221,cs),
(498,168,o),
(457,126,o),
(405,126,cs),
(178,126,l)
);
},
{
closed = 1;
nodes = (
(248,574,l),
(453,574,ls),
(496,574,o),
(524,540,o),
(524,503,cs),
(524,453,o),
(479,416,o),
(431,416,cs),
(223,416,l)
);
}
);
width = 702;
},
{
anchors = (
{
name = bottom;
pos = (322,0);
},
{
name = center;
pos = (377,350);
},
{
name = top;
pos = (433,700);
}
);
background = {
shapes = (
{
closed = 1;
nodes = (
(431,0,ls),
(561,0,o),
(667,100,o),
(675,224,cs),
(679,283,o),
(645,333,o),
(590,363,c),
(778,420,o),
(727,700,o),
(521,700,cs),
(99,700,l),
(-11,0,l)
);
},
{
closed = 1;
nodes = (
(247,270,l),
(424,270,ls),
(454,270,o),
(468,250,o),
(468,227,cs),
(468,197,o),
(446,164,o),
(408,164,cs),
(231,164,l)
);
},
{
closed = 1;
nodes = (
(288,531,l),
(438,531,ls),
(468,531,o),
(482,510,o),
(482,488,cs),
(482,460,o),
(462,430,o),
(427,430,cs),
(273,430,l)
);
}
);
};
layerId = "DFD58E85-E3C3-490B-B779-464E2464870B";
shapes = (
{
closed = 1;
nodes = (
(438,0,ls),
(580,0,o),
(674,108,o),
(674,216,cs),
(674,275,o),
(645,333,o),
(590,363,c),
(653,385,o),
(700,456,o),
(700,527,cs),
(700,613,o),
(642,700,o),
(506,700,cs),
(99,700,l),
(-11,0,l)
);
},
{
closed = 1;
nodes = (
(247,270,l),
(417,270,ls),
(449,270,o),
(464,247,o),
(464,222,cs),
(464,194,o),
(444,164,o),
(407,164,cs),
(231,164,l)
);
},
{
closed = 1;
nodes = (
(288,531,l),
(438,531,ls),
(468,531,o),
(482,510,o),
(482,488,cs),
(482,460,o),
(462,430,o),
(427,430,cs),
(273,430,l)
);
}
);
width = 726;
}
);
unicode = 66;
},
{
glyphname = C;
kernLeft = O_2nd;
kernRight = C_1st;
layers = (
{
anchors = (
{
name = bottom;
pos = (262,0);
},
{
name = top;
pos = (377,700);
}
);
background = {
shapes = (
{
closed = 1;
nodes = (
(394,0,l),
(398,24,l),
(339,24,ls),
(170,24,o),
(47,169,o),
(54,331,cs),
(63,550,o),
(231,677,o),
(441,677,cs),
(500,677,l),
(504,700,l),
(442,700,ls),
(215,700,o),
(35,560,o),
(26,332,cs),
(19,163,o),
(144,0,o),
(332,0,cs)
);
}
);
};
layerId = "F0CAE04A-D5A8-412F-B560-CC5EB0DB4883";
shapes = (
{
closed = 1;
nodes = (
(408,0,l),
(412,24,l),
(358,24,ls),
(194,24,o),
(73,161,o),
(73,318,cs),
(73,559,o),
(265,677,o),
(460,677,cs),
(514,677,l),
(518,700,l),
(461,700,ls),
(218,700,o),
(45,542,o),
(45,318,cs),
(45,154,o),
(168,0,o),
(351,0,cs)
);
}
);
width = 479;
},
{
anchors = (
{
name = bottom;
pos = (272,0);
},
{
name = top;
pos = (369,700);
}
);
background = {
shapes = (
{
closed = 1;
nodes = (
(443,0,l),
(463,126,l),
(357,126,ls),
(228,126,o),
(169,199,o),
(168,331,cs),
(167,466,o),
(251,574,o),
(423,574,cs),
(533,574,l),
(553,700,l),
(433,700,ls),
(188,700,o),
(27,550,o),
(27,315,cs),
(27,113,o),
(143,0,o),
(348,0,cs)
);
}
);
};
guides = (
{
angle = 81.0434;
pos = (502,356);
}
);
layerId = "2B2EB811-521F-412C-AF7C-8DB707505A49";
shapes = (
{
closed = 1;
nodes = (
(443,0,l),
(463,126,l),
(377,126,ls),
(266,126,o),
(171,190,o),
(171,325,cs),
(171,479,o),
(269,574,o),
(400,574,cs),
(533,574,l),
(553,700,l),
(414,700,ls),
(206,700,o),
(29,565,o),
(29,326,cs),
(29,123,o),
(167,0,o),
(359,0,cs)
);
}
);
width = 538;
},
{
anchors = (
{
name = bottom;
pos = (289,0);
},
{
name = top;
pos = (398,700);
}
);
layerId = "DFD58E85-E3C3-490B-B779-464E2464870B";
shapes = (
{
closed = 1;
nodes = (
(489,0,l),
(516,169,l),
(421,170,ls),
(314,171,o),
(262,238,o),
(262,329,cs),
(262,457,o),
(346,531,o),
(477,531,cs),
(572,531,l),
(599,700,l),
(497,700,ls),
(232,700,o),
(40,564,o),
(40,314,cs),
(40,131,o),
(164,0,o),
(387,0,cs)
);
}
);
width = 552;
}
);
unicode = 67;
},
{
glyphname = D;
kernLeft = H_2nd;
kernRight = O_1st;
layers = (
{
anchors = (
{
name = bottom;
pos = (317,0);
},
{
name = center;
pos = (372,350);
},
{
name = top;
pos = (371,700);
}
);
background = {
shapes = (
{
closed = 1;
nodes = (
(237,0,ls),
(457,0,o),
(622,147,o),
(654,351,cs),
(686,554,o),
(567,700,o),
(347,700,cs),
(140,700,l),
(30,0,l)
);
},
{
closed = 1;
nodes = (
(161,677,l),
(345,677,ls),
(537,677,o),
(661,553,o),
(629,351,cs),
(597,147,o),
(435,23,o),
(243,23,cs),
(59,23,l)
);
}
);
};
layerId = "F0CAE04A-D5A8-412F-B560-CC5EB0DB4883";
shapes = (
{
closed = 1;
nodes = (
(258,0,ls),
(572,0,o),
(674,244,o),
(674,405,cs),
(674,576,o),
(558,700,o),
(362,700,cs),
(155,700,l),
(45,0,l)
);
},
{
closed = 1;
nodes = (
(176,677,l),
(360,677,ls),
(531,677,o),
(649,570,o),
(649,403,cs),
(649,235,o),
(535,23,o),
(261,23,cs),
(74,23,l)
);
}
);
width = 714;
},
{
anchors = (
{
name = bottom;
pos = (312,0);
},
{
name = center;
pos = (367,350);
},
{
name = top;
pos = (402,700);
}
);
layerId = "2B2EB811-521F-412C-AF7C-8DB707505A49";
shapes = (
{
closed = 1;
nodes = (
(277,0,ls),
(551,0,o),
(688,195,o),
(688,379,cs),
(688,544,o),
(578,700,o),
(357,700,cs),
(140,700,l),
(30,0,l)
);
},
{
closed = 1;
nodes = (
(263,574,l),
(337,574,ls),
(481,574,o),
(547,480,o),
(547,377,cs),
(547,257,o),
(455,126,o),
(286,126,cs),
(193,126,l)
);
}
);
width = 703;
},
{
anchors = (
{
name = bottom;
pos = (323,0);
},
{
name = center;
pos = (378,350);
},
{
name = top;
pos = (406,700);
}
);
background = {
shapes = (
{
closed = 1;
nodes = (
(277,0,ls),
(551,0,o),
(688,195,o),
(688,379,cs),
(688,544,o),
(578,700,o),
(357,700,cs),
(140,700,l),
(30,0,l)
);
},
{
closed = 1;
nodes = (
(263,574,l),
(337,574,ls),
(481,574,o),
(547,480,o),
(547,377,cs),
(547,257,o),
(455,126,o),
(286,126,cs),
(193,126,l)
);
}
);
};
layerId = "DFD58E85-E3C3-490B-B779-464E2464870B";
shapes = (
{
closed = 1;
nodes = (
(301,0,ls),
(538,0,o),
(719,154,o),
(719,384,cs),
(719,565,o),
(594,700,o),
(387,700,cs),
(114,700,l),
(4,0,l)
);
},
{
closed = 1;
nodes = (
(303,531,l),
(372,531,ls),
(450,531,o),
(502,466,o),
(502,375,cs),
(502,261,o),
(434,169,o),
(316,169,cs),
(247,169,l)
);
}
);
width = 728;
}
);
unicode = 68;
},
{
glyphname = Eth;
kernLeft = H_2nd;
kernRight = O_1st;
layers = (
{
background = {
shapes = (
{
closed = 1;
nodes = (
(318,346,l),
(318,369,l),
(0,369,l),
(0,346,l)
);
},
{
ref = D;
}
);
};
layerId = "F0CAE04A-D5A8-412F-B560-CC5EB0DB4883";
shapes = (
{
closed = 1;
nodes = (
(332,346,l),
(336,369,l),
(122,369,l),
(118,346,l)
);
},
{
closed = 1;
nodes = (
(105,346,l),
(109,369,l),
(18,369,l),
(14,346,l)
);
},
{
ref = D;
}
);
width = 714;
},
{
background = {
shapes = (
{
closed = 1;
nodes = (
(306,0,ls),
(529,0,o),
(673,146,o),
(673,350,cs),
(673,554,o),
(529,700,o),
(306,700,cs),
(70,700,l),
(70,0,l)
);
},
{
closed = 1;
nodes = (
(213,574,l),
(306,574,ls),
(435,574,o),
(530,489,o),
(530,350,cs),
(530,211,o),
(435,126,o),
(306,126,cs),
(213,126,l)
);
},
{
closed = 1;
nodes = (
(318,290,l),
(318,415,l),
(0,415,l),
(0,290,l)
);
}
);
};
layerId = "2B2EB811-521F-412C-AF7C-8DB707505A49";
shapes = (
{
closed = 1;
nodes = (
(324,290,l),
(344,415,l),
(203,415,l),
(183,290,l)
);
},
{
closed = 1;
nodes = (
(112,290,l),
(132,415,l),
(26,415,l),
(6,290,l)
);
},
{
ref = D;
}
);
width = 703;
},
{
layerId = "DFD58E85-E3C3-490B-B779-464E2464870B";
shapes = (
{
closed = 1;
nodes = (
(355,290,l),
(374,415,l),
(208,415,l),
(189,290,l)
);
},
{
closed = 1;
nodes = (
(85,290,l),
(104,415,l),
(21,415,l),
(2,290,l)
);
},
{
ref = D;
}
);
width = 727;
}
);
unicode = 208;
},
{
glyphname = E;
kernLeft = H_2nd;
kernRight = E_1st;
layers = (
{
anchors = (
{
name = bottom;
pos = (234,0);
},
{
name = ogonek;
pos = (454,10);
},
{
name = top;
pos = (356,700);
},
{
name = topleft;
pos = (90,700);
}
);
background = {
shapes = (
{
closed = 1;
nodes = (
(455,0,l),
(459,24,l),
(255,24,ls),
(133,24,o),
(77,108,o),
(77,188,cs),
(77,256,o),
(108,310,o),
(152,354,c),
(185,311,o),
(248,254,o),
(365,254,cs),
(459,254,o),
(514,305,o),
(514,363,cs),
(514,438,o),
(445,464,o),
(368,464,cs),
(297,464,o),
(221,443,o),
(156,390,c),
(140,419,o),
(134,446,o),
(134,487,cs),
(134,600,o),
(207,675,o),
(334,675,cs),
(560,675,l),
(564,700,l),
(341,700,ls),
(202,700,o),
(109,621,o),
(109,487,cs),
(109,442,o),
(120,402,o),
(138,374,c),
(86,322,o),
(52,265,o),
(52,187,cs),
(52,90,o),
(125,0,o),
(255,0,cs)
);
},
{
closed = 1;
nodes = (
(275,276,o),
(209,318,o),
(169,371,c),
(232,423,o),
(302,442,o),
(368,442,cs),
(437,442,o),
(489,417,o),
(489,363,cs),
(489,309,o),
(435,276,o),
(366,276,cs)
);
}
);
};
layerId = "F0CAE04A-D5A8-412F-B560-CC5EB0DB4883";
shapes = (
{
closed = 1;
nodes = (
(455,0,l),
(459,23,l),
(255,23,ls),
(133,23,o),
(77,108,o),
(77,188,cs),
(77,256,o),
(108,310,o),
(152,354,c),
(185,311,o),
(248,254,o),
(365,254,cs),
(459,254,o),
(514,305,o),
(514,363,cs),
(514,438,o),
(443,464,o),
(368,464,cs),
(297,464,o),
(221,443,o),
(156,390,c),
(140,419,o),
(134,446,o),
(134,487,cs),
(134,600,o),
(207,677,o),
(334,677,cs),
(560,677,l),
(564,700,l),
(335,700,ls),
(196,700,o),
(109,615,o),
(109,485,cs),
(109,440,o),
(120,402,o),
(138,374,c),
(86,322,o),
(52,265,o),
(52,187,cs),
(52,90,o),
(125,0,o),
(255,0,cs)
);
},
{
closed = 1;
nodes = (
(275,277,o),
(209,318,o),
(169,371,c),
(232,423,o),
(302,441,o),
(368,441,cs),
(437,441,o),
(489,417,o),
(489,363,cs),
(489,309,o),
(435,277,o),
(366,277,cs)
);
}
);
width = 548;
},
{
anchors = (
{
name = bottom;
pos = (246,0);
},
{
name = ogonek;
pos = (476,10);
},
{
name = top;
pos = (364,700);
},
{
name = topleft;
pos = (90,700);
}
);
background = {
shapes = (
{
closed = 1;
nodes = (
(492,1,l),
(512,127,l),
(242,126,ls),
(212,126,o),
(176,154,o),
(176,198,cs),
(176,229,o),
(188,254,o),
(205,276,c),
(254,235,o),
(315,210,o),
(371,210,cs),
(495,210,o),
(539,306,o),
(539,369,cs),
(539,427,o),
(506,490,o),
(399,490,cs),
(338,490,o),
(280,468,o),
(229,433,c),
(223,448,o),
(220,462,o),
(220,477,cs),
(220,528,o),
(257,574,o),
(312,574,cs),
(582,574,l),
(602,700,l),
(342,700,ls),
(194,700,o),
(78,614,o),
(78,480,cs),
(78,437,o),
(95,393,o),
(123,359,c),
(68,314,o),
(31,250,o),
(31,179,cs),
(31,76,o),
(110,0,o),
(237,0,cs)
);
},
{
closed = 1;
nodes = (
(357,323,o),
(320,330,o),
(289,353,c),
(323,371,o),
(358,377,o),
(382,377,cs),
(410,377,o),
(423,367,o),
(423,354,cs),
(423,338,o),
(410,323,o),
(381,323,cs)
);
}
);
};
guides = (
{
angle = 90;
pos = (31,754);
},
{
angle = 90;
pos = (177,754);
}
);
layerId = "2B2EB811-521F-412C-AF7C-8DB707505A49";
shapes = (
{
closed = 1;
nodes = (
(492,1,l),
(512,127,l),
(272,126,ls),
(206,126,o),
(177,154,o),
(177,198,cs),
(177,229,o),
(186,250,o),
(202,272,c),
(248,235,o),
(306,215,o),
(371,215,cs),
(482,215,o),
(544,291,o),
(544,363,cs),
(544,426,o),
(495,485,o),
(389,485,cs),
(328,485,o),
(280,469,o),
(227,439,c),
(218,452,o),
(216,470,o),
(216,485,cs),
(216,536,o),
(250,574,o),
(307,574,cs),
(582,574,l),
(602,700,l),
(342,700,ls),
(194,700,o),
(78,614,o),
(78,480,cs),
(78,437,o),
(93,393,o),
(120,359,c),
(67,314,o),
(31,250,o),
(31,179,cs),
(31,76,o),
(110,0,o),
(237,0,cs)
);
},
{
closed = 1;
nodes = (
(352,323,o),
(324,330,o),
(293,353,c),
(326,371,o),
(349,377,o),
(377,377,cs),
(404,377,o),
(416,365,o),
(416,352,cs),
(416,338,o),
(402,323,o),
(376,323,cs)
);
}
);
width = 572;
},
{
anchors = (
{
name = bottom;
pos = (262,0);
},
{
name = ogonek;
pos = (506,10);
},
{
name = top;
pos = (380,700);
},
{
name = topleft;
pos = (90,700);
}
);
background = {
shapes = (
{
closed = 1;
nodes = (
(527,0,l),
(553,165,l),
(287,165,ls),
(254,165,o),
(234,180,o),
(234,207,cs),
(234,217,o),
(236,228,o),
(248,243,c),
(278,220,o),
(320,212,o),
(363,212,cs),
(463,212,o),
(564,256,o),
(564,372,cs),
(564,456,o),
(493,495,o),
(409,495,cs),
(367,495,o),
(322,487,o),
(281,461,c),
(280,466,o),
(278,473,o),
(278,482,cs),
(278,513,o),
(305,535,o),
(345,535,cs),
(611,535,l),
(637,700,l),
(308,700,ls),
(165,700,o),
(79,601,o),
(79,507,cs),
(79,454,o),
(100,405,o),
(142,372,c),
(62,330,o),
(21,263,o),
(21,191,cs),
(21,97,o),
(91,0,o),
(236,0,cs)
);
},
{
closed = 1;
nodes = (
(325,325,o),
(296,344,o),
(289,353,c),
(299,362,o),
(332,380,o),
(375,380,cs),
(401,380,o),
(414,372,o),
(414,358,cs),
(414,338,o),
(399,325,o),
(366,325,cs)
);
}
);
};
guides = (
{
angle = 90;
pos = (564,224);
},
{
angle = 90;
pos = (434,224);
}
);
layerId = "DFD58E85-E3C3-490B-B779-464E2464870B";
shapes = (
{
closed = 1;
nodes = (
(527,0,l),
(553,165,l),
(287,165,ls),
(254,165,o),
(234,180,o),
(234,207,cs),
(234,217,o),
(236,228,o),
(248,243,c),
(279,225,o),
(327,212,o),
(380,212,cs),
(470,212,o),
(566,253,o),
(566,369,cs),
(566,453,o),
(493,495,o),
(409,495,cs),
(361,495,o),
(315,487,o),
(267,461,c),
(262,470,o),
(260,480,o),
(260,489,cs),
(260,514,o),
(278,535,o),
(315,535,cs),
(611,535,l),
(637,700,l),
(303,700,ls),
(160,700,o),
(79,606,o),
(79,502,cs),
(79,439,o),
(97,404,o),
(120,371,c),
(60,326,o),
(21,263,o),
(21,191,cs),
(21,97,o),
(91,0,o),
(236,0,cs)
);
},
{
closed = 1;
nodes = (
(361,325,o),
(333,338,o),
(318,353,c),
(336,368,o),
(364,380,o),
(392,380,cs),
(416,380,o),
(431,372,o),
(431,356,cs),
(431,337,o),
(414,325,o),
(385,325,cs)
);
}
);
width = 605;
}
);
unicode = 69;
},
{
glyphname = Eogonek;
layers = (
{
layerId = "F0CAE04A-D5A8-412F-B560-CC5EB0DB4883";
shapes = (
{
ref = E;
},
{
closed = 1;
nodes = (
(402,-218,o),
(421,-212,o),
(427,-210,c),
(430,-186,l),
(408,-192,o),
(391,-195,o),
(374,-195,cs),
(339,-195,o),
(307,-177,o),
(307,-134,cs),
(307,-85,o),
(352,-32,o),
(397,0,c),
(384,18,l),
(336,-18,o),
(281,-78,o),
(281,-139,cs),
(281,-194,o),
(325,-218,o),
(374,-218,cs)
);
}
);
width = 548;
},
{
layerId = "2B2EB811-521F-412C-AF7C-8DB707505A49";
shapes = (
{
ref = E;
},
{
closed = 1;
nodes = (
(428,-218,o),
(452,-215,o),
(467,-211,c),
(476,-126,l),
(461,-131,o),
(447,-134,o),
(432,-134,cs),
(401,-134,o),
(379,-112,o),
(383,-80,cs),
(388,-29,o),
(456,57,o),
(463,66,c),
(430,86,l),
(422,78,o),
(302,-33,o),
(295,-104,cs),
(287,-181,o),
(342,-218,o),
(414,-218,cs)
);
}
);
width = 572;
},
{
layerId = "DFD58E85-E3C3-490B-B779-464E2464870B";
shapes = (
{
ref = E;
},
{
closed = 1;
nodes = (
(422,-219,o),
(455,-215,o),
(474,-210,c),
(488,-117,l),
(476,-121,o),
(459,-124,o),
(443,-124,cs),
(413,-124,o),
(398,-109,o),
(398,-87,cs),
(398,-39,o),
(476,52,o),
(491,69,c),
(438,95,l),
(405,66,o),
(281,-33,o),
(281,-121,cs),
(281,-184,o),
(331,-219,o),
(401,-219,cs)
);
}
);
width = 605;
}
);
unicode = 280;
},
{
glyphname = Schwa;
kernLeft = O_2nd;
kernRight = O_1st;
layers = (
{
anchors = (
{
name = bottom;
pos = (315,0);
},
{
name = top;
pos = (425,700);
}
);
background = {
shapes = (
{
closed = 1;
nodes = (
(275,-13,o),
(313,-13,cs),
(488,-15,o),
(637,136,o),
(658,331,cs),
(681,553,o),
(548,700,o),
(300,700,cs),
(189,700,l),
(185,677,l),
(295,677,ls),
(522,677,o),
(645,548,o),
(635,354,c),
(47,354,l),
(45,346,o),
(44,339,o),
(43,331,cs),
(7,-10,o)
);
},
{
closed = 1;
nodes = (
(36,15,o),
(67,331,c),
(633,331,l),
(614,155,o),
(479,9,o),
(313,10,cs),
(277,10,o)
);
}
);
};
layerId = "F0CAE04A-D5A8-412F-B560-CC5EB0DB4883";
shapes = (
{
closed = 1;
nodes = (
(528,-13,o),
(663,174,o),
(663,372,cs),
(663,572,o),
(537,700,o),
(309,700,cs),
(200,700,l),
(196,677,l),
(304,677,ls),
(527,677,o),
(645,548,o),
(638,354,c),
(60,354,l),
(56,324,o),
(54,307,o),
(54,271,cs),
(54,76,o),
(168,-13,o),
(325,-13,cs)
);
},
{
closed = 1;
nodes = (
(182,10,o),
(78,90,o),
(78,274,cs),
(78,292,o),
(79,311,o),
(81,331,c),
(636,331,l),
(621,161,o),
(498,10,o),
(324,10,cs)
);
}
);
width = 710;
},
{
anchors = (
{
name = bottom;
pos = (311,0);
},
{
name = top;
pos = (421,700);
}
);
layerId = "2B2EB811-521F-412C-AF7C-8DB707505A49";
shapes = (
{
closed = 1;
nodes = (
(544,-12,o),
(683,161,o),
(683,399,cs),
(683,589,o),
(548,700,o),
(350,700,cs),
(194,700,l),
(173,566,l),
(358,566,ls),
(493,566,o),
(544,485,o),
(542,401,c),
(64,401,l),
(50,359,o),
(42,306,o),
(42,264,cs),
(42,67,o),
(172,-12,o),
(313,-12,cs)
);
},
{
closed = 1;
nodes = (
(236,116,o),
(178,165,o),
(178,251,cs),
(178,260,o),
(179,269,o),
(180,278,c),
(526,278,l),
(500,192,o),
(427,116,o),
(322,116,cs)
);
}
);
width = 702;
},
{
anchors = (
{
name = bottom;
pos = (315,0);
},
{
name = top;
pos = (426,700);
}
);
background = {
shapes = (
{
closed = 1;
nodes = (
(559,-13,o),
(696,129,o),
(696,355,cs),
(696,568,o),
(544,700,o),
(305,700,cs),
(118,700,l),
(118,528,l),
(309,528,ls),
(394,528,o),
(454,482,o),
(480,418,c),
(45,418,l),
(40,385,o),
(37,365,o),
(37,327,cs),
(37,119,o),
(145,-13,o),
(357,-13,cs)
);
},
{
closed = 1;
nodes = (
(286,154,o),
(245,200,o),
(238,255,c),
(482,255,l),
(465,200,o),
(420,154,o),
(353,154,cs)
);
}
);
};
layerId = "DFD58E85-E3C3-490B-B779-464E2464870B";
shapes = (
{
closed = 1;
nodes = (
(549,-12,o),
(703,141,o),
(702,386,cs),
(702,554,o),
(564,700,o),
(363,700,cs),
(176,700,l),
(150,528,l),
(335,528,ls),
(420,528,o),
(477,487,o),
(489,419,c),
(55,418,l),
(42,365,o),
(34,327,o),
(34,271,cs),
(34,111,o),
(145,-12,o),
(331,-12,cs)
);
},
{
closed = 1;
nodes = (
(266,157,o),
(229,199,o),
(229,252,cs),
(229,253,o),
(229,254,o),
(229,255,c),
(472,255,l),
(460,199,o),
(401,157,o),
(336,157,cs)
);
}
);
width = 712;
}
);
unicode = 399;
},
{
glyphname = F;
kernLeft = H_2nd;
kernRight = F_1st;
layers = (
{
anchors = (
{
name = bottom;
pos = (216,0);
},
{
name = top;
pos = (326,700);
}
);
background = {
shapes = (
{
closed = 1;
nodes = (
(228,0,l),
(228,257,l),
(508,257,l),
(508,383,l),
(228,383,l),
(228,496,ls),
(228,539,o),
(262,574,o),
(305,574,cs),
(542,574,l),
(542,700,l),
(289,700,ls),
(176,700,o),
(85,609,o),
(85,496,cs),
(85,0,l)
);
}
);
};
layerId = "F0CAE04A-D5A8-412F-B560-CC5EB0DB4883";
shapes = (
{
closed = 1;
nodes = (
(70,0,l),
(124,342,l),
(451,342,l),
(454,365,l),
(127,365,l),
(158,554,ls),
(170,629,o),
(222,677,o),
(306,677,cs),
(543,677,l),
(547,700,l),
(305,700,ls),
(211,700,o),
(148,649,o),
(133,557,cs),
(45,0,l)
);
}
);
width = 512;
},
{
anchors = (
{
name = bottom;
pos = (235,0);
},
{
name = top;
pos = (345,700);
}
);
background = {
shapes = (
{
closed = 1;
nodes = (
(146,0,l),
(186,257,l),
(466,257,l),
(486,383,l),
(206,383,l),
(224,496,ls),
(231,539,o),
(270,574,o),
(313,574,cs),
(550,574,l),
(570,700,l),
(317,700,ls),
(204,700,o),
(99,609,o),
(81,496,cs),
(3,0,l)
);
}
);
};
layerId = "2B2EB811-521F-412C-AF7C-8DB707505A49";
shapes = (
{
closed = 1;
nodes = (
(146,0,l),
(186,257,l),
(466,257,l),
(486,383,l),
(206,383,l),
(224,496,ls),
(232,547,o),
(261,574,o),
(313,574,cs),
(550,574,l),
(570,700,l),
(302,700,ls),
(184,700,o),
(105,640,o),
(86,522,cs),
(3,0,l)
);
}
);
width = 550;
},
{
anchors = (
{
name = bottom;
pos = (244,0);
},
{
name = top;
pos = (355,700);
}
);
background = {
shapes = (
{
closed = 1;
nodes = (
(217,0,l),
(255,240,l),
(516,240,l),
(542,405,l),
(281,405,l),
(293,482,ls),
(297,510,o),
(321,531,o),
(349,531,cs),
(593,531,l),
(620,700,l),
(343,700,ls),
(209,700,o),
(97,608,o),
(77,486,cs),
(1,0,l)
);
}
);
};
layerId = "DFD58E85-E3C3-490B-B779-464E2464870B";
shapes = (
{
closed = 1;
nodes = (
(217,0,l),
(255,240,l),
(516,240,l),
(542,405,l),
(281,405,l),
(293,482,ls),
(297,510,o),
(321,531,o),
(349,531,cs),
(593,531,l),
(620,700,l),
(310,700,ls),
(188,700,o),
(101,629,o),
(83,518,cs),
(1,0,l)
);
}
);
width = 570;
}
);
metricLeft = F;
unicode = 70;
},
{
glyphname = G;
kernLeft = O_2nd;
kernRight = S_1st;
layers = (
{
anchors = (
{
name = bottom;
pos = (306,0);
},
{
name = top;
pos = (485,700);
}
);
background = {
shapes = (
{
closed = 1;
nodes = (
(635,-228,o),
(707,-181,o),
(725,-72,cs),
(786,306,ls),
(821,523,o),
(686,718,o),
(448,718,cs),
(226,718,o),
(77,532,o),
(77,329,cs),
(77,169,o),
(186,-7,o),
(398,-7,cs),
(412,-7,o),
(424,-7,o),
(438,-5,c),
(432,-22,o),
(424,-60,o),
(424,-90,cs),
(424,-175,o),
(484,-228,o),
(561,-228,cs)
);
},
{
closed = 1;
nodes = (
(498,-205,o),
(449,-160,o),
(449,-88,cs),
(449,82,o),
(637,218,o),
(752,257,c),
(699,-74,ls),
(685,-163,o),
(625,-205,o),
(562,-205,cs)
);
},
{
closed = 1;
nodes = (
(205,16,o),
(103,182,o),
(103,331,cs),
(103,521,o),
(240,695,o),
(452,695,cs),
(670,695,o),
(792,511,o),
(760,310,cs),
(756,285,l),
(582,215,o),
(488,108,o),
(451,19,c),
(434,16,o),
(421,16,o),
(406,16,cs)
);
}
);
};
layerId = "F0CAE04A-D5A8-412F-B560-CC5EB0DB4883";
shapes = (
{
closed = 1;
nodes = (
(635,-228,o),
(707,-181,o),
(725,-72,cs),
(784,293,ls),
(788,318,o),
(791,346,o),
(791,380,cs),
(791,562,o),
(661,718,o),
(448,718,cs),
(226,718,o),
(77,532,o),
(77,329,cs),
(77,169,o),
(186,-7,o),
(398,-7,cs),
(412,-7,o),
(424,-7,o),
(438,-5,c),
(432,-22,o),
(424,-60,o),
(424,-90,cs),
(424,-175,o),
(484,-228,o),
(561,-228,cs)
);
},
{
closed = 1;
nodes = (
(498,-205,o),
(449,-160,o),
(449,-88,cs),
(449,82,o),
(637,218,o),
(752,257,c),
(699,-74,ls),
(685,-163,o),
(625,-205,o),
(562,-205,cs)
);
},
{
closed = 1;
nodes = (
(205,16,o),
(103,182,o),
(103,331,cs),
(103,521,o),
(240,695,o),
(452,695,cs),
(647,695,o),
(765,548,o),
(765,379,cs),
(765,355,o),
(763,327,o),
(759,304,cs),
(756,285,l),
(582,215,o),
(488,108,o),
(451,19,c),
(434,16,o),
(421,16,o),
(406,16,cs)
);
}
);
width = 863;
},
{
anchors = (
{
name = bottom;
pos = (213,0);
},
{
name = top;
pos = (433,700);
}
);
background = {
shapes = (
{
closed = 1;
nodes = (
(617,-216,o),
(681,-141,o),
(698,-29,cs),
(748,293,ls),
(779,494,o),
(676,712,o),
(407,712,cs),
(186,712,o),
(48,538,o),
(48,340,cs),
(48,163,o),
(159,13,o),
(343,13,cs),
(349,13,o),
(355,13,o),
(361,13,c),
(341,-20,o),
(335,-48,o),
(335,-74,cs),
(335,-170,o),
(415,-216,o),
(502,-216,cs)
);
},
{
closed = 1;
nodes = (
(485,-91,o),
(470,-76,o),
(470,-37,cs),
(470,19,o),
(512,90,o),
(584,145,c),
(556,-31,ls),
(550,-67,o),
(533,-91,o),
(505,-91,cs)
);
},
{
closed = 1;
nodes = (
(281,133,o),
(191,216,o),
(191,339,cs),
(188,452,o),
(268,586,o),
(406,586,cs),
(571,586,o),
(634,436,o),
(609,310,cs),
(605,290,l),
(525,244,o),
(467,191,o),
(426,139,c),
(409,135,o),
(391,133,o),
(374,133,cs)
);
}
);
};
layerId = "2B2EB811-521F-412C-AF7C-8DB707505A49";
shapes = (
{
closed = 1;
nodes = (
(617,-216,o),
(681,-141,o),
(698,-29,cs),
(746,280,ls),
(750,306,o),
(753,336,o),
(753,365,cs),
(753,544,o),
(645,712,o),
(407,712,cs),
(186,712,o),
(48,538,o),
(48,340,cs),
(48,163,o),
(159,13,o),
(343,13,cs),
(349,13,o),
(355,13,o),
(361,13,c),
(341,-20,o),
(335,-48,o),
(335,-74,cs),
(335,-170,o),
(415,-216,o),
(502,-216,cs)
);
},
{
closed = 1;
nodes = (
(485,-91,o),
(470,-76,o),
(470,-37,cs),
(470,19,o),
(512,90,o),
(584,145,c),
(556,-31,ls),
(550,-67,o),
(533,-91,o),
(505,-91,cs)
);
},
{
closed = 1;
nodes = (
(281,133,o),
(191,216,o),
(191,339,cs),
(188,452,o),
(268,586,o),
(406,586,cs),
(548,586,o),
(614,478,o),
(614,367,cs),
(614,349,o),
(612,325,o),
(609,307,cs),
(606,290,l),
(525,244,o),
(467,191,o),
(426,139,c),
(409,135,o),
(391,133,o),
(374,133,cs)
);
}
);
width = 794;
},
{
anchors = (
{
name = bottom;
pos = (188,0);
},
{
name = top;
pos = (474,700);
}
);
background = {
shapes = (
{
closed = 1;
nodes = (
(628,-217,o),
(715,-117,o),
(734,-6,cs),
(789,323,ls),
(826,551,o),
(680,713,o),
(447,713,cs),
(219,713,o),
(38,544,o),
(38,319,cs),
(38,155,o),
(139,12,o),
(300,1,c),
(297,-14,o),
(291,-36,o),
(291,-62,cs),
(291,-153,o),
(369,-217,o),
(485,-217,cs)
);
},
{
closed = 1;
nodes = (
(486,-44,o),
(476,-27,o),
(476,-9,cs),
(476,38,o),
(517,103,o),
(569,141,c),
(547,2,ls),
(543,-26,o),
(524,-44,o),
(504,-44,cs)
);
},
{
closed = 1;
nodes = (
(296,175,o),
(258,245,o),
(258,326,cs),
(258,439,o),
(331,536,o),
(435,536,cs),
(528,536,o),
(594,461,o),
(577,364,cs),
(571,329,l),
(503,291,o),
(432,233,o),
(384,177,c),
(380,176,o),
(375,175,o),
(370,175,cs)
);
}
);
};
layerId = "DFD58E85-E3C3-490B-B779-464E2464870B";
shapes = (
{
closed = 1;
nodes = (
(628,-217,o),
(715,-117,o),
(734,-6,cs),
(786,303,ls),
(790,327,o),
(795,360,o),
(795,396,cs),
(795,583,o),
(655,713,o),
(447,713,cs),
(219,713,o),
(38,544,o),
(38,319,cs),
(38,148,o),
(151,1,o),
(298,1,cs),
(299,1,o),
(299,1,o),
(300,1,c),
(297,-14,o),
(291,-36,o),
(291,-62,cs),
(291,-153,o),
(369,-217,o),
(485,-217,cs)
);
},
{
closed = 1;
nodes = (
(486,-44,o),
(476,-27,o),
(476,-9,cs),
(476,38,o),
(517,103,o),
(569,141,c),
(547,2,ls),
(543,-26,o),
(524,-44,o),
(504,-44,cs)
);
},
{
closed = 1;
nodes = (
(296,175,o),
(258,245,o),
(258,326,cs),
(258,439,o),
(331,536,o),
(435,536,cs),
(518,536,o),
(580,478,o),
(580,396,cs),
(580,384,o),
(578,361,o),
(576,351,cs),
(572,327,l),
(504,290,o),
(432,233,o),
(384,177,c),
(380,176,o),
(375,175,o),
(370,175,cs)
);
}
);
width = 813;
}
);
unicode = 71;
},
{
glyphname = H;
kernLeft = H_2nd;
kernRight = H_1st;
layers = (
{
anchors = (
{
name = bottom;
pos = (302,0);
},
{
name = center;
pos = (357,350);
},
{
name = top;
pos = (412,700);
},
{
name = topleft;
pos = (90,700);
}
);
background = {
shapes = (
{
closed = 1;
nodes = (
(189,0,l),
(189,293,l),
(495,293,l),
(495,0,l),
(638,0,l),
(638,700,l),
(495,700,l),
(495,419,l),
(189,419,l),
(189,700,l),
(46,700,l),
(46,0,l)
);
}
);
};
layerId = "F0CAE04A-D5A8-412F-B560-CC5EB0DB4883";
shapes = (
{
closed = 1;
nodes = (
(70,0,l),
(124,345,l),
(588,345,l),
(534,0,l),
(559,0,l),
(669,699,l),
(644,699,l),
(592,368,l),
(128,368,l),
(180,699,l),
(155,699,l),
(45,0,l)
);
}
);
width = 684;
},
{
anchors = (
{
name = bottom;
pos = (326,0);
},
{
name = center;
pos = (381,350);
},
{
name = top;
pos = (436,700);
},
{
name = topleft;
pos = (90,700);
}
);
layerId = "2B2EB811-521F-412C-AF7C-8DB707505A49";
shapes = (
{
closed = 1;
nodes = (
(173,0,l),
(219,293,l),
(525,293,l),
(479,0,l),
(622,0,l),
(732,700,l),
(589,700,l),
(545,419,l),
(239,419,l),
(283,700,l),
(140,700,l),
(30,0,l)
);
}
);
width = 732;
},
{
anchors = (
{
name = bottom;
pos = (323,0);
},
{
name = center;
pos = (378,350);
},
{
name = top;
pos = (434,700);
},
{
name = topleft;
pos = (90,700);
}
);
layerId = "DFD58E85-E3C3-490B-B779-464E2464870B";
shapes = (
{
closed = 1;
nodes = (
(219,0,l),
(261,269,l),
(470,269,l),
(428,0,l),
(644,0,l),
(754,700,l),
(538,700,l),
(497,438,l),
(288,438,l),
(329,700,l),
(113,700,l),
(3,0,l)
);
}
);
width = 728;
}
);
unicode = 72;
},
{
glyphname = Hbar;
kernLeft = H_2nd;
kernRight = H_1st;
layers = (
{
layerId = "F0CAE04A-D5A8-412F-B560-CC5EB0DB4883";
shapes = (
{
closed = 1;
nodes = (
(704,519,l),
(708,542,l),
(66,542,l),
(62,519,l)
);
},
{
alignment = -1;
ref = H;
}
);
width = 684;
},
{
layerId = "2B2EB811-521F-412C-AF7C-8DB707505A49";
shapes = (
{
closed = 1;
nodes = (
(752,515,l),
(764,594,l),
(74,594,l),
(62,515,l)
);
},
{
ref = H;
}
);
width = 732;
},
{
layerId = "DFD58E85-E3C3-490B-B779-464E2464870B";
shapes = (
{
closed = 1;
nodes = (
(780,508,l),
(798,621,l),
(58,621,l),
(40,508,l)
);
},
{
alignment = -1;
pos = (8,0);
ref = H;
}
);
width = 743;
}
);
unicode = 294;
},
{
glyphname = I;
kernLeft = I_2nd;
kernRight = I_1st;
layers = (
{
anchors = (
{
name = bottom;
pos = (172,0);
},
{
name = ogonek;
pos = (343,10);
},
{
name = top;
pos = (282,700);
},
{
name = topleft;
pos = (90,700);
}
);
background = {
shapes = (
{
closed = 1;
nodes = (
(447,0,l),
(447,126,l),
(321,126,l),
(321,574,l),
(447,574,l),
(447,700,l),
(52,700,l),
(52,574,l),
(178,574,l),
(178,126,l),
(52,126,l),
(52,0,l)
);
}
);
};
layerId = "F0CAE04A-D5A8-412F-B560-CC5EB0DB4883";
shapes = (
{
closed = 1;
nodes = (
(333,0,l),
(337,23,l),
(190,23,l),
(292,677,l),
(439,677,l),
(443,700,l),
(123,700,l),
(119,677,l),
(267,677,l),
(165,23,l),
(17,23,l),
(13,0,l)
);
}
);
width = 424;
},
{
anchors = (
{
name = bottom;
pos = (210,0);
},
{
name = ogonek;
pos = (410,10);
},
{
name = top;
pos = (320,700);
},
{
name = topleft;
pos = (90,700);
}
);
layerId = "2B2EB811-521F-412C-AF7C-8DB707505A49";
shapes = (
{
closed = 1;
nodes = (
(408,0,l),
(428,126,l),
(302,126,l),
(372,574,l),
(498,574,l),
(518,700,l),
(123,700,l),
(103,574,l),
(229,574,l),
(159,126,l),
(33,126,l),
(13,0,l)
);
}
);
width = 499;
},
{
anchors = (
{
name = bottom;
pos = (208,0);
},
{
name = ogonek;
pos = (409,10);
},
{
name = top;
pos = (319,700);
},
{
name = topleft;
pos = (90,700);
}
);
layerId = "DFD58E85-E3C3-490B-B779-464E2464870B";
shapes = (
{
closed = 1;
nodes = (
(426,0,l),
(453,169,l),
(343,169,l),
(399,531,l),
(509,531,l),
(536,700,l),
(101,700,l),
(74,531,l),
(183,531,l),
(127,169,l),
(18,169,l),
(-9,0,l)
);
}
);
width = 498;
}
);
unicode = 73;
},
{
glyphname = Iogonek;
kernLeft = I_2nd;
kernRight = I_1st;
layers = (
{
background = {
shapes = (
{
closed = 1;
nodes = (
(347,-218,o),
(366,-212,o),
(372,-210,c),
(372,-185,l),
(351,-191,o),
(334,-194,o),
(318,-194,cs),
(260,-194,o),
(225,-164,o),
(225,-121,cs),
(225,-66,o),
(270,-32,o),
(320,0,c),
(317,3,o),
(310,16,o),
(308,19,c),
(247,-21,o),
(199,-58,o),
(199,-124,cs),
(199,-181,o),
(248,-218,o),
(321,-218,cs)
);
}
);
};
layerId = "F0CAE04A-D5A8-412F-B560-CC5EB0DB4883";
shapes = (
{
ref = I;
},
{
closed = 1;
nodes = (
(338,-218,o),
(357,-212,o),
(363,-210,c),
(366,-186,l),
(344,-192,o),
(327,-195,o),
(310,-195,cs),
(275,-195,o),
(243,-177,o),
(243,-134,cs),
(243,-85,o),
(288,-32,o),
(333,0,c),
(320,18,l),
(272,-18,o),
(217,-78,o),
(217,-139,cs),
(217,-194,o),
(261,-218,o),
(310,-218,cs)
);
}
);
width = 424;
},
{
background = {
shapes = (
{
alignment = -1;
ref = I;
},
{
alignment = -1;
pos = (257,0);
ref = ogonek;
}
);
};
layerId = "2B2EB811-521F-412C-AF7C-8DB707505A49";
shapes = (
{
ref = I;
},
{
closed = 1;
nodes = (
(343,-218,o),
(367,-215,o),
(382,-211,c),
(391,-126,l),
(376,-131,o),
(362,-134,o),
(347,-134,cs),
(316,-134,o),
(294,-112,o),
(298,-80,cs),
(303,-29,o),
(371,57,o),
(378,66,c),
(345,86,l),
(337,78,o),
(217,-33,o),
(210,-104,cs),
(202,-181,o),
(257,-218,o),
(329,-218,cs)
);
}
);
width = 499;
},
{
layerId = "DFD58E85-E3C3-490B-B779-464E2464870B";
shapes = (
{
ref = I;
},
{
closed = 1;
nodes = (
(345,-219,o),
(378,-215,o),
(397,-210,c),
(411,-117,l),
(399,-121,o),
(382,-124,o),
(366,-124,cs),
(336,-124,o),
(321,-109,o),
(321,-87,cs),
(321,-39,o),
(399,52,o),
(414,69,c),
(361,95,l),
(328,66,o),
(204,-33,o),
(204,-121,cs),
(204,-184,o),
(254,-219,o),
(324,-219,cs)
);
}
);
width = 498;
}
);
unicode = 302;
},
{
glyphname = J;
kernLeft = J_2nd;
kernRight = H_1st;
layers = (
{
anchors = (
{
name = bottom;
pos = (154,0);
},
{
name = top;
pos = (277,700);
}
);
background = {
shapes = (
{
closed = 1;
nodes = (
(162,-216,o),
(238,-175,o),
(255,-61,cs),
(375,700,l),
(183,700,l),
(179,677,l),
(346,677,l),
(284,284,l),
(51,138,o),
(-10,21,o),
(-25,-72,cs),
(-40,-171,o),
(23,-216,o),
(92,-216,cs)
);
},
{
closed = 1;
nodes = (
(35,-193,o),
(-13,-157,o),
(0,-75,cs),
(13,6,o),
(67,120,o),
(280,254,c),
(230,-62,ls),
(215,-155,o),
(152,-193,o),
(91,-193,cs)
);
}
);
};
layerId = "F0CAE04A-D5A8-412F-B560-CC5EB0DB4883";
shapes = (
{
closed = 1;
nodes = (
(161,-215,o),
(237,-177,o),
(257,-45,cs),
(372,700,l),
(182,700,l),
(178,677,l),
(343,677,l),
(281,284,l),
(149,200,o),
(-27,62,o),
(-27,-97,cs),
(-27,-179,o),
(23,-215,o),
(93,-215,cs)
);
},
{
closed = 1;
nodes = (
(37,-192,o),
(-2,-161,o),
(-2,-95,cs),
(-2,50,o),
(156,177,o),
(278,254,c),
(232,-45,ls),
(215,-156,o),
(151,-192,o),
(93,-192,cs)
);
}
);
width = 388;
},
{
anchors = (
{
name = bottom;
pos = (175,0);
},
{
name = top;
pos = (288,700);
}
);
background = {
shapes = (
{
closed = 1;
nodes = (
(231,-218,o),
(299,-131,o),
(315,-28,cs),
(429,700,l),
(147,700,l),
(127,574,l),
(267,574,l),
(222,284,l),
(98,219,o),
(-49,79,o),
(-49,-69,cs),
(-49,-163,o),
(13,-218,o),
(117,-218,cs)
);
},
{
closed = 1;
nodes = (
(99,-90,o),
(85,-71,o),
(85,-39,cs),
(86,26,o),
(130,89,o),
(198,139,c),
(171,-30,ls),
(165,-66,o),
(148,-90,o),
(120,-90,cs)
);
}
);
};
layerId = "2B2EB811-521F-412C-AF7C-8DB707505A49";
shapes = (
{
closed = 1;
nodes = (
(225,-218,o),
(297,-143,o),
(315,-28,cs),
(429,700,l),
(147,700,l),
(127,574,l),
(267,574,l),
(222,287,l),
(98,222,o),
(-49,96,o),
(-49,-61,cs),
(-49,-155,o),
(7,-218,o),
(111,-218,cs)
);
},
{
closed = 1;
nodes = (
(101,-90,o),
(88,-73,o),
(88,-41,cs),
(89,24,o),
(127,77,o),
(195,123,c),
(171,-30,ls),
(165,-66,o),
(150,-90,o),
(122,-90,cs)
);
}
);
width = 430;
},
{
anchors = (
{
name = bottom;
pos = (166,0);
},
{
name = top;
pos = (277,700);
}
);
background = {
shapes = (
{
closed = 1;
nodes = (
(250,-216,o),
(312,-115,o),
(336,36,cs),
(441,700,l),
(110,700,l),
(84,532,l),
(223,532,l),
(184,286,l),
(45,207,o),
(-69,81,o),
(-69,-56,cs),
(-69,-156,o),
(3,-216,o),
(104,-216,cs)
);
},
{
closed = 1;
nodes = (
(95,-40,o),
(83,-28,o),
(83,-7,cs),
(83,39,o),
(119,88,o),
(171,128,c),
(152,6,ls),
(147,-24,o),
(129,-40,o),
(111,-40,cs)
);
}
);
};
layerId = "DFD58E85-E3C3-490B-B779-464E2464870B";
shapes = (
{
closed = 1;
nodes = (
(243,-216,o),
(312,-121,o),
(335,27,cs),
(441,700,l),
(110,700,l),
(84,532,l),
(223,532,l),
(187,304,l),
(48,224,o),
(-69,114,o),
(-69,-45,cs),
(-69,-145,o),
(-4,-216,o),
(97,-216,cs)
);
},
{
closed = 1;
nodes = (
(102,-42,o),
(94,-29,o),
(94,-9,cs),
(94,30,o),
(123,93,o),
(171,126,c),
(152,2,ls),
(148,-26,o),
(135,-42,o),
(117,-42,cs)
);
}
);
width = 413;
}
);
unicode = 74;
},
{
glyphname = K;
kernLeft = H_2nd;
kernRight = K_1st;
layers = (
{
anchors = (
{
name = bottom;
pos = (284,0);
},
{
name = top;
pos = (410,700);
}
);
background = {
shapes = (
{
closed = 1;
nodes = (
(627,381,o),
(655,513,cs),
(694,700,l),
(669,700,l),
(630,517,ls),
(604,397,o),
(511,348,o),
(398,348,cs),
(143,348,l),
(216,700,l),
(191,700,l),
(45,0,l),
(70,0,l),
(138,325,l),
(394,325,ls),
(524,325,o)
);
},
{
closed = 1;
nodes = (
(500,71,ls),
(511,23,o),
(534,0,o),
(581,0,cs),
(608,0,l),
(613,24,l),
(588,24,ls),
(547,24,o),
(535,40,o),
(525,82,cs),
(462,339,l),
(438,333,l)
);
}
);
};
layerId = "F0CAE04A-D5A8-412F-B560-CC5EB0DB4883";
shapes = (
{
closed = 1;
nodes = (
(70,0,l),
(138,325,l),
(394,325,ls),
(410,325,o),
(425,326,o),
(439,327,c),
(500,71,ls),
(511,23,o),
(534,0,o),
(581,0,cs),
(608,0,l),
(613,24,l),
(588,24,ls),
(547,24,o),
(535,40,o),
(525,82,cs),
(464,331,l),
(560,349,o),
(633,406,o),
(655,513,cs),
(694,700,l),
(669,700,l),
(630,517,ls),
(604,397,o),
(511,348,o),
(398,348,cs),
(143,348,l),
(216,700,l),
(191,700,l),
(45,0,l)
);
}
);
width = 680;
},
{
anchors = (
{
name = bottom;
pos = (299,0);
},
{
name = top;
pos = (409,700);
}
);
background = {
shapes = (
{
closed = 1;
nodes = (
(213,0,l),
(213,283,l),
(310,283,ls),
(323,283,o),
(335,283,o),
(348,283,c),
(447,76,ls),
(470,29,o),
(511,0,o),
(578,0,cs),
(668,0,l),
(668,126,l),
(600,126,ls),
(589,126,o),
(580,130,o),
(576,139,cs),
(492,316,l),
(564,357,o),
(612,431,o),
(612,524,cs),
(612,700,l),
(469,700,l),
(469,524,ls),
(469,451,o),
(414,409,o),
(346,409,cs),
(213,409,l),
(213,700,l),
(70,700,l),
(70,0,l)
);
}
);
};
layerId = "2B2EB811-521F-412C-AF7C-8DB707505A49";
shapes = (
{
closed = 1;
nodes = (
(158,0,l),
(202,283,l),
(299,283,ls),
(312,283,o),
(328,283,o),
(341,283,c),
(408,76,ls),
(423,29,o),
(460,0,o),
(527,0,cs),
(613,0,l),
(633,126,l),
(565,126,ls),
(554,126,o),
(546,130,o),
(543,139,cs),
(488,311,l),
(571,340,o),
(621,409,o),
(637,510,cs),
(667,700,l),
(524,700,l),
(496,524,ls),
(483,443,o),
(435,409,o),
(362,409,cs),
(222,409,l),
(268,700,l),
(125,700,l),
(15,0,l)
);
}
);
width = 678;
},
{
anchors = (
{
name = bottom;
pos = (316,0);
},
{
name = top;
pos = (407,700);
}
);
background = {
shapes = (
{
closed = 1;
nodes = (
(219,0,l),
(260,264,l),
(297,264,ls),
(302,264,o),
(307,264,o),
(313,264,c),
(371,84,ls),
(388,32,o),
(433,0,o),
(518,0,cs),
(631,0,l),
(657,165,l),
(604,165,ls),
(588,165,o),
(577,173,o),
(572,187,cs),
(532,314,l),
(604,359,o),
(659,430,o),
(671,512,cs),
(701,700,l),
(485,700,l),
(456,516,ls),
(448,463,o),
(410,432,o),
(369,432,cs),
(287,432,l),
(329,700,l),
(113,700,l),
(3,0,l)
);
}
);
};
layerId = "DFD58E85-E3C3-490B-B779-464E2464870B";
shapes = (
{
closed = 1;
nodes = (
(219,0,l),
(260,264,l),
(297,264,ls),
(302,264,o),
(307,264,o),
(313,264,c),
(363,107,ls),
(385,37,o),
(439,0,o),
(527,0,cs),
(631,0,l),
(657,165,l),
(597,165,ls),
(581,165,o),
(570,173,o),
(565,187,cs),
(521,307,l),
(609,353,o),
(657,421,o),
(670,503,cs),
(701,700,l),
(485,700,l),
(456,516,ls),
(448,463,o),
(410,432,o),
(369,432,cs),
(287,432,l),
(329,700,l),
(113,700,l),
(3,0,l)
);
}
);
width = 674;
}
);
unicode = 75;
},
{
glyphname = L;
kernLeft = H_2nd;
kernRight = L_1st;
layers = (
{
anchors = (
{
name = bottom;
pos = (214,0);
},
{
name = center;
pos = (252,350);
},
{
name = top;
pos = (171,700);
},
{
name = topright;
pos = (357,510);
}
);
background = {
shapes = (
{
closed = 1;
nodes = (
(388,0,l),
(392,23,l),
(190,23,ls),
(105,23,o),
(79,61,o),
(94,155,cs),
(180,699,l),
(155,699,l),
(70,159,ls),
(52,46,o),
(87,0,o),
(196,0,cs)
);
}
);
};
layerId = "F0CAE04A-D5A8-412F-B560-CC5EB0DB4883";
shapes = (
{
closed = 1;
nodes = (
(388,0,l),
(392,23,l),
(190,23,ls),
(122,23,o),
(90,47,o),
(90,103,cs),
(90,122,o),
(92,144,o),
(95,161,cs),
(180,699,l),
(155,699,l),
(71,166,ls),
(68,146,o),
(65,122,o),
(65,105,cs),
(65,31,o),
(107,0,o),
(196,0,cs)
);
}
);
width = 473;
},
{
anchors = (
{
name = bottom;
pos = (206,0);
},
{
name = center;
pos = (251,350);
},
{
name = top;
pos = (204,700);
},
{
name = topright;
pos = (327,508);
}
);
background = {
shapes = (
{
closed = 1;
nodes = (
(411,0,l),
(431,126,l),
(246,126,ls),
(198,126,o),
(185,156,o),
(191,192,cs),
(271,700,l),
(128,700,l),
(51,209,ls),
(33,94,o),
(79,0,o),
(226,0,cs)
);
}
);
};
layerId = "2B2EB811-521F-412C-AF7C-8DB707505A49";
shapes = (
{
closed = 1;
nodes = (
(411,0,l),
(431,126,l),
(241,126,ls),
(200,126,o),
(190,146,o),
(190,172,cs),
(190,181,o),
(192,195,o),
(193,204,cs),
(271,700,l),
(128,700,l),
(53,220,ls),
(51,204,o),
(47,176,o),
(47,154,cs),
(47,69,o),
(99,0,o),
(226,0,cs)
);
}
);
width = 471;
},
{
anchors = (
{
name = bottom;
pos = (221,0);
},
{
name = center;
pos = (267,350);
},
{
name = top;
pos = (227,700);
},
{
name = topright;
pos = (437,516);
}
);
background = {
shapes = (
{
closed = 1;
nodes = (
(451,0,l),
(478,169,l),
(289,169,ls),
(262,169,o),
(249,191,o),
(253,217,cs),
(329,700,l),
(113,700,l),
(40,237,ls),
(18,99,o),
(81,0,o),
(223,0,cs)
);
}
);
};
layerId = "DFD58E85-E3C3-490B-B779-464E2464870B";
shapes = (
{
closed = 1;
nodes = (
(451,0,l),
(478,169,l),
(289,169,ls),
(265,169,o),
(252,180,o),
(252,202,cs),
(252,210,o),
(254,221,o),
(256,234,cs),
(329,700,l),
(113,700,l),
(43,255,ls),
(40,237,o),
(35,199,o),
(35,175,cs),
(35,73,o),
(99,0,o),
(223,0,cs)
);
}
);
width = 506;
}
);
unicode = 76;
},
{
glyphname = LJ;
kernLeft = H_2nd;
kernRight = H_1st;
layers = (
{
background = {
anchors = (
{
name = bottom;
pos = (138,0);
},
{
name = center;
pos = (193,350);
},
{
name = top;
pos = (248,700);
},
{
name = topright;
pos = (406,700);
}
);
hints = (
{
place = (58, 143);
place = (58, 143);
type = Stem;
},
{
place = (543, 143);
place = (543, 143);
type = Stem;
},
{
horizontal = 1;
place = (0, 126);
place = (0, 126);
type = Stem;
},
{
horizontal = 1;
place = (573, 127);
place = (573, 127);
type = Stem;
},
{
place = (285, 133);
place = (285, 133);
type = Stem;
},
{
place = (503, 142);
place = (503, 142);
type = Stem;
},
{
horizontal = 1;
place = (-218, 128);
place = (-218, 128);
type = Stem;
},
{
horizontal = 1;
place = (574, 126);
place = (574, 126);
type = Stem;
}
);
shapes = (
{
closed = 1;
nodes = (
(237,0,l),
(241,23,l),
(190,23,ls),
(105,23,o),
(79,61,o),
(94,156,cs),
(180,700,l),
(155,700,l),
(70,159,ls),
(52,46,o),
(87,0,o),
(196,0,cs)
);
},
{
closed = 1;
nodes = (
(453,-215,o),
(522,-177,o),
(542,-45,cs),
(657,700,l),
(467,700,l),
(463,677,l),
(628,677,l),
(566,284,l),
(434,200,o),
(258,66,o),
(258,-93,cs),
(258,-170,o),
(315,-215,o),
(385,-215,cs)
);
},
{
closed = 1;
nodes = (
(327,-192,o),
(283,-156,o),
(283,-95,cs),
(283,50,o),
(441,177,o),
(563,254,c),
(517,-45,ls),
(500,-156,o),
(441,-192,o),
(383,-192,cs)
);
}
);
};
layerId = "F0CAE04A-D5A8-412F-B560-CC5EB0DB4883";
shapes = (
{
closed = 1;
nodes = (
(317,0,l),
(321,23,l),
(190,23,ls),
(122,23,o),
(90,47,o),
(90,103,cs),
(90,122,o),
(92,144,o),
(95,161,cs),
(180,699,l),
(155,699,l),
(71,166,ls),
(68,146,o),
(65,122,o),
(65,105,cs),
(65,31,o),
(107,0,o),
(196,0,cs)
);
},
{
pos = (306,0);
ref = J;
}
);
width = 694;
},
{
background = {
anchors = (
{
name = bottom;
pos = (138,0);
},
{
name = center;
pos = (193,350);
},
{
name = top;
pos = (248,700);
},
{
name = topright;
pos = (406,700);
}
);
hints = (
{
place = (4, 89);
place = (4, 89);
type = Stem;
},
{
place = (489, 89);
place = (489, 89);
type = Stem;
},
{
horizontal = 1;
place = (-54, 72);
place = (-54, 72);
type = Stem;
},
{
horizontal = 1;
place = (519, 73);
place = (519, 73);
type = Stem;
},
{
place = (285, 133);
place = (285, 133);
type = Stem;
},
{
place = (503, 142);
place = (503, 142);
type = Stem;
},
{
horizontal = 1;
place = (-218, 128);
place = (-218, 128);
type = Stem;
},
{
horizontal = 1;
place = (574, 126);
place = (574, 126);
type = Stem;
}
);
shapes = (
{
closed = 1;
nodes = (
(296,0,l),
(316,126,l),
(246,126,ls),
(198,126,o),
(185,156,o),
(191,192,cs),
(271,700,l),
(128,700,l),
(51,209,ls),
(33,94,o),
(79,0,o),
(226,0,cs)
);
},
{
closed = 1;
nodes = (
(516,-218,o),
(584,-131,o),
(600,-28,cs),
(714,700,l),
(432,700,l),
(412,574,l),
(552,574,l),
(507,284,l),
(383,219,o),
(236,79,o),
(236,-69,cs),
(236,-163,o),
(298,-218,o),
(402,-218,cs)
);
},
{
closed = 1;
nodes = (
(384,-90,o),
(370,-71,o),
(370,-39,cs),
(371,26,o),
(415,89,o),
(483,139,c),
(456,-30,ls),
(450,-66,o),
(433,-90,o),
(405,-90,cs)
);
}
);
};
layerId = "2B2EB811-521F-412C-AF7C-8DB707505A49";
shapes = (
{
closed = 1;
nodes = (
(396,0,l),
(416,126,l),
(241,126,ls),
(200,126,o),
(190,146,o),
(190,172,cs),
(190,181,o),
(192,195,o),
(193,204,cs),
(271,700,l),
(128,700,l),
(53,220,ls),
(51,204,o),
(47,176,o),
(47,154,cs),
(47,69,o),
(99,0,o),
(226,0,cs)
);
},
{
pos = (356,0);
ref = J;
}
);
width = 786;
},
{
background = {
anchors = (
{
name = bottom;
pos = (168,0);
},
{
name = center;
pos = (223,350);
},
{
name = top;
pos = (279,700);
},
{
name = topright;
pos = (467,700);
}
);
hints = (
{
place = (58, 143);
place = (58, 143);
type = Stem;
},
{
place = (543, 143);
place = (543, 143);
type = Stem;
},
{
horizontal = 1;
place = (0, 126);
place = (0, 126);
type = Stem;
},
{
horizontal = 1;
place = (573, 127);
place = (573, 127);
type = Stem;
},
{
place = (399, 133);
place = (399, 133);
type = Stem;
},
{
place = (617, 142);
place = (617, 142);
type = Stem;
},
{
horizontal = 1;
place = (-218, 128);
place = (-218, 128);
type = Stem;
},
{
horizontal = 1;
place = (574, 126);
place = (574, 126);
type = Stem;
}
);
shapes = (
{
closed = 1;
nodes = (
(361,0,l),
(388,169,l),
(290,169,ls),
(263,169,o),
(247,191,o),
(251,217,cs),
(327,700,l),
(111,700,l),
(35,219,ls),
(17,99,o),
(94,0,o),
(236,0,cs)
);
},
{
closed = 1;
nodes = (
(649,-216,o),
(711,-115,o),
(735,36,cs),
(840,700,l),
(509,700,l),
(483,532,l),
(622,532,l),
(583,286,l),
(444,207,o),
(330,81,o),
(330,-56,cs),
(330,-156,o),
(402,-216,o),
(503,-216,cs)
);
},
{
closed = 1;
nodes = (
(494,-40,o),
(482,-28,o),
(482,-7,cs),
(482,39,o),
(518,88,o),
(570,128,c),
(551,6,ls),
(546,-24,o),
(528,-40,o),
(510,-40,cs)
);
}
);
};
layerId = "DFD58E85-E3C3-490B-B779-464E2464870B";
shapes = (
{
closed = 1;
nodes = (
(429,0,l),
(456,169,l),
(287,169,ls),
(263,169,o),
(250,180,o),
(250,202,cs),
(250,210,o),
(252,221,o),
(254,234,cs),
(327,700,l),
(111,700,l),
(41,255,ls),
(38,237,o),
(33,199,o),
(33,175,cs),
(33,73,o),
(97,0,o),
(221,0,cs)
);
},
{
pos = (417,0);
ref = J;
}
);
width = 830;
}
);
unicode = 455;
},
{
glyphname = Lslash;
kernLeft = H_2nd;
kernRight = L_1st;
layers = (
{
layerId = "F0CAE04A-D5A8-412F-B560-CC5EB0DB4883";
shapes = (
{
ref = L;
},
{
closed = 1;
nodes = (
(324,424,l),
(324,448,l),
(1,371,l),
(1,347,l)
);
}
);
width = 473;
},
{
layerId = "2B2EB811-521F-412C-AF7C-8DB707505A49";
shapes = (
{
ref = L;
},
{
closed = 1;
nodes = (
(344,391,l),
(356,472,l),
(21,385,l),
(9,304,l)
);
}
);
width = 471;
},
{
layerId = "DFD58E85-E3C3-490B-B779-464E2464870B";
shapes = (
{
ref = L;
},
{
closed = 1;
nodes = (
(389,398,l),
(407,516,l),
(14,405,l),
(-4,287,l)
);
}
);
width = 506;
}
);
unicode = 321;
},
{
glyphname = M;
kernLeft = H_2nd;
kernRight = H_1st;
layers = (
{
anchors = (
{
name = bottom;
pos = (507,0);
},
{
name = top;
pos = (617,700);
}
);
background = {
shapes = (
{
closed = 1;
nodes = (
(603,-11,o),
(673,53,o),
(689,153,cs),
(752,555,ls),
(764,634,o),
(829,690,o),
(904,690,cs),
(986,690,o),
(1042,625,o),
(1029,541,cs),
(943,1,l),
(968,1,l),
(1053,533,ls),
(1070,639,o),
(1007,713,o),
(906,713,cs),
(815,713,o),
(741,649,o),
(726,550,cs),
(665,156,ls),
(651,66,o),
(585,12,o),
(517,12,cs),
(439,12,o),
(386,73,o),
(400,161,cs),
(459,533,ls),
(476,639,o),
(411,713,o),
(311,713,cs),
(220,713,o),
(147,649,o),
(132,550,cs),
(47,1,l),
(72,1,l),
(158,555,ls),
(170,634,o),
(236,690,o),
(310,690,cs),
(390,690,o),
(448,624,o),
(435,541,cs),
(376,169,ls),
(359,61,o),
(424,-11,o),
(517,-11,cs)
);
}
);
};
layerId = "F0CAE04A-D5A8-412F-B560-CC5EB0DB4883";
shapes = (
{
closed = 1;
nodes = (
(605,-13,o),
(673,53,o),
(689,153,cs),
(752,555,ls),
(764,634,o),
(829,690,o),
(904,690,cs),
(978,690,o),
(1031,638,o),
(1031,564,cs),
(1031,552,o),
(1028,533,o),
(1026,521,cs),
(943,1,l),
(968,1,l),
(1051,521,ls),
(1053,533,o),
(1056,552,o),
(1056,566,cs),
(1056,654,o),
(996,713,o),
(906,713,cs),
(815,713,o),
(741,649,o),
(726,550,cs),
(665,156,ls),
(651,66,o),
(587,10,o),
(511,10,cs),
(441,10,o),
(399,59,o),
(399,131,cs),
(399,146,o),
(401,165,o),
(403,179,cs),
(457,521,ls),
(459,533,o),
(462,552,o),
(462,566,cs),
(462,654,o),
(400,713,o),
(311,713,cs),
(220,713,o),
(147,649,o),
(132,550,cs),
(47,1,l),
(72,1,l),
(158,555,ls),
(170,634,o),
(236,690,o),
(310,690,cs),
(382,690,o),
(437,636,o),
(437,564,cs),
(437,552,o),
(434,533,o),
(432,521,cs),
(379,187,ls),
(376,169,o),
(374,147,o),
(374,131,cs),
(374,45,o),
(429,-13,o),
(511,-13,cs)
);
}
);
width = 1094;
},
{
anchors = (
{
name = bottom;
pos = (503,0);
},
{
name = top;
pos = (613,700);
}
);
background = {
shapes = (
{
closed = 1;
nodes = (
(643,-12,o),
(721,65,o),
(742,197,cs),
(793,520,ls),
(799,561,o),
(827,586,o),
(868,586,cs),
(901,586,o),
(925,562,o),
(925,530,cs),
(925,527,o),
(925,523,o),
(924,520,cs),
(842,0,l),
(985,0,l),
(1064,503,ls),
(1066,515,o),
(1067,527,o),
(1067,539,cs),
(1067,637,o),
(1000,712,o),
(885,712,cs),
(744,712,o),
(668,637,o),
(647,503,cs),
(596,180,ls),
(590,140,o),
(561,114,o),
(520,114,cs),
(488,114,o),
(464,138,o),
(464,169,cs),
(464,173,o),
(464,176,o),
(465,180,cs),
(516,503,ls),
(518,515,o),
(519,527,o),
(519,539,cs),
(519,637,o),
(452,712,o),
(337,712,cs),
(196,712,o),
(120,637,o),
(99,503,cs),
(20,0,l),
(163,0,l),
(245,520,ls),
(251,561,o),
(279,586,o),
(320,586,cs),
(353,586,o),
(377,562,o),
(377,530,cs),
(377,527,o),
(377,523,o),
(376,520,cs),
(325,197,ls),
(323,185,o),
(322,173,o),
(322,161,cs),
(322,63,o),
(389,-12,o),
(502,-12,cs)
);
}
);
};
layerId = "2B2EB811-521F-412C-AF7C-8DB707505A49";
shapes = (
{
closed = 1;
nodes = (
(643,-12,o),
(721,65,o),
(742,197,cs),
(793,520,ls),
(799,561,o),
(827,586,o),
(868,586,cs),
(901,586,o),
(924,563,o),
(924,531,cs),
(924,525,o),
(923,514,o),
(922,508,cs),
(842,0,l),
(985,0,l),
(1063,497,ls),
(1065,510,o),
(1067,525,o),
(1067,539,cs),
(1067,637,o),
(1000,712,o),
(885,712,cs),
(744,712,o),
(668,637,o),
(647,503,cs),
(596,180,ls),
(590,140,o),
(561,114,o),
(520,114,cs),
(488,114,o),
(464,133,o),
(464,167,cs),
(464,174,o),
(465,182,o),
(467,194,cs),
(515,496,ls),
(517,510,o),
(519,524,o),
(519,539,cs),
(519,637,o),
(452,712,o),
(337,712,cs),
(196,712,o),
(120,637,o),
(99,503,cs),
(20,0,l),
(163,0,l),
(245,520,ls),
(251,561,o),
(279,586,o),
(320,586,cs),
(353,586,o),
(376,563,o),
(376,532,cs),
(376,524,o),
(375,514,o),
(374,506,cs),
(327,209,ls),
(324,191,o),
(322,176,o),
(322,161,cs),
(322,63,o),
(389,-12,o),
(502,-12,cs)
);
}
);
width = 1085;
},
{
anchors = (
{
name = bottom;
pos = (536,0);
},
{
name = top;
pos = (647,700);
}
);
background = {
shapes = (
{
closed = 1;
nodes = (
(669,-13,o),
(795,63,o),
(817,205,cs),
(861,489,ls),
(865,512,o),
(886,528,o),
(909,528,cs),
(930,528,o),
(948,512,o),
(944,489,cs),
(867,0,l),
(1072,0,l),
(1147,476,ls),
(1169,614,o),
(1070,713,o),
(928,713,cs),
(796,713,o),
(677,628,o),
(656,494,cs),
(612,213,ls),
(608,186,o),
(585,171,o),
(563,171,cs),
(543,171,o),
(525,186,o),
(529,213,cs),
(571,476,ls),
(593,615,o),
(493,713,o),
(351,713,cs),
(219,713,o),
(99,630,o),
(78,494,cs),
(1,0,l),
(207,0,l),
(283,486,ls),
(287,512,o),
(308,528,o),
(332,528,cs),
(355,528,o),
(370,512,o),
(366,486,cs),
(325,223,ls),
(303,83,o),
(402,-13,o),
(545,-13,cs)
);
}
);
};
layerId = "DFD58E85-E3C3-490B-B779-464E2464870B";
shapes = (
{
closed = 1;
nodes = (
(669,-13,o),
(795,63,o),
(817,205,cs),
(861,489,ls),
(865,512,o),
(886,528,o),
(909,528,cs),
(928,528,o),
(943,515,o),
(943,496,cs),
(943,488,o),
(942,480,o),
(941,474,cs),
(867,0,l),
(1072,0,l),
(1145,463,ls),
(1147,476,o),
(1150,496,o),
(1150,514,cs),
(1150,632,o),
(1057,713,o),
(928,713,cs),
(796,713,o),
(677,628,o),
(656,494,cs),
(612,213,ls),
(608,186,o),
(590,171,o),
(564,171,cs),
(545,171,o),
(529,183,o),
(529,205,cs),
(529,212,o),
(530,219,o),
(531,226,cs),
(569,463,ls),
(571,476,o),
(574,496,o),
(574,514,cs),
(574,632,o),
(480,713,o),
(351,713,cs),
(219,713,o),
(99,630,o),
(78,494,cs),
(1,0,l),
(207,0,l),
(283,486,ls),
(287,512,o),
(308,528,o),
(332,528,cs),
(352,528,o),
(366,515,o),
(366,496,cs),
(366,488,o),
(365,480,o),
(364,474,cs),
(327,235,ls),
(325,222,o),
(322,195,o),
(322,178,cs),
(322,62,o),
(415,-13,o),
(545,-13,cs)
);
}
);
width = 1153;
}
);
unicode = 77;
},
{
glyphname = N;
kernLeft = H_2nd;
kernRight = H_1st;
layers = (
{
anchors = (
{
name = bottom;
pos = (355,0);
},
{
name = top;
pos = (491,700);
}
);
background = {
hints = (
{
place = (60, 143);
place = (60, 143);
type = Stem;
},
{
place = (334, 143);
place = (334, 143);
type = Stem;
},
{
place = (608, 143);
place = (608, 143);
type = Stem;
},
{
place = (882, 143);
place = (882, 143);
type = Stem;
},
{
horizontal = 1;
place = (-11, 126);
place = (-11, 126);
type = Stem;
},
{
horizontal = 1;
place = (586, 126);
place = (586, 126);
type = Stem;
},
{
place = (60, -143);
place = (60, -143);
type = Stem;
},
{
place = (334, -143);
place = (334, -143);
type = Stem;
},
{
place = (608, -143);
place = (608, -143);
type = Stem;
},
{
place = (882, -143);
place = (882, -143);
type = Stem;
},
{
horizontal = 1;
place = (712, -126);
place = (712, -126);
type = Stem;
},
{
horizontal = 1;
place = (115, -126);
place = (115, -126);
type = Stem;
},
{
place = (60, 143);
place = (60, 143);
type = Stem;
},
{
place = (334, 143);
place = (334, 143);
type = Stem;
},
{
place = (608, 143);
place = (608, 143);
type = Stem;
},
{
place = (882, 143);
place = (882, 143);
type = Stem;
},
{
horizontal = 1;
place = (-11, 126);
place = (-11, 126);
type = Stem;
},
{
horizontal = 1;
place = (586, 126);
place = (586, 126);
type = Stem;
}
);
shapes = (
{
closed = 1;
nodes = (
(603,-13,o),
(674,52,o),
(689,151,cs),
(773,700,l),
(748,700,l),
(663,145,ls),
(651,65,o),
(587,10,o),
(518,10,cs),
(441,10,o),
(388,66,o),
(402,169,cs),
(452,522,ls),
(470,647,o),
(402,713,o),
(310,713,cs),
(218,713,o),
(147,650,o),
(132,550,cs),
(48,0,l),
(73,0,l),
(158,556,ls),
(170,634,o),
(235,691,o),
(308,691,cs),
(389,691,o),
(444,630,o),
(430,530,cs),
(379,178,ls),
(363,66,o),
(416,-13,o),
(517,-13,cs)
);
}
);
};
layerId = "F0CAE04A-D5A8-412F-B560-CC5EB0DB4883";
shapes = (
{
closed = 1;
nodes = (
(596,-13,o),
(674,52,o),
(689,151,cs),
(773,700,l),
(748,700,l),
(663,145,ls),
(651,65,o),
(580,10,o),
(511,10,cs),
(447,10,o),
(399,55,o),
(399,131,cs),
(399,146,o),
(401,165,o),
(403,179,cs),
(457,521,ls),
(459,533,o),
(462,552,o),
(462,566,cs),
(462,654,o),
(400,713,o),
(310,713,cs),
(218,713,o),
(147,650,o),
(132,550,cs),
(48,0,l),
(73,0,l),
(158,556,ls),
(170,634,o),
(236,690,o),
(310,690,cs),
(382,690,o),
(437,636,o),
(437,564,cs),
(437,552,o),
(434,533,o),
(432,521,cs),
(379,187,ls),
(376,169,o),
(374,147,o),
(374,131,cs),
(374,46,o),
(426,-13,o),
(510,-13,cs)
);
}
);
width = 790;
},
{
anchors = (
{
name = bottom;
pos = (366,0);
},
{
name = top;
pos = (466,700);
}
);
background = {
hints = (
{
place = (60, 143);
place = (60, 143);
type = Stem;
},
{
place = (334, 143);
place = (334, 143);
type = Stem;
},
{
place = (608, 143);
place = (608, 143);
type = Stem;
},
{
place = (882, 143);
place = (882, 143);
type = Stem;
},
{
horizontal = 1;
place = (-11, 126);
place = (-11, 126);
type = Stem;
},
{
horizontal = 1;
place = (586, 126);
place = (586, 126);
type = Stem;
},
{
place = (60, 143);
place = (60, 143);
type = Stem;
},
{
place = (334, 143);
place = (334, 143);
type = Stem;
},
{
place = (608, 143);
place = (608, 143);
type = Stem;
},
{
horizontal = 1;
place = (-12, 126);
place = (-12, 126);
type = Stem;
},
{
horizontal = 1;
place = (586, 126);
place = (586, 126);
type = Stem;
}
);
shapes = (
{
closed = 1;
nodes = (
(643,-12,o),
(724,65,o),
(742,197,cs),
(821,700,l),
(678,700,l),
(596,180,ls),
(590,140,o),
(561,114,o),
(520,114,cs),
(484,114,o),
(459,144,o),
(465,180,cs),
(516,503,ls),
(534,618,o),
(465,712,o),
(337,712,cs),
(196,712,o),
(120,637,o),
(99,503,cs),
(20,0,l),
(163,0,l),
(245,520,ls),
(251,561,o),
(279,586,o),
(320,586,cs),
(356,586,o),
(382,556,o),
(376,520,cs),
(325,197,ls),
(307,82,o),
(375,-12,o),
(502,-12,cs)
);
}
);
};
layerId = "2B2EB811-521F-412C-AF7C-8DB707505A49";
shapes = (
{
closed = 1;
nodes = (
(643,-12,o),
(721,65,o),
(742,197,cs),
(821,700,l),
(678,700,l),
(596,180,ls),
(590,140,o),
(561,114,o),
(520,114,cs),
(488,114,o),
(464,133,o),
(464,167,cs),
(464,174,o),
(465,182,o),
(467,194,cs),
(515,496,ls),
(517,510,o),
(519,524,o),
(519,539,cs),
(519,637,o),
(451,712,o),
(337,712,cs),
(196,712,o),
(120,637,o),
(99,503,cs),
(20,0,l),
(163,0,l),
(245,520,ls),
(251,561,o),
(279,586,o),
(320,586,cs),
(353,586,o),
(376,563,o),
(376,532,cs),
(376,524,o),
(375,514,o),
(374,506,cs),
(327,209,ls),
(324,191,o),
(322,176,o),
(322,162,cs),
(322,63,o),
(389,-12,o),
(502,-12,cs)
);
}
);
width = 811;
},
{
anchors = (
{
name = bottom;
pos = (393,0);
},
{
name = top;
pos = (516,700);
}
);
background = {
hints = (
{
place = (60, 143);
place = (60, 143);
type = Stem;
},
{
place = (334, 143);
place = (334, 143);
type = Stem;
},
{
place = (608, 143);
place = (608, 143);
type = Stem;
},
{
place = (882, 143);
place = (882, 143);
type = Stem;
},
{
horizontal = 1;
place = (-11, 126);
place = (-11, 126);
type = Stem;
},
{
horizontal = 1;
place = (586, 126);
place = (586, 126);
type = Stem;
}
);
shapes = (
{
closed = 1;
nodes = (
(669,-13,o),
(795,63,o),
(817,205,cs),
(894,700,l),
(689,700,l),
(612,213,ls),
(608,186,o),
(585,171,o),
(563,171,cs),
(543,171,o),
(525,186,o),
(529,213,cs),
(571,476,ls),
(593,615,o),
(493,713,o),
(351,713,cs),
(219,713,o),
(99,630,o),
(78,494,cs),
(1,0,l),
(207,0,l),
(283,486,ls),
(287,512,o),
(308,528,o),
(332,528,cs),
(355,528,o),
(370,512,o),
(366,486,cs),
(325,223,ls),
(303,83,o),
(402,-13,o),
(545,-13,cs)
);
}
);
};
layerId = "DFD58E85-E3C3-490B-B779-464E2464870B";
shapes = (
{
closed = 1;
nodes = (
(669,-13,o),
(795,63,o),
(817,205,cs),
(894,700,l),
(689,700,l),
(612,213,ls),
(608,186,o),
(585,171,o),
(563,171,cs),
(545,171,o),
(529,183,o),
(529,205,cs),
(529,212,o),
(530,219,o),
(531,226,cs),
(569,463,ls),
(571,476,o),
(574,496,o),
(574,514,cs),
(574,633,o),
(480,713,o),
(351,713,cs),
(219,713,o),
(99,630,o),
(78,494,cs),
(1,0,l),
(207,0,l),
(283,486,ls),
(287,512,o),
(308,528,o),
(332,528,cs),
(352,528,o),
(366,515,o),
(366,496,cs),
(366,488,o),
(365,480,o),
(364,474,cs),
(327,235,ls),
(325,222,o),
(322,195,o),
(322,178,cs),
(322,62,o),
(415,-13,o),
(545,-13,cs)
);
}
);
width = 867;
}
);
unicode = 78;
},
{
glyphname = Eng;
kernLeft = H_2nd;
kernRight = H_1st;
layers = (
{
anchors = (
{
name = bottom;
pos = (355,0);
},
{
name = top;
pos = (465,700);
}
);
layerId = "F0CAE04A-D5A8-412F-B560-CC5EB0DB4883";
shapes = (
{
closed = 1;
nodes = (
(596,-13,o),
(670,52,o),
(685,151,c),
(663,145,l),
(651,65,o),
(580,10,o),
(511,10,cs),
(447,10,o),
(399,55,o),
(399,131,cs),
(399,146,o),
(401,165,o),
(403,179,cs),
(457,521,ls),
(459,533,o),
(462,552,o),
(462,566,cs),
(462,654,o),
(400,713,o),
(310,713,cs),
(218,713,o),
(147,650,o),
(132,550,cs),
(48,0,l),
(73,0,l),
(158,556,ls),
(170,634,o),
(236,690,o),
(310,690,cs),
(382,690,o),
(437,636,o),
(437,564,cs),
(437,552,o),
(434,533,o),
(432,521,cs),
(379,187,ls),
(376,169,o),
(374,147,o),
(374,131,cs),
(374,46,o),
(426,-13,o),
(510,-13,cs)
);
},
{
closed = 1;
nodes = (
(480,-216,ls),
(576,-216,o),
(643,-157,o),
(657,-62,cs),
(773,700,l),
(748,700,l),
(631,-67,ls),
(620,-142,o),
(563,-193,o),
(482,-193,cs),
(445,-193,l),
(441,-216,l)
);
}
);
width = 790;
},
{
anchors = (
{
name = bottom;
pos = (366,0);
},
{
name = top;
pos = (476,700);
}
);
layerId = "2B2EB811-521F-412C-AF7C-8DB707505A49";
shapes = (
{
closed = 1;
nodes = (
(544,-12,o),
(596,42,o),
(633,118,c),
(596,180,l),
(590,140,o),
(561,114,o),
(520,114,cs),
(488,114,o),
(464,133,o),
(464,167,cs),
(464,174,o),
(465,182,o),
(467,194,cs),
(515,496,ls),
(517,510,o),
(519,524,o),
(519,539,cs),
(519,637,o),
(451,712,o),
(337,712,cs),
(196,712,o),
(120,637,o),
(99,503,cs),
(20,0,l),
(163,0,l),
(245,520,ls),
(251,561,o),
(279,586,o),
(320,586,cs),
(353,586,o),
(376,563,o),
(376,532,cs),
(376,524,o),
(375,514,o),
(374,506,cs),
(325,194,ls),
(322,175,o),
(320,146,o),
(320,129,cs),
(320,47,o),
(365,-12,o),
(453,-12,cs)
);
},
{
closed = 1;
nodes = (
(501,-216,ls),
(628,-216,o),
(689,-141,o),
(707,-26,cs),
(821,700,l),
(678,700,l),
(566,-13,ls),
(557,-71,o),
(538,-88,o),
(489,-88,cs),
(423,-88,l),
(403,-216,l)
);
}
);
width = 822;
},
{
anchors = (
{
name = bottom;
pos = (393,0);
},
{
name = top;
pos = (504,700);
}
);
background = {
shapes = (
{
closed = 1;
nodes = (
(573,-216,ls),
(692,-216,o),
(763,-129,o),
(779,-26,cs),
(827,284,l),
(622,284,l),
(575,-19,ls),
(569,-51,o),
(548,-66,o),
(520,-66,cs),
(427,-66,l),
(404,-216,l)
);
}
);
};
layerId = "DFD58E85-E3C3-490B-B779-464E2464870B";
shapes = (
{
closed = 1;
nodes = (
(565,-13,o),
(626,65,o),
(657,139,c),
(614,213,l),
(609,186,o),
(589,171,o),
(564,171,cs),
(546,171,o),
(529,183,o),
(529,205,cs),
(529,212,o),
(530,219,o),
(531,226,cs),
(569,463,ls),
(571,476,o),
(574,496,o),
(574,514,cs),
(574,633,o),
(480,713,o),
(351,713,cs),
(219,713,o),
(99,630,o),
(78,494,cs),
(1,0,l),
(207,0,l),
(283,486,ls),
(287,512,o),
(308,528,o),
(332,528,cs),
(352,528,o),
(366,515,o),
(366,496,cs),
(366,488,o),
(365,480,o),
(364,474,cs),
(327,235,ls),
(323,207,o),
(318,166,o),
(318,137,cs),
(318,55,o),
(356,-13,o),
(459,-13,cs)
);
},
{
closed = 1;
nodes = (
(589,-203,ls),
(694,-203,o),
(760,-146,o),
(778,-33,cs),
(894,700,l),
(689,700,l),
(577,-31,ls),
(574,-53,o),
(556,-66,o),
(533,-66,cs),
(430,-66,l),
(409,-203,l)
);
}
);
width = 865;
}
);
metricLeft = N;
metricRight = J;
unicode = 330;
},
{
glyphname = O;
kernLeft = O_2nd;
kernRight = O_1st;
layers = (
{
anchors = (
{
name = bottom;
pos = (409,0);
},
{
name = center;
pos = (434,350);
},
{
name = ogonek;
pos = (715,10);
},
{
name = top;
pos = (462,700);
},
{
name = topleft;
pos = (90,700);
},
{
name = topright;
pos = (695,700);
}
);
background = {
shapes = (
{
closed = 1;
nodes = (
(101,525,o),
(246,690,o),
(450,690,cs),
(638,690,o),
(767,559,o),
(767,373,cs),
(767,175,o),
(621,10,o),
(418,10,cs),
(210,10,o),
(101,155,o),
(101,328,cs)
);
},
{
closed = 1;
nodes = (
(650,-13,o),
(792,175,o),
(792,375,cs),
(792,573,o),
(655,713,o),
(450,713,cs),
(220,713,o),
(76,527,o),
(76,326,cs),
(76,136,o),
(204,-13,o),
(419,-13,cs)
);
}
);
};
layerId = "F0CAE04A-D5A8-412F-B560-CC5EB0DB4883";
shapes = (
{
closed = 1;
nodes = (
(622,-13,o),
(792,145,o),
(792,374,cs),
(792,585,o),
(643,713,o),
(450,713,cs),
(220,713,o),
(76,527,o),
(76,326,cs),
(76,136,o),
(204,-13,o),
(419,-13,cs)
);
},
{
closed = 1;
nodes = (
(210,10,o),
(101,155,o),
(101,328,cs),
(101,525,o),
(246,690,o),
(450,690,cs),
(626,690,o),
(767,569,o),
(767,372,cs),
(767,162,o),
(609,10,o),
(418,10,cs)
);
}
);
width = 838;
},
{
anchors = (
{
name = bottom;
pos = (391,0);
},
{
name = center;
pos = (416,350);
},
{
name = ogonek;
pos = (482,80);
},
{
name = top;
pos = (440,700);
},
{
name = topleft;
pos = (90,700);
},
{
name = topright;
pos = (663,700);
}
);
layerId = "2B2EB811-521F-412C-AF7C-8DB707505A49";
shapes = (
{
closed = 1;
nodes = (
(600,-12,o),
(784,129,o),
(784,371,cs),
(784,590,o),
(618,713,o),
(439,713,cs),
(232,713,o),
(48,572,o),
(48,330,cs),
(48,111,o),
(214,-12,o),
(393,-12,cs)
);
},
{
closed = 1;
nodes = (
(259,116,o),
(189,224,o),
(189,336,cs),
(189,458,o),
(271,585,o),
(429,585,cs),
(574,585,o),
(644,477,o),
(644,365,cs),
(644,243,o),
(561,116,o),
(403,116,cs)
);
}
);
width = 801;
},
{
anchors = (
{
name = bottom;
pos = (391,0);
},
{
name = center;
pos = (419,350);
},
{
name = ogonek;
pos = (500,62);
},
{
name = top;
pos = (452,700);
},
{
name = topleft;
pos = (90,700);
},
{
name = topright;
pos = (650,700);
}
);
background = {
shapes = (
{
closed = 1;
nodes = (
(618,-13,o),
(792,157,o),
(788,384,cs),
(785,570,o),
(644,713,o),
(430,713,cs),
(199,713,o),
(18,543,o),
(22,316,cs),
(25,131,o),
(171,-13,o),
(380,-13,cs)
);
},
{
closed = 1;
nodes = (
(489,163,o),
(378,163,cs),
(296,163,o),
(242,239,o),
(241,331,cs),
(242,448,o),
(321,537,o),
(431,537,cs),
(514,537,o),
(568,461,o),
(569,369,cs),
(568,251,o)
);
}
);
};
layerId = "DFD58E85-E3C3-490B-B779-464E2464870B";
shapes = (
{
closed = 1;
nodes = (
(627,-12,o),
(798,151,o),
(798,375,cs),
(798,564,o),
(660,712,o),
(442,712,cs),
(219,712,o),
(40,549,o),
(40,324,cs),
(40,136,o),
(185,-12,o),
(398,-12,cs)
);
},
{
closed = 1;
nodes = (
(325,162,o),
(257,222,o),
(257,332,cs),
(257,441,o),
(328,538,o),
(433,538,cs),
(513,538,o),
(581,478,o),
(581,368,cs),
(581,258,o),
(510,162,o),
(405,162,cs)
);
}
);
width = 810;
}
);
unicode = 79;
},
{
glyphname = Oogonek;
kernLeft = O_2nd;
kernRight = O_1st;
layers = (
{
background = {
hints = (
{
place = (30, 143);
place = (30, 143);
type = Stem;
},
{
place = (621, 143);
place = (621, 143);
type = Stem;
},
{
horizontal = 1;
place = (-12, 126);
place = (-12, 126);
type = Stem;
},
{
horizontal = 1;
place = (586, 126);
place = (586, 126);
type = Stem;
},
{
place = (581, 85);
place = (581, 85);
type = Stem;
},
{
place = (581, 183);
place = (581, 183);
type = Stem;
},
{
horizontal = 1;
place = (-218, 21);
target = up;
type = BottomGhost;
},
{
place = (319, 85);
place = (319, 85);
type = Stem;
},
{
place = (319, 183);
place = (319, 183);
type = Stem;
},
{
horizontal = 1;
place = (-226, 21);
target = up;
type = BottomGhost;
},
{
place = (363, 85);
place = (363, 85);
type = Stem;
},
{
place = (363, 183);
place = (363, 183);
type = Stem;
},
{
horizontal = 1;
place = (-226, 21);
target = up;
type = BottomGhost;
}
);
shapes = (
{
ref = O;
},
{
pos = (562,-76);
ref = ogonekcomb;
}
);
};
layerId = "F0CAE04A-D5A8-412F-B560-CC5EB0DB4883";
shapes = (
{
ref = O;
},
{
closed = 1;
nodes = (
(482,-225,o),
(501,-219,o),
(507,-217,c),
(510,-193,l),
(488,-199,o),
(471,-202,o),
(454,-202,cs),
(419,-202,o),
(387,-184,o),
(387,-141,cs),
(387,-92,o),
(432,-39,o),
(477,-7,c),
(464,11,l),
(416,-25,o),
(361,-85,o),
(361,-146,cs),
(361,-201,o),
(405,-225,o),
(454,-225,cs)
);
}
);
width = 838;
},
{
background = {
shapes = (
{
alignment = -1;
ref = O;
},
{
alignment = -1;
pos = (312,-8);
ref = ogonek;
}
);
};
layerId = "2B2EB811-521F-412C-AF7C-8DB707505A49";
shapes = (
{
ref = O;
},
{
closed = 1;
nodes = (
(396,-224,o),
(420,-221,o),
(435,-217,c),
(448,-132,l),
(434,-137,o),
(419,-140,o),
(404,-140,cs),
(376,-140,o),
(357,-122,o),
(357,-96,cs),
(357,-47,o),
(437,50,o),
(446,60,c),
(414,80,l),
(385,51,o),
(267,-48,o),
(267,-131,cs),
(267,-194,o),
(317,-224,o),
(382,-224,cs)
);
}
);
width = 801;
},
{
layerId = "DFD58E85-E3C3-490B-B779-464E2464870B";
shapes = (
{
ref = O;
},
{
closed = 1;
nodes = (
(400,-252,o),
(433,-248,o),
(452,-243,c),
(466,-150,l),
(454,-154,o),
(437,-157,o),
(421,-157,cs),
(391,-157,o),
(376,-142,o),
(376,-120,cs),
(376,-72,o),
(454,19,o),
(469,36,c),
(416,62,l),
(383,33,o),
(259,-66,o),
(259,-154,cs),
(259,-217,o),
(309,-252,o),
(379,-252,cs)
);
}
);
width = 810;
}
);
unicode = 490;
},
{
glyphname = Oslash;
kernLeft = O_2nd;
kernRight = O_1st;
layers = (
{
anchors = (
{
name = bottom;
pos = (409,0);
},
{
name = top;
pos = (462,700);
}
);
background = {
shapes = (
{
closed = 1;
nodes = (
(772,701,l),
(72,0,l),
(105,0,l),
(807,701,l)
);
},
{
closed = 1;
nodes = (
(657,-13,o),
(798,149,o),
(798,350,cs),
(798,551,o),
(657,713,o),
(439,713,cs),
(222,713,o),
(80,551,o),
(80,350,cs),
(80,149,o),
(222,-13,o),
(439,-13,cs)
);
},
{
closed = 1;
nodes = (
(246,10,o),
(105,156,o),
(105,350,cs),
(105,544,o),
(246,690,o),
(439,690,cs),
(632,690,o),
(773,544,o),
(773,350,cs),
(773,156,o),
(632,10,o),
(439,10,cs)
);
}
);
};
layerId = "F0CAE04A-D5A8-412F-B560-CC5EB0DB4883";
shapes = (
{
closed = 1;
nodes = (
(697,591,l),
(680,609,l),
(174,102,l),
(190,85,l)
);
},
{
closed = 1;
nodes = (
(105,0,l),
(181,76,l),
(165,93,l),
(72,0,l)
);
},
{
ref = O;
},
{
closed = 1;
nodes = (
(807,701,l),
(772,701,l),
(690,619,l),
(706,600,l)
);
}
);
width = 838;
},
{
anchors = (
{
name = bottom;
pos = (391,0);
},
{
name = top;
pos = (440,700);
}
);
background = {
shapes = (
{
closed = 1;
nodes = (
(245,12,o),
(317,-12,o),
(397,-12,cs),
(620,-12,o),
(764,150,o),
(764,350,cs),
(764,447,o),
(725,537,o),
(659,602,c),
(608,646,l),
(549,688,o),
(477,712,o),
(397,712,cs),
(174,712,o),
(30,550,o),
(30,350,cs),
(30,252,o),
(69,163,o),
(134,96,c),
(185,53,l)
);
},
{
closed = 1;
nodes = (
(190,240,o),
(173,291,o),
(173,350,cs),
(173,485,o),
(268,586,o),
(397,586,cs),
(445,586,o),
(487,572,o),
(523,548,c),
(572,500,l),
(603,460,o),
(621,408,o),
(621,350,cs),
(621,215,o),
(526,114,o),
(397,114,cs),
(349,114,o),
(306,127,o),
(270,151,c),
(221,198,l)
);
},
{
closed = 1;
nodes = (
(765,701,l),
(635,701,l),
(585,643,l),
(660,579,l)
);
},
{
closed = 1;
nodes = (
(591,500,l),
(520,568,l),
(202,199,l),
(273,131,l)
);
},
{
closed = 1;
nodes = (
(30,0,l),
(160,0,l),
(208,57,l),
(133,120,l)
);
}
);
};
layerId = "2B2EB811-521F-412C-AF7C-8DB707505A49";
shapes = (
{
closed = 1;
nodes = (
(637,500,l),
(571,568,l),
(216,199,l),
(283,131,l)
);
},
{
closed = 1;
nodes = (
(156,0,l),
(210,57,l),
(139,120,l),
(23,0,l)
);
},
{
ref = O;
},
{
closed = 1;
nodes = (
(832,701,l),
(700,701,l),
(644,643,l),
(714,579,l)
);
}
);
width = 801;
},
{
anchors = (
{
name = bottom;
pos = (402,0);
},
{
name = top;
pos = (463,700);
}
);
background = {
shapes = (
{
closed = 1;
nodes = (
(836,700,l),
(670,700,l),
(598,628,l),
(672,534,l)
);
},
{
closed = 1;
nodes = (
(623,489,l),
(553,581,l),
(199,214,l),
(260,115,l)
);
},
{
closed = 1;
nodes = (
(-16,0,l),
(148,0,l),
(227,83,l),
(157,180,l)
);
},
{
pos = (11,0);
ref = O;
}
);
};
layerId = "DFD58E85-E3C3-490B-B779-464E2464870B";
shapes = (
{
closed = 1;
nodes = (
(623,489,l),
(553,581,l),
(199,214,l),
(260,115,l)
);
},
{
closed = 1;
nodes = (
(148,0,l),
(227,83,l),
(157,180,l),
(-16,0,l)
);
},
{
pos = (11,0);
ref = O;
},
{
closed = 1;
nodes = (
(836,700,l),
(670,700,l),
(598,628,l),
(672,534,l)
);
}
);
width = 821;
}
);
metricLeft = O;
metricRight = O;
unicode = 216;
},
{
glyphname = OE;
kernLeft = O_2nd;
kernRight = E_1st;
layers = (
{
anchors = (
{
name = bottom;
pos = (528,0);
},
{
name = top;
pos = (638,700);
}
);
background = {
shapes = (
{
closed = 1;
nodes = (
(764,640,o),
(835,676,o),
(895,676,cs),
(1152,676,l),
(1156,699,l),
(891,699,ls),
(828,699,o),
(752,662,o),
(719,585,c),
(736,561,l)
);
},
{
closed = 1;
nodes = (
(661,38,o),
(709,0,o),
(785,0,cs),
(1046,0,l),
(1050,23,l),
(796,23,ls),
(722,23,o),
(677,57,o),
(663,105,c),
(642,88,l)
);
},
{
closed = 1;
nodes = (
(781,345,l),
(1060,345,l),
(1064,368,l),
(785,368,l),
(786,358,l)
);
},
{
ref = O;
}
);
};
layerId = "F0CAE04A-D5A8-412F-B560-CC5EB0DB4883";
shapes = (
{
closed = 1;
nodes = (
(506,-13,o),
(588,16,o),
(652,68,c),
(675,28,o),
(720,0,o),
(785,0,cs),
(1046,0,l),
(1050,23,l),
(796,23,ls),
(733,23,o),
(691,48,o),
(671,85,c),
(739,148,o),
(784,238,o),
(791,345,c),
(1060,345,l),
(1064,368,l),
(792,368,l),
(792,444,o),
(776,511,o),
(739,568,c),
(768,642,o),
(837,676,o),
(895,676,cs),
(1152,676,l),
(1156,699,l),
(891,699,ls),
(830,699,o),
(756,664,o),
(722,591,c),
(660,669,o),
(563,713,o),
(450,713,cs),
(220,713,o),
(76,527,o),
(76,326,cs),
(76,136,o),
(204,-13,o),
(419,-13,cs)
);
},
{
closed = 1;
nodes = (
(210,10,o),
(101,155,o),
(101,328,cs),
(101,525,o),
(246,690,o),
(450,690,cs),
(626,690,o),
(767,569,o),
(767,372,cs),
(767,162,o),
(609,10,o),
(418,10,cs)
);
}
);
width = 1136;
},
{
anchors = (
{
name = bottom;
pos = (507,0);
},
{
name = top;
pos = (617,700);
}
);
background = {
shapes = (
{
closed = 1;
nodes = (
(1013,0,l),
(1033,126,l),
(782,126,ls),
(736,126,o),
(702,162,o),
(702,205,cs),
(702,255,o),
(744,293,o),
(790,293,cs),
(1025,293,l),
(1045,419,l),
(763,419,ls),
(721,419,o),
(747,452,o),
(747,494,cs),
(747,540,o),
(781,574,o),
(836,574,cs),
(1103,574,l),
(1123,700,l),
(829,700,ls),
(727,700,o),
(671,647,o),
(638,576,c),
(665,532,o),
(707,404,o),
(662,370,c),
(684,336,o),
(677,162,o),
(616,80,c),
(646,33,o),
(683,0,o),
(757,0,cs)
);
},
{
closed = 1;
nodes = (
(597,-12,o),
(780,126,o),
(784,363,cs),
(788,587,o),
(620,713,o),
(439,713,cs),
(235,713,o),
(52,575,o),
(48,338,cs),
(44,114,o),
(212,-12,o),
(393,-12,cs)
);
},
{
closed = 1;
nodes = (
(290,116,o),
(190,183,o),
(190,333,cs),
(191,485,o),
(292,585,o),
(429,585,cs),
(542,585,o),
(642,518,o),
(642,368,cs),
(642,216,o),
(540,116,o),
(403,116,cs)
);
}
);
};
layerId = "2B2EB811-521F-412C-AF7C-8DB707505A49";
shapes = (
{
closed = 1;
nodes = (
(489,-12,o),
(564,11,o),
(630,60,c),
(658,24,o),
(694,0,o),
(757,0,cs),
(1013,0,l),
(1033,126,l),
(782,126,ls),
(757,126,o),
(736,137,o),
(721,153,c),
(748,193,o),
(767,240,o),
(777,293,c),
(1025,293,l),
(1045,419,l),
(781,419,l),
(777,457,o),
(767,492,o),
(752,524,c),
(764,554,o),
(794,574,o),
(836,574,cs),
(1103,574,l),
(1123,700,l),
(829,700,ls),
(755,700,o),
(706,672,o),
(671,630,c),
(608,684,o),
(525,713,o),
(439,713,cs),
(232,713,o),
(48,572,o),
(48,330,cs),
(48,111,o),
(214,-12,o),
(396,-12,cs)
);
},
{
closed = 1;
nodes = (
(259,116,o),
(189,224,o),
(189,336,cs),
(189,458,o),
(271,585,o),
(429,585,cs),
(573,585,o),
(643,477,o),
(643,365,cs),
(643,243,o),
(561,116,o),
(403,116,cs)
);
}
);
width = 1093;
},
{
anchors = (
{
name = bottom;
pos = (517,0);
},
{
name = top;
pos = (628,700);
}
);
background = {
shapes = (
{
closed = 1;
nodes = (
(627,-13,o),
(798,153,o),
(798,376,cs),
(798,566,o),
(658,713,o),
(444,713,cs),
(218,713,o),
(40,547,o),
(40,323,cs),
(40,135,o),
(185,-13,o),
(394,-13,cs)
);
},
{
closed = 1;
nodes = (
(507,162,o),
(405,162,cs),
(329,162,o),
(258,221,o),
(257,331,cs),
(258,440,o),
(331,538,o),
(433,538,cs),
(509,538,o),
(580,479,o),
(581,369,cs),
(580,259,o)
);
}
);
};
layerId = "DFD58E85-E3C3-490B-B779-464E2464870B";
shapes = (
{
closed = 1;
nodes = (
(480,-12,o),
(555,9,o),
(617,46,c),
(643,20,o),
(679,0,o),
(722,0,cs),
(1024,0,l),
(1051,169,l),
(768,169,ls),
(759,169,o),
(751,172,o),
(746,177,c),
(763,205,o),
(776,237,o),
(785,270,c),
(1057,270,l),
(1083,434,l),
(793,434,l),
(789,459,o),
(777,505,o),
(767,524,c),
(774,530,o),
(786,534,o),
(796,534,cs),
(1108,532,l),
(1134,700,l),
(809,700,ls),
(752,700,o),
(713,686,o),
(670,642,c),
(611,686,o),
(533,712,o),
(442,712,cs),
(219,712,o),
(40,549,o),
(40,324,cs),
(40,136,o),
(185,-12,o),
(398,-12,cs)
);
},
{
closed = 1;
nodes = (
(325,162,o),
(257,222,o),
(257,332,cs),
(257,441,o),
(328,538,o),
(433,538,cs),
(513,538,o),
(581,478,o),
(581,368,cs),
(581,258,o),
(510,162,o),
(405,162,cs)
);
}
);
width = 1115;
}
);
unicode = 338;
},
{
glyphname = P;
kernLeft = H_2nd;
kernRight = P_1st;
layers = (
{
anchors = (
{
name = bottom;
pos = (293,0);
},
{
name = top;
pos = (403,700);
}
);
background = {
shapes = (
{
closed = 1;
nodes = (
(55,0,l),
(97,270,l),
(364,270,ls),
(501,270,o),
(607,360,o),
(626,484,cs),
(646,613,o),
(560,700,o),
(438,700,cs),
(140,700,l),
(30,0,l)
);
},
{
closed = 1;
nodes = (
(161,677,l),
(430,677,ls),
(538,677,o),
(620,606,o),
(601,484,cs),
(582,363,o),
(480,293,o),
(366,293,cs),
(101,293,l)
);
}
);
};
layerId = "F0CAE04A-D5A8-412F-B560-CC5EB0DB4883";
shapes = (
{
closed = 1;
nodes = (
(71,1,l),
(113,271,l),
(377,271,ls),
(533,271,o),
(642,374,o),
(642,511,cs),
(642,620,o),
(561,700,o),
(451,700,cs),
(156,701,l),
(46,1,l)
);
},
{
closed = 1;
nodes = (
(177,678,l),
(443,678,ls),
(541,678,o),
(617,612,o),
(617,510,cs),
(617,391,o),
(527,294,o),
(379,294,cs),
(117,294,l)
);
}
);
width = 665;
},
{
anchors = (
{
name = bottom;
pos = (279,0);
},
{
name = top;
pos = (389,700);
}
);
layerId = "2B2EB811-521F-412C-AF7C-8DB707505A49";
shapes = (
{
closed = 1;
nodes = (
(173,0,l),
(205,202,l),
(355,202,ls),
(548,202,o),
(649,346,o),
(649,479,cs),
(649,593,o),
(575,700,o),
(421,700,cs),
(140,700,l),
(30,0,l)
);
},
{
closed = 1;
nodes = (
(263,574,l),
(396,574,ls),
(469,574,o),
(504,522,o),
(504,466,cs),
(504,400,o),
(455,328,o),
(358,328,cs),
(225,328,l)
);
}
);
width = 637;
},
{
anchors = (
{
name = bottom;
pos = (288,0);
},
{
name = top;
pos = (399,700);
}
);
layerId = "DFD58E85-E3C3-490B-B779-464E2464870B";
shapes = (
{
closed = 1;
nodes = (
(220,0,l),
(249,185,l),
(365,185,ls),
(522,185,o),
(662,301,o),
(662,467,cs),
(662,606,o),
(552,700,o),
(410,700,cs),
(114,700,l),
(4,0,l)
);
},
{
closed = 1;
nodes = (
(303,531,l),
(365,531,ls),
(419,531,o),
(442,493,o),
(442,453,cs),
(442,405,o),
(410,354,o),
(346,354,cs),
(276,354,l)
);
}
);
width = 657;
}
);
unicode = 80;
},
{
glyphname = Thorn;
kernLeft = H_2nd;
kernRight = P_1st;
layers = (
{
anchors = (
{
name = bottom;
pos = (293,0);
},
{
name = top;
pos = (403,700);
}
);
background = {
shapes = (
{
closed = 1;
nodes = (
(110,0,l),
(110,135,l),
(377,135,ls),
(514,135,o),
(605,225,o),
(605,349,cs),
(605,478,o),
(505,565,o),
(383,565,cs),
(85,565,l),
(85,0,l)
);
},
{
closed = 1;
nodes = (
(110,542,l),
(379,542,ls),
(487,542,o),
(580,471,o),
(580,349,cs),
(580,228,o),
(489,158,o),
(375,158,cs),
(110,158,l)
);
},
{
closed = 1;
nodes = (
(85,556,l),
(110,556,l),
(110,700,l),
(85,700,l)
);
}
);
};
layerId = "F0CAE04A-D5A8-412F-B560-CC5EB0DB4883";
shapes = (
{
closed = 1;
nodes = (
(70,0,l),
(91,135,l),
(369,135,ls),
(515,135,o),
(621,237,o),
(621,373,cs),
(621,489,o),
(535,565,o),
(421,565,cs),
(159,565,l),
(180,700,l),
(155,700,l),
(45,0,l)
);
},
{
closed = 1;
nodes = (
(155,542,l),
(414,542,ls),
(515,542,o),
(596,480,o),
(596,373,cs),
(596,247,o),
(500,158,o),
(370,158,cs),
(95,158,l)
);
}
);
width = 665;
},
{
anchors = (
{
name = bottom;
pos = (279,0);
},
{
name = top;
pos = (389,700);
}
);
background = {
shapes = (
{
closed = 1;
nodes = (
(249,490,l),
(264,584,l),
(283,700,l),
(140,700,l),
(30,0,l),
(173,0,l),
(191,118,l),
(207,212,l)
);
},
{
closed = 1;
nodes = (
(179,42,l),
(189,103,l),
(340,103,ls),
(533,103,o),
(634,247,o),
(634,380,cs),
(634,494,o),
(560,601,o),
(406,601,cs),
(125,601,l),
(36,42,l)
);
},
{
closed = 1;
nodes = (
(248,475,l),
(381,475,ls),
(454,475,o),
(489,423,o),
(489,367,cs),
(489,301,o),
(440,229,o),
(343,229,cs),
(210,229,l)
);
}
);
};
layerId = "2B2EB811-521F-412C-AF7C-8DB707505A49";
shapes = (
{
closed = 1;
nodes = (
(173,0,l),
(189,103,l),
(340,103,ls),
(533,103,o),
(634,247,o),
(634,380,cs),
(634,494,o),
(560,601,o),
(406,601,cs),
(267,601,l),
(283,700,l),
(140,700,l),
(30,0,l)
);
},
{
closed = 1;
nodes = (
(248,475,l),
(381,475,ls),
(454,475,o),
(489,423,o),
(489,367,cs),
(489,301,o),
(440,229,o),
(343,229,cs),
(210,229,l)
);
}
);
width = 637;
},
{
anchors = (
{
name = bottom;
pos = (288,0);
},
{
name = top;
pos = (399,700);
}
);
layerId = "DFD58E85-E3C3-490B-B779-464E2464870B";
shapes = (
{
closed = 1;
nodes = (
(220,0,l),
(235,96,l),
(347,96,ls),
(507,96,o),
(649,213,o),
(649,379,cs),
(649,514,o),
(542,606,o),
(401,606,cs),
(315,606,l),
(330,700,l),
(114,700,l),
(4,0,l)
);
},
{
closed = 1;
nodes = (
(289,442,l),
(343,442,ls),
(403,442,o),
(431,403,o),
(431,361,cs),
(431,312,o),
(394,260,o),
(324,260,cs),
(261,260,l)
);
}
);
width = 657;
}
);
unicode = 222;
},
{
glyphname = Q;
kernLeft = O_2nd;
kernRight = O_1st;
layers = (
{
anchors = (
{
name = bottom;
pos = (382,0);
},
{
name = top;
pos = (492,700);
}
);
background = {
shapes = (
{
closed = 1;
nodes = (
(726,-216,o),
(785,-173,o),
(785,-104,cs),
(785,-26,o),
(702,19,o),
(609,38,c),
(718,103,o),
(792,223,o),
(792,374,cs),
(792,585,o),
(643,713,o),
(450,713,cs),
(220,713,o),
(76,527,o),
(76,326,cs),
(76,140,o),
(199,-7,o),
(405,-13,c),
(427,-137,o),
(524,-216,o),
(647,-216,cs)
);
},
{
closed = 1;
nodes = (
(506,-193,o),
(448,-91,o),
(430,-13,c),
(482,-11,o),
(531,0,o),
(575,21,c),
(655,10,o),
(760,-27,o),
(760,-104,cs),
(760,-159,o),
(712,-193,o),
(645,-193,cs)
);
},
{
closed = 1;
nodes = (
(210,10,o),
(101,155,o),
(101,328,cs),
(101,525,o),
(246,690,o),
(450,690,cs),
(626,690,o),
(767,569,o),
(767,372,cs),
(767,162,o),
(609,10,o),
(418,10,cs)
);
}
);
};
layerId = "F0CAE04A-D5A8-412F-B560-CC5EB0DB4883";
shapes = (
{
closed = 1;
nodes = (
(725,-216,o),
(785,-173,o),
(785,-104,cs),
(785,-26,o),
(702,19,o),
(609,38,c),
(718,103,o),
(792,223,o),
(792,374,cs),
(792,585,o),
(643,713,o),
(450,713,cs),
(220,713,o),
(76,527,o),
(76,326,cs),
(76,140,o),
(199,-7,o),
(405,-13,c),
(432,-141,o),
(523,-216,o),
(645,-216,cs)
);
},
{
closed = 1;
nodes = (
(508,-193,o),
(448,-91,o),
(430,-13,c),
(482,-11,o),
(531,0,o),
(575,21,c),
(655,10,o),
(760,-27,o),
(760,-104,cs),
(760,-159,o),
(712,-193,o),
(645,-193,cs)
);
},
{
closed = 1;
nodes = (
(210,10,o),
(101,155,o),
(101,328,cs),
(101,525,o),
(246,690,o),
(450,690,cs),
(626,690,o),
(767,569,o),
(767,372,cs),
(767,162,o),
(609,10,o),
(418,10,cs)
);
}
);
width = 843;
},
{
anchors = (
{
name = bottom;
pos = (357,0);
},
{
name = top;
pos = (467,700);
}
);
background = {
shapes = (
{
closed = 1;
nodes = (
(727,129,o),
(784,232,o),
(784,368,cs),
(784,589,o),
(618,713,o),
(439,713,cs),
(232,713,o),
(48,571,o),
(48,327,cs),
(48,130,o),
(179,10,o),
(341,-16,c),
(642,63,l)
);
},
{
closed = 1;
nodes = (
(290,110,o),
(190,178,o),
(190,330,cs),
(191,483,o),
(292,584,o),
(429,584,cs),
(542,584,o),
(642,517,o),
(642,365,cs),
(642,211,o),
(540,110,o),
(403,110,cs)
);
},
{
closed = 1;
nodes = (
(351,-129,o),
(466,-210,o),
(595,-216,cs),
(697,-222,o),
(781,-175,o),
(790,-93,cs),
(800,-25,o),
(744,40,o),
(643,76,c),
(539,71,o),
(429,51,o),
(339,-5,c)
);
},
{
closed = 1;
nodes = (
(490,-100,o),
(472,-11,o),
(470,-2,c),
(481,2,o),
(506,2,o),
(530,2,cs),
(590,-1,o),
(657,-32,o),
(652,-71,cs),
(649,-89,o),
(632,-107,o),
(591,-106,cs)
);
}
);
};
layerId = "2B2EB811-521F-412C-AF7C-8DB707505A49";
shapes = (
{
closed = 1;
nodes = (
(712,-216,o),
(788,-167,o),
(788,-85,cs),
(788,-20,o),
(740,38,o),
(653,72,c),
(732,138,o),
(784,238,o),
(784,368,cs),
(784,589,o),
(618,713,o),
(439,713,cs),
(232,713,o),
(48,571,o),
(48,327,cs),
(48,128,o),
(182,7,o),
(346,-17,c),
(374,-153,o),
(482,-216,o),
(611,-216,cs)
);
},
{
closed = 1;
nodes = (
(490,-100,o),
(472,-11,o),
(470,-2,c),
(481,2,o),
(506,2,o),
(530,2,cs),
(588,-1,o),
(652,-30,o),
(652,-67,cs),
(652,-86,o),
(635,-107,o),
(591,-106,cs)
);
},
{
closed = 1;
nodes = (
(290,110,o),
(190,178,o),
(190,330,cs),
(191,483,o),
(292,584,o),
(429,584,cs),
(542,584,o),
(642,517,o),
(642,365,cs),
(642,211,o),
(540,110,o),
(403,110,cs)
);
}
);
width = 794;
},
{
anchors = (
{
name = bottom;
pos = (363,0);
},
{
name = top;
pos = (474,700);
}
);
background = {
shapes = (
{
closed = 1;
nodes = (
(660,-216,o),
(754,-156,o),
(754,-37,cs),
(754,22,o),
(717,69,o),
(665,97,c),
(752,175,o),
(799,278,o),
(799,393,cs),
(799,581,o),
(667,713,o),
(449,713,cs),
(214,713,o),
(39,539,o),
(39,305,cs),
(39,141,o),
(142,24,o),
(318,-7,c),
(268,53,l),
(258,-117,o),
(391,-216,o),
(546,-216,cs)
);
},
{
closed = 1;
nodes = (
(489,-81,o),
(449,-51,o),
(441,4,c),
(448,6,o),
(466,8,o),
(480,8,cs),
(548,8,o),
(595,-18,o),
(595,-46,cs),
(595,-64,o),
(582,-81,o),
(547,-81,cs)
);
},
{
closed = 1;
nodes = (
(310,158,o),
(255,220,o),
(255,321,cs),
(255,440,o),
(323,548,o),
(430,548,cs),
(519,548,o),
(578,481,o),
(578,376,cs),
(578,254,o),
(505,147,o),
(393,155,cs)
);
}
);
};
layerId = "DFD58E85-E3C3-490B-B779-464E2464870B";
shapes = (
{
closed = 1;
nodes = (
(660,-216,o),
(754,-156,o),
(754,-37,cs),
(754,22,o),
(717,69,o),
(665,97,c),
(752,175,o),
(799,278,o),
(799,393,cs),
(799,581,o),
(667,713,o),
(449,713,cs),
(214,713,o),
(39,539,o),
(39,305,cs),
(39,155,o),
(125,44,o),
(275,3,c),
(293,-136,o),
(410,-216,o),
(546,-216,cs)
);
},
{
closed = 1;
nodes = (
(489,-81,o),
(449,-51,o),
(441,4,c),
(448,6,o),
(466,8,o),
(480,8,cs),
(548,8,o),
(595,-18,o),
(595,-46,cs),
(595,-64,o),
(582,-81,o),
(547,-81,cs)
);
},
{
closed = 1;
nodes = (
(310,158,o),
(255,220,o),
(255,321,cs),
(255,440,o),
(323,548,o),
(430,548,cs),
(519,548,o),
(578,481,o),
(578,376,cs),
(578,254,o),
(505,147,o),
(393,155,cs)
);
}
);
width = 807;
}
);
unicode = 81;
},
{
glyphname = R;
kernLeft = H_2nd;
kernRight = P_1st;
layers = (
{
anchors = (
{
name = bottom;
pos = (280,0);
},
{
name = top;
pos = (381,700);
}
);
background = {
shapes = (
{
closed = 1;
nodes = (
(648,24,l),
(624,24,ls),
(583,24,o),
(567,41,o),
(548,82,cs),
(454,302,l),
(430,295,l),
(525,71,l),
(547,24,o),
(574,0,o),
(621,0,cs),
(648,0,l)
);
},
{
closed = 1;
nodes = (
(85,700,l),
(85,0,l),
(110,0,l),
(110,700,l)
);
},
{
closed = 1;
nodes = (
(514,281,o),
(605,369,o),
(605,490,cs),
(605,616,o),
(505,700,o),
(383,700,cs),
(97,700,l),
(97,677,l),
(379,677,ls),
(487,677,o),
(580,608,o),
(580,490,cs),
(580,372,o),
(489,304,o),
(375,304,cs),
(100,304,l),
(100,281,l),
(377,281,ls)
);
}
);
};
layerId = "F0CAE04A-D5A8-412F-B560-CC5EB0DB4883";
shapes = (
{
closed = 1;
nodes = (
(70,0,l),
(114,281,l),
(381,281,ls),
(401,281,o),
(420,283,o),
(442,286,c),
(496,71,ls),
(508,23,o),
(534,0,o),
(581,0,cs),
(608,0,l),
(612,24,l),
(588,24,ls),
(547,24,o),
(532,40,o),
(521,82,cs),
(468,290,l),
(600,327,o),
(645,418,o),
(645,511,cs),
(645,617,o),
(561,700,o),
(453,700,cs),
(155,700,l),
(45,0,l)
);
},
{
closed = 1;
nodes = (
(176,677,l),
(445,677,ls),
(540,677,o),
(620,607,o),
(620,510,cs),
(620,392,o),
(536,304,o),
(383,304,cs),
(118,304,l)
);
}
);
width = 670;
},
{
anchors = (
{
name = bottom;
pos = (298,0);
},
{
name = top;
pos = (401,700);
}
);
background = {
shapes = (
{
closed = 1;
nodes = (
(160,0,l),
(194,218,l),
(358,218,ls),
(551,218,o),
(652,352,o),
(652,485,cs),
(652,599,o),
(576,700,o),
(422,700,cs),
(125,700,l),
(15,0,l)
);
},
{
closed = 1;
nodes = (
(250,574,l),
(397,574,ls),
(470,574,o),
(507,528,o),
(507,472,cs),
(507,406,o),
(458,344,o),
(361,344,cs),
(214,344,l)
);
},
{
closed = 1;
nodes = (
(404,76,ls),
(422,31,o),
(452,0,o),
(523,0,cs),
(613,0,l),
(633,126,l),
(565,126,ls),
(551,126,o),
(541,135,o),
(536,146,cs),
(486,266,l),
(341,233,l)
);
}
);
};
layerId = "2B2EB811-521F-412C-AF7C-8DB707505A49";
shapes = (
{
closed = 1;
nodes = (
(175,0,l),
(209,218,l),
(341,218,ls),
(348,218,o),
(355,218,o),
(362,218,c),
(419,76,ls),
(437,31,o),
(467,0,o),
(538,0,cs),
(628,0,l),
(648,126,l),
(580,126,ls),
(566,126,o),
(556,135,o),
(551,146,cs),
(510,245,l),
(613,291,o),
(667,388,o),
(667,485,cs),
(667,599,o),
(591,700,o),
(437,700,cs),
(140,700,l),
(30,0,l)
);
},
{
closed = 1;
nodes = (
(265,574,l),
(412,574,ls),
(485,574,o),
(522,528,o),
(522,472,cs),
(522,406,o),
(473,344,o),
(376,344,cs),
(229,344,l)
);
}
);
width = 683;
},
{
anchors = (
{
name = bottom;
pos = (322,0);
},
{
name = top;
pos = (397,700);
}
);
background = {
shapes = (
{
closed = 1;
nodes = (
(220,0,l),
(251,196,l),
(308,196,ls),
(313,196,o),
(319,196,o),
(324,196,c),
(373,83,ls),
(394,34,o),
(447,0,o),
(518,0,cs),
(630,0,l),
(656,165,l),
(606,165,ls),
(584,165,o),
(576,172,o),
(570,185,cs),
(541,246,l),
(619,292,o),
(669,367,o),
(676,449,cs),
(689,597,o),
(574,700,o),
(423,700,cs),
(114,700,l),
(4,0,l)
);
},
{
closed = 1;
nodes = (
(303,531,l),
(383,531,ls),
(434,531,o),
(468,498,o),
(462,447,cs),
(456,394,o),
(414,361,o),
(363,361,cs),
(277,361,l)
);
}
);
};
layerId = "DFD58E85-E3C3-490B-B779-464E2464870B";
shapes = (
{
closed = 1;
nodes = (
(220,0,l),
(251,196,l),
(308,196,ls),
(313,196,o),
(323,196,o),
(328,196,c),
(367,107,ls),
(399,34,o),
(451,0,o),
(522,0,cs),
(630,0,l),
(656,165,l),
(591,165,ls),
(569,165,o),
(561,174,o),
(555,185,cs),
(526,237,l),
(628,297,o),
(677,381,o),
(677,472,cs),
(677,607,o),
(566,700,o),
(423,700,cs),
(114,700,l),
(4,0,l)
);
},
{
closed = 1;
nodes = (
(303,531,l),
(383,531,ls),
(430,531,o),
(463,503,o),
(463,458,cs),
(463,399,o),
(417,361,o),
(363,361,cs),
(277,361,l)
);
}
);
width = 685;
}
);
unicode = 82;
},
{
glyphname = S;
kernLeft = S_2nd;
kernRight = S_1st;
layers = (
{
anchors = (
{
name = bottom;
pos = (265,0);
},
{
name = top;
pos = (385,700);
}
);
background = {
shapes = (
{
closed = 1;
nodes = (
(357,0,ls),
(490,0,o),
(563,105,o),
(563,203,cs),
(563,288,o),
(508,368,o),
(389,368,cs),
(258,368,ls),
(165,368,o),
(123,436,o),
(123,503,cs),
(123,598,o),
(203,677,o),
(312,677,cs),
(578,677,l),
(582,700,l),
(316,700,ls),
(190,700,o),
(97,613,o),
(97,500,cs),
(97,422,o),
(146,345,o),
(254,345,cs),
(392,345,ls),
(492,345,o),
(538,276,o),
(538,202,cs),
(538,116,o),
(475,23,o),
(360,23,cs),
(65,23,l),
(61,0,l)
);
}
);
};
layerId = "F0CAE04A-D5A8-412F-B560-CC5EB0DB4883";
shapes = (
{
closed = 1;
nodes = (
(345,0,ls),
(481,0,o),
(563,99,o),
(563,198,cs),
(563,281,o),
(512,368,o),
(387,368,cs),
(258,368,ls),
(167,368,o),
(122,437,o),
(122,505,cs),
(122,590,o),
(185,677,o),
(309,677,cs),
(567,677,l),
(572,700,l),
(307,700,ls),
(168,700,o),
(97,602,o),
(97,506,cs),
(97,426,o),
(151,345,o),
(260,345,cs),
(388,345,ls),
(496,345,o),
(537,268,o),
(537,198,cs),
(537,111,o),
(462,23,o),
(345,23,cs),
(53,23,l),
(48,0,l)
);
}
);
width = 629;
},
{
anchors = (
{
name = bottom;
pos = (263,0);
},
{
name = top;
pos = (385,700);
}
);
layerId = "2B2EB811-521F-412C-AF7C-8DB707505A49";
shapes = (
{
closed = 1;
nodes = (
(334,0,ls),
(480,0,o),
(588,113,o),
(588,236,cs),
(588,352,o),
(508,423,o),
(388,423,cs),
(296,423,ls),
(258,423,o),
(224,447,o),
(224,496,cs),
(224,541,o),
(260,574,o),
(316,574,cs),
(601,574,l),
(623,700,l),
(318,700,ls),
(175,700,o),
(78,609,o),
(78,478,cs),
(78,362,o),
(156,289,o),
(274,289,cs),
(361,289,ls),
(411,289,o),
(442,263,o),
(442,219,cs),
(442,164,o),
(405,126,o),
(336,126,cs),
(46,126,l),
(24,0,l)
);
}
);
width = 629;
},
{
anchors = (
{
name = bottom;
pos = (272,0);
},
{
name = top;
pos = (391,700);
}
);
background = {
shapes = (
{
closed = 1;
nodes = (
(334,0,ls),
(458,0,o),
(572,84,o),
(595,231,cs),
(615,358,o),
(535,442,o),
(393,442,cs),
(296,442,ls),
(267,442,o),
(254,463,o),
(258,487,cs),
(261,510,o),
(281,531,o),
(310,531,cs),
(600,531,l),
(627,700,l),
(308,700,ls),
(184,700,o),
(70,630,o),
(50,499,cs),
(29,365,o),
(120,270,o),
(250,270,cs),
(340,270,ls),
(373,270,o),
(390,246,o),
(385,219,cs),
(381,193,o),
(358,169,o),
(325,169,cs),
(28,169,l),
(1,0,l)
);
}
);
};
layerId = "DFD58E85-E3C3-490B-B779-464E2464870B";
shapes = (
{
closed = 1;
nodes = (
(349,0,ls),
(519,0,o),
(612,131,o),
(612,250,cs),
(612,350,o),
(547,442,o),
(408,442,cs),
(315,442,ls),
(286,442,o),
(273,462,o),
(273,483,cs),
(273,506,o),
(290,531,o),
(322,531,cs),
(615,531,l),
(642,700,l),
(323,700,ls),
(177,700,o),
(62,604,o),
(62,461,cs),
(62,347,o),
(148,270,o),
(265,270,cs),
(352,270,ls),
(385,270,o),
(400,248,o),
(400,224,cs),
(400,198,o),
(380,169,o),
(343,169,cs),
(43,169,l),
(16,0,l)
);
}
);
width = 642;
}
);
unicode = 83;
},
{
glyphname = Germandbls;
kernLeft = H_2nd;
kernRight = S_1st;
layers = (
{
anchors = (
{
name = bottom;
pos = (307,0);
},
{
name = top;
pos = (417,700);
}
);
background = {
shapes = (
{
closed = 1;
nodes = (
(72,9,l),
(142,454,ls),
(164,594,o),
(264,690,o),
(403,690,cs),
(504,690,o),
(583,635,o),
(607,538,c),
(411,380,l),
(408,365,l),
(427,364,ls),
(566,353,o),
(616,285,o),
(616,210,cs),
(616,113,o),
(541,23,o),
(430,23,cs),
(305,22,l),
(301,-1,l),
(429,0,ls),
(555,0,o),
(641,102,o),
(641,212,cs),
(641,306,o),
(570,372,o),
(445,383,c),
(633,531,l),
(618,633,o),
(534,713,o),
(407,713,cs),
(257,713,o),
(143,616,o),
(117,454,cs),
(47,10,l)
);
}
);
};
layerId = "F0CAE04A-D5A8-412F-B560-CC5EB0DB4883";
shapes = (
{
closed = 1;
nodes = (
(71,0,l),
(142,454,ls),
(164,594,o),
(264,690,o),
(403,690,cs),
(504,690,o),
(583,635,o),
(607,538,c),
(406,380,l),
(403,365,l),
(422,364,ls),
(561,357,o),
(613,285,o),
(613,202,cs),
(613,113,o),
(539,24,o),
(430,23,cs),
(305,22,l),
(301,0,l),
(429,0,ls),
(553,0,o),
(638,102,o),
(638,204,cs),
(638,306,o),
(565,374,o),
(440,383,c),
(633,531,l),
(618,633,o),
(534,713,o),
(407,713,cs),
(257,713,o),
(143,616,o),
(117,454,cs),
(45,0,l)
);
}
);
width = 693;
},
{
anchors = (
{
name = bottom;
pos = (311,0);
},
{
name = top;
pos = (421,700);
}
);
background = {
shapes = (
{
closed = 1;
nodes = (
(208,0,l),
(208,443,ls),
(208,522,o),
(260,586,o),
(342,586,cs),
(395,586,o),
(437,559,o),
(467,505,c),
(347,376,l),
(347,309,l),
(400,309,ls),
(487,309,o),
(519,268,o),
(519,218,cs),
(519,167,o),
(481,126,o),
(434,126,cs),
(319,125,l),
(319,0,l),
(475,0,ls),
(578,0,o),
(662,86,o),
(662,202,cs),
(662,288,o),
(614,365,o),
(495,397,c),
(614,504,l),
(591,613,o),
(497,712,o),
(343,712,cs),
(176,712,o),
(65,602,o),
(65,434,cs),
(65,0,l)
);
},
{
closed = 1;
nodes = (
(152,0,l),
(222,443,ls),
(234,522,o),
(296,586,o),
(378,586,cs),
(431,586,o),
(469,559,o),
(490,505,c),
(350,376,l),
(340,309,l),
(393,309,ls),
(480,309,o),
(505,268,o),
(497,218,cs),
(489,167,o),
(445,126,o),
(398,126,cs),
(283,125,l),
(263,0,l),
(419,0,ls),
(522,0,o),
(620,86,o),
(638,202,cs),
(651,288,o),
(615,365,o),
(501,397,c),
(637,504,l),
(631,613,o),
(553,712,o),
(399,712,cs),
(232,712,o),
(104,602,o),
(77,434,cs),
(9,0,l)
);
}
);
};
layerId = "2B2EB811-521F-412C-AF7C-8DB707505A49";
shapes = (
{
closed = 1;
nodes = (
(168,0,l),
(241,460,ls),
(253,536,o),
(307,586,o),
(383,586,cs),
(447,586,o),
(490,552,o),
(505,508,c),
(361,376,l),
(351,309,l),
(404,309,ls),
(481,309,o),
(509,262,o),
(509,220,cs),
(509,158,o),
(465,126,o),
(409,126,cs),
(294,125,l),
(274,0,l),
(430,0,ls),
(558,0,o),
(652,93,o),
(652,212,cs),
(652,296,o),
(598,373,o),
(505,394,c),
(641,504,l),
(633,612,o),
(553,712,o),
(384,712,cs),
(248,712,o),
(127,642,o),
(101,477,cs),
(25,0,l)
);
}
);
width = 702;
},
{
anchors = (
{
name = bottom;
pos = (309,0);
},
{
name = top;
pos = (420,700);
}
);
background = {
shapes = (
{
closed = 1;
nodes = (
(192,0,l),
(261,439,ls),
(271,503,o),
(312,546,o),
(371,546,cs),
(406,546,o),
(430,528,o),
(441,492,c),
(326,381,l),
(312,296,l),
(380,296,ls),
(426,296,o),
(445,271,o),
(445,241,cs),
(445,202,o),
(416,163,o),
(369,163,cs),
(285,163,l),
(259,0,l),
(409,0,l),
(545,0,o),
(651,101,o),
(651,233,cs),
(651,311,o),
(603,375,o),
(539,401,c),
(648,471,l),
(653,621,o),
(536,712,o),
(382,712,cs),
(204,712,o),
(82,605,o),
(53,420,cs),
(-13,0,l)
);
}
);
};
layerId = "DFD58E85-E3C3-490B-B779-464E2464870B";
shapes = (
{
closed = 1;
nodes = (
(192,0,l),
(262,445,ls),
(273,512,o),
(316,546,o),
(363,546,cs),
(400,546,o),
(430,528,o),
(441,492,c),
(326,381,l),
(312,296,l),
(377,296,ls),
(423,296,o),
(445,265,o),
(445,233,cs),
(445,199,o),
(420,163,o),
(372,163,cs),
(285,163,l),
(259,0,l),
(409,0,l),
(545,0,o),
(651,101,o),
(651,233,cs),
(651,311,o),
(603,375,o),
(539,401,c),
(648,471,l),
(652,596,o),
(555,712,o),
(368,712,cs),
(206,712,o),
(85,620,o),
(60,460,cs),
(-13,0,l)
);
}
);
width = 700;
}
);
unicode = 7838;
},
{
glyphname = T;
kernLeft = T_2nd;
kernRight = T_1st;
layers = (
{
anchors = (
{
name = bottom;
pos = (318,0);
},
{
name = center;
pos = (303,350);
},
{
name = top;
pos = (358,700);
}
);
background = {
shapes = (
{
closed = 1;
nodes = (
(428,0,l),
(432,23,l),
(390,23,ls),
(307,23,o),
(270,57,o),
(284,149,cs),
(367,677,l),
(607,677,l),
(611,700,l),
(106,700,l),
(102,677,l),
(342,677,l),
(259,147,ls),
(243,46,o),
(286,0,o),
(394,0,cs)
);
}
);
};
layerId = "F0CAE04A-D5A8-412F-B560-CC5EB0DB4883";
shapes = (
{
closed = 1;
nodes = (
(428,0,l),
(432,23,l),
(390,23,ls),
(318,23,o),
(281,48,o),
(281,114,cs),
(281,129,o),
(284,149,o),
(286,162,cs),
(367,677,l),
(607,677,l),
(611,700,l),
(106,700,l),
(102,677,l),
(342,677,l),
(261,160,ls),
(259,144,o),
(256,123,o),
(256,109,cs),
(256,34,o),
(301,0,o),
(394,0,cs)
);
}
);
width = 575;
},
{
anchors = (
{
name = bottom;
pos = (292,0);
},
{
name = center;
pos = (297,350);
},
{
name = top;
pos = (352,700);
}
);
background = {
shapes = (
{
closed = 1;
nodes = (
(429,0,l),
(449,126,l),
(399,126,ls),
(353,126,o),
(338,156,o),
(344,192,cs),
(404,574,l),
(599,574,l),
(619,700,l),
(86,700,l),
(66,574,l),
(261,574,l),
(204,209,ls),
(186,94,o),
(234,0,o),
(379,0,cs)
);
}
);
};
layerId = "2B2EB811-521F-412C-AF7C-8DB707505A49";
shapes = (
{
closed = 1;
nodes = (
(429,0,l),
(449,126,l),
(399,126,ls),
(359,126,o),
(343,148,o),
(343,177,cs),
(343,185,o),
(345,198,o),
(347,211,cs),
(404,574,l),
(599,574,l),
(619,700,l),
(86,700,l),
(66,574,l),
(261,574,l),
(206,221,ls),
(203,204,o),
(200,183,o),
(200,165,cs),
(200,71,o),
(253,0,o),
(379,0,cs)
);
}
);
width = 564;
},
{
anchors = (
{
name = bottom;
pos = (318,0);
},
{
name = center;
pos = (316,350);
},
{
name = top;
pos = (372,700);
}
);
background = {
shapes = (
{
closed = 1;
nodes = (
(477,0,l),
(504,169,l),
(437,169,ls),
(414,169,o),
(401,183,o),
(405,208,cs),
(455,531,l),
(632,531,l),
(659,700,l),
(85,700,l),
(58,531,l),
(239,531,l),
(190,219,ls),
(169,85,o),
(246,0,o),
(387,0,cs)
);
}
);
};
layerId = "DFD58E85-E3C3-490B-B779-464E2464870B";
shapes = (
{
closed = 1;
nodes = (
(477,0,l),
(504,169,l),
(437,169,ls),
(417,169,o),
(404,178,o),
(404,197,cs),
(404,206,o),
(406,217,o),
(408,228,cs),
(455,531,l),
(632,531,l),
(659,700,l),
(85,700,l),
(58,531,l),
(239,531,l),
(192,232,ls),
(189,213,o),
(187,194,o),
(187,177,cs),
(187,67,o),
(261,0,o),
(387,0,cs)
);
}
);
width = 604;
}
);
unicode = 84;
},
{
glyphname = Tbar;
kernLeft = T_2nd;
kernRight = T_1st;
layers = (
{
background = {
shapes = (
{
closed = 1;
nodes = (
(607,677,l),
(611,700,l),
(106,700,l),
(102,677,l),
(342,677,l),
(260,154,ls),
(245,59,o),
(290,0,o),
(386,0,cs),
(428,0,l),
(432,23,l),
(392,23,ls),
(311,23,o),
(273,74,o),
(284,149,cs),
(367,677,l)
);
},
{
closed = 1;
nodes = (
(103,429,l),
(100,406,l),
(306,406,l),
(309,429,l)
);
},
{
closed = 1;
nodes = (
(526,406,l),
(529,429,l),
(323,429,l),
(319,406,l)
);
}
);
};
layerId = "F0CAE04A-D5A8-412F-B560-CC5EB0DB4883";
shapes = (
{
closed = 1;
nodes = (
(526,406,l),
(529,429,l),
(323,429,l),
(319,406,l)
);
},
{
closed = 1;
nodes = (
(306,406,l),
(309,429,l),
(103,429,l),
(100,406,l)
);
},
{
ref = T;
}
);
width = 575;
},
{
background = {
shapes = (
{
closed = 1;
nodes = (
(468,0,l),
(468,126,l),
(418,126,ls),
(382,126,o),
(353,156,o),
(353,192,cs),
(353,574,l),
(548,574,l),
(548,700,l),
(15,700,l),
(15,574,l),
(210,574,l),
(210,209,ls),
(210,94,o),
(293,0,o),
(418,0,cs)
);
},
{
closed = 1;
nodes = (
(501.418,345,l),
(501.418,433,l),
(88.417,433,l),
(88.417,345,l)
);
}
);
};
layerId = "2B2EB811-521F-412C-AF7C-8DB707505A49";
shapes = (
{
closed = 1;
nodes = (
(516,345,l),
(530,433,l),
(366,433,l),
(352,345,l)
);
},
{
closed = 1;
nodes = (
(241,345,l),
(255,433,l),
(117,433,l),
(103,345,l)
);
},
{
ref = T;
}
);
width = 564;
},
{
background = {
shapes = (
{
closed = 1;
nodes = (
(632,531,l),
(659,700,l),
(85,700,l),
(58,531,l),
(239,531,l),
(190,219,ls),
(171,93,o),
(253,0,o),
(387,0,cs),
(477,0,l),
(504,169,l),
(437,169,ls),
(416,169,o),
(401,186,o),
(405,208,cs),
(455,531,l)
);
},
{
closed = 1;
nodes = (
(117,424,l),
(99,309,l),
(221,309,l),
(239,424,l)
);
},
{
closed = 1;
nodes = (
(533,309,l),
(551,424,l),
(423,424,l),
(405,309,l)
);
}
);
};
layerId = "DFD58E85-E3C3-490B-B779-464E2464870B";
shapes = (
{
closed = 1;
nodes = (
(533,309,l),
(551,424,l),
(386,424,l),
(368,309,l)
);
},
{
closed = 1;
nodes = (
(253,309,l),
(271,424,l),
(117,424,l),
(99,309,l)
);
},
{
ref = T;
}
);
width = 604;
}
);
metricLeft = T;
metricRight = T;
unicode = 358;
},
{
glyphname = Tcedilla;
kernLeft = T_2nd;
kernRight = T_1st;
layers = (
{
background = {
shapes = (
{
closed = 1;
nodes = (
(376,-217,l),
(468,-1,l),
(468,11,l),
(348,23,l),
(245,-217,l)
);
}
);
};
layerId = "F0CAE04A-D5A8-412F-B560-CC5EB0DB4883";
shapes = (
{
ref = T;
},
{
closed = 1;
nodes = (
(340,-203,l),
(428,0,l),
(428,10,l),
(404,14,l),
(315,-203,l)
);
}
);
width = 575;
},
{
background = {
shapes = (
{
closed = 1;
nodes = (
(376,-203,l),
(468,13,l),
(468,25,l),
(348,37,l),
(245,-203,l)
);
}
);
};
layerId = "2B2EB811-521F-412C-AF7C-8DB707505A49";
shapes = (
{
ref = T;
},
{
closed = 1;
nodes = (
(343,-203,l),
(429,0,l),
(429,25,l),
(315,37,l),
(212,-203,l)
);
}
);
width = 564;
},
{
layerId = "DFD58E85-E3C3-490B-B779-464E2464870B";
shapes = (
{
ref = T;
},
{
closed = 1;
nodes = (
(370,-203,l),
(477,0,l),
(481,36,l),
(338,39,l),
(209,-203,l)
);
}
);
width = 604;
}
);
unicode = 354;
},
{
glyphname = U;
kernLeft = H_2nd;
kernRight = H_1st;
layers = (
{
anchors = (
{
name = bottom;
pos = (303,0);
},
{
name = ogonek;
pos = (561,86);
},
{
name = top;
pos = (413,700);
},
{
name = topright;
pos = (735,700);
}
);
background = {
shapes = (
{
closed = 1;
nodes = (
(554,122,o),
(465,10,o),
(320,10,cs),
(177,10,o),
(88,114,o),
(111,258,cs),
(181,700,l),
(156,700,l),
(87,265,ls),
(60,95,o),
(168,-13,o),
(317,-13,cs),
(467,-13,o),
(575,91,o),
(601,258,cs),
(671,700,l),
(646,700,l),
(577,265,ls)
);
},
{
closed = 1;
nodes = (
(133,432,l),
(129,408,l),
(606,409,l),
(610,433,l)
);
}
);
};
layerId = "F0CAE04A-D5A8-412F-B560-CC5EB0DB4883";
shapes = (
{
closed = 1;
nodes = (
(467,-13,o),
(575,91,o),
(601,258,cs),
(671,700,l),
(646,700,l),
(577,265,ls),
(554,122,o),
(465,10,o),
(320,10,cs),
(192,10,o),
(107,93,o),
(107,214,cs),
(107,228,o),
(109,243,o),
(111,258,cs),
(181,700,l),
(156,700,l),
(87,265,ls),
(84,247,o),
(83,230,o),
(83,214,cs),
(83,74,o),
(183,-13,o),
(317,-13,cs)
);
}
);
width = 685;
},
{
anchors = (
{
name = bottom;
pos = (316,0);
},
{
name = ogonek;
pos = (590,86);
},
{
name = top;
pos = (426,700);
},
{
name = topright;
pos = (762,700);
}
);
layerId = "2B2EB811-521F-412C-AF7C-8DB707505A49";
shapes = (
{
closed = 1;
nodes = (
(516,-12,o),
(619,85,o),
(647,259,cs),
(717,700,l),
(574,700,l),
(506,274,ls),
(490,171,o),
(439,114,o),
(346,114,cs),
(264,114,o),
(208,159,o),
(208,238,cs),
(208,247,o),
(208,257,o),
(210,267,cs),
(278,700,l),
(135,700,l),
(68,276,ls),
(65,259,o),
(64,243,o),
(64,227,cs),
(64,84,o),
(172,-12,o),
(340,-12,cs)
);
}
);
width = 712;
},
{
anchors = (
{
name = bottom;
pos = (325,0);
},
{
name = ogonek;
pos = (600,95);
},
{
name = top;
pos = (425,700);
},
{
name = topright;
pos = (759,700);
}
);
layerId = "DFD58E85-E3C3-490B-B779-464E2464870B";
shapes = (
{
closed = 1;
nodes = (
(507,-13,o),
(640,81,o),
(667,263,cs),
(733,700,l),
(521,700,l),
(454,266,ls),
(444,203,o),
(400,161,o),
(344,161,cs),
(287,161,o),
(258,200,o),
(258,253,cs),
(258,261,o),
(259,269,o),
(260,278,cs),
(327,700,l),
(115,700,l),
(49,296,ls),
(46,277,o),
(44,259,o),
(44,241,cs),
(44,86,o),
(159,-13,o),
(339,-13,cs)
);
}
);
width = 709;
}
);
unicode = 85;
},
{
glyphname = V;
layers = (
{
anchors = (
{
name = bottom;
pos = (288,0);
},
{
name = top;
pos = (398,700);
}
);
background = {
shapes = (
{
closed = 1;
nodes = (
(406,-12,o),
(460,18,o),
(481,78,c),
(689,700,l),
(537,700,l),
(362,136,ls),
(359,127,o),
(353,123,o),
(345,123,cs),
(337,123,o),
(331,127,o),
(328,136,cs),
(159,700,l),
(0,700,l),
(209,77,l),
(231,16,o),
(284,-12,o),
(345,-12,cs)
);
}
);
};
layerId = "F0CAE04A-D5A8-412F-B560-CC5EB0DB4883";
shapes = (
{
closed = 1;
nodes = (
(316,-13,o),
(331,5,o),
(356,50,cs),
(720,700,l),
(694,700,l),
(337,60,ls),
(321,31,o),
(310,9,o),
(289,9,cs),
(264,9,o),
(260,31,o),
(253,60,cs),
(100,700,l),
(75,700,l),
(233,51,ls),
(244,5,o),
(259,-13,o),
(287,-13,cs)
);
}
);
width = 655;
},
{
anchors = (
{
name = bottom;
pos = (305,0);
},
{
name = top;
pos = (415,700);
}
);
background = {
shapes = (
{
closed = 1;
nodes = (
(393,-45,o),
(455,80,cs),
(759,700,l),
(600,700,l),
(336,136,ls),
(332,127,o),
(324,123,o),
(317,123,cs),
(310,123,o),
(304,127,o),
(302,136,cs),
(222,700,l),
(70,700,l),
(178,93,ls),
(201,-43,o)
);
}
);
};
layerId = "2B2EB811-521F-412C-AF7C-8DB707505A49";
shapes = (
{
closed = 1;
nodes = (
(374,-13,o),
(426,21,o),
(455,80,cs),
(759,700,l),
(598,700,l),
(336,136,ls),
(332,127,o),
(326,122,o),
(317,122,cs),
(309,122,o),
(303,127,o),
(302,136,cs),
(222,700,l),
(70,700,l),
(178,92,ls),
(191,19,o),
(252,-13,o),
(314,-13,cs)
);
}
);
width = 689;
},
{
anchors = (
{
name = bottom;
pos = (339,0);
},
{
name = top;
pos = (450,700);
}
);
background = {
shapes = (
{
closed = 1;
nodes = (
(397,-13,o),
(466,20,o),
(501,88,cs),
(816,700,l),
(590,700,l),
(366,201,ls),
(361,190,o),
(353,190,o),
(351,201,cs),
(280,700,l),
(56,700,l),
(180,88,ls),
(194,21,o),
(251,-13,o),
(324,-13,cs)
);
}
);
};
layerId = "DFD58E85-E3C3-490B-B779-464E2464870B";
shapes = (
{
closed = 1;
nodes = (
(398,-13,o),
(466,20,o),
(501,88,cs),
(816,700,l),
(581,700,l),
(356,199,ls),
(354,194,o),
(351,193,o),
(349,193,cs),
(346,193,o),
(343,195,o),
(342,200,cs),
(271,700,l),
(56,700,l),
(176,106,ls),
(192,29,o),
(261,-13,o),
(334,-13,cs)
);
}
);
width = 760;
}
);
unicode = 86;
},
{
glyphname = W;
kernLeft = H_2nd;
kernRight = H_1st;
layers = (
{
anchors = (
{
name = bottom;
pos = (538,0);
},
{
name = top;
pos = (634,700);
}
);
background = {
shapes = (
{
closed = 1;
nodes = (
(403,-13,o),
(506,49,o),
(552,163,c),
(570,51,o),
(664,-13,o),
(781,-13,cs),
(932,-13,o),
(1033,99,o),
(1054,235,cs),
(1126,700,l),
(1101,700,l),
(1028,229,ls),
(1010,116,o),
(916,10,o),
(783,10,cs),
(644,10,o),
(554,106,o),
(574,235,cs),
(647,700,l),
(622,700,l),
(550,238,ls),
(531,114,o),
(430,10,o),
(297,10,cs),
(154,10,o),
(71,110,o),
(94,251,cs),
(166,700,l),
(141,700,l),
(69,255,ls),
(43,96,o),
(138,-13,o),
(295,-13,cs)
);
}
);
};
layerId = "F0CAE04A-D5A8-412F-B560-CC5EB0DB4883";
shapes = (
{
closed = 1;
nodes = (
(403,-13,o),
(506,49,o),
(552,163,c),
(570,51,o),
(664,-13,o),
(781,-13,cs),
(932,-13,o),
(1033,99,o),
(1054,235,cs),
(1126,700,l),
(1101,700,l),
(1028,229,ls),
(1010,116,o),
(916,10,o),
(783,10,cs),
(657,10,o),
(571,89,o),
(571,200,cs),
(571,214,o),
(573,230,o),
(575,242,cs),
(647,700,l),
(622,700,l),
(550,238,ls),
(531,114,o),
(430,10,o),
(297,10,cs),
(170,10,o),
(90,89,o),
(90,206,cs),
(90,225,o),
(93,248,o),
(96,264,cs),
(166,700,l),
(141,700,l),
(71,268,ls),
(68,250,o),
(65,227,o),
(65,204,cs),
(65,73,o),
(155,-13,o),
(295,-13,cs)
);
}
);
width = 1156;
},
{
anchors = (
{
name = bottom;
pos = (501,0);
},
{
name = top;
pos = (607,700);
}
);
background = {
shapes = (
{
closed = 1;
nodes = (
(385,-12,o),
(461,22,o),
(519,80,c),
(559,21,o),
(623,-13,o),
(725,-12,cs),
(885,-11,o),
(996,94,o),
(1023,266,cs),
(1091,700,l),
(948,700,l),
(879,259,ls),
(867,180,o),
(806,116,o),
(724,116,cs),
(642,116,o),
(597,168,o),
(610,247,cs),
(682,700,l),
(539,700,l),
(470,259,ls),
(458,180,o),
(397,116,o),
(315,116,cs),
(233,116,o),
(191,175,o),
(203,254,cs),
(273,700,l),
(130,700,l),
(62,266,ls),
(35,94,o),
(133,-12,o),
(294,-12,cs)
);
}
);
};
layerId = "2B2EB811-521F-412C-AF7C-8DB707505A49";
shapes = (
{
closed = 1;
nodes = (
(385,-12,o),
(461,22,o),
(519,80,c),
(558,22,o),
(621,-12,o),
(721,-12,cs),
(883,-12,o),
(996,93,o),
(1023,266,cs),
(1091,700,l),
(948,700,l),
(879,259,ls),
(867,180,o),
(806,116,o),
(724,116,cs),
(651,116,o),
(608,157,o),
(608,221,cs),
(608,233,o),
(610,248,o),
(612,260,cs),
(682,700,l),
(539,700,l),
(470,259,ls),
(458,180,o),
(397,116,o),
(315,116,cs),
(242,116,o),
(201,162,o),
(201,228,cs),
(201,239,o),
(203,254,o),
(205,266,cs),
(273,700,l),
(130,700,l),
(65,285,ls),
(61,259,o),
(58,228,o),
(58,208,cs),
(58,72,o),
(151,-12,o),
(294,-12,cs)
);
}
);
width = 1081;
},
{
anchors = (
{
name = bottom;
pos = (484,0);
},
{
name = top;
pos = (595,700);
}
);
background = {
shapes = (
{
closed = 1;
nodes = (
(853,-13,o),
(983,90,o),
(1008,255,cs),
(1076,700,l),
(868,700,l),
(800,267,ls),
(791,209,o),
(756,174,o),
(706,174,cs),
(646,174,o),
(620,216,o),
(630,276,cs),
(698,700,l),
(487,700,l),
(419,264,ls),
(410,205,o),
(373,167,o),
(325,167,cs),
(274,167,o),
(243,208,o),
(253,270,cs),
(321,700,l),
(112,700,l),
(44,276,ls),
(17,110,o),
(116,-12,o),
(281,-12,cs),
(368,-12,o),
(438,16,o),
(493,70,c),
(538,19,o),
(605,-13,o),
(692,-13,cs)
);
}
);
};
layerId = "DFD58E85-E3C3-490B-B779-464E2464870B";
shapes = (
{
closed = 1;
nodes = (
(368,-13,o),
(438,16,o),
(493,70,c),
(538,19,o),
(605,-13,o),
(692,-13,cs),
(853,-13,o),
(983,90,o),
(1008,255,cs),
(1076,700,l),
(868,700,l),
(800,267,ls),
(791,209,o),
(756,174,o),
(706,174,cs),
(654,174,o),
(628,205,o),
(628,252,cs),
(628,263,o),
(630,276,o),
(632,288,cs),
(698,700,l),
(487,700,l),
(419,264,ls),
(410,205,o),
(373,167,o),
(325,167,cs),
(280,167,o),
(251,198,o),
(251,248,cs),
(251,257,o),
(253,270,o),
(255,281,cs),
(321,700,l),
(112,700,l),
(46,287,ls),
(43,268,o),
(40,246,o),
(40,223,cs),
(40,85,o),
(134,-13,o),
(281,-13,cs)
);
}
);
width = 1050;
}
);
unicode = 87;
},
{
glyphname = X;
kernLeft = X_2nd;
kernRight = X_1st;
layers = (
{
anchors = (
{
name = bottom;
pos = (287,0);
},
{
name = top;
pos = (397,700);
}
);
background = {
shapes = (
{
closed = 1;
nodes = (
(52,0,l),
(359,352,l),
(505,348,o),
(573,281,o),
(548,125,cs),
(528,0,l),
(553,0,l),
(572,121,ls),
(597,277,o),
(537,362,o),
(378,374,c),
(663,700,l),
(631,700,l),
(347,375,l),
(218,376,o),
(141,468,o),
(163,607,cs),
(178,700,l),
(153,700,l),
(140,620,ls),
(112,443,o),
(209,362,o),
(328,353,c),
(20,0,l)
);
}
);
};
layerId = "F0CAE04A-D5A8-412F-B560-CC5EB0DB4883";
shapes = (
{
closed = 1;
nodes = (
(52,0,l),
(359,352,l),
(485,349,o),
(553,298,o),
(553,184,cs),
(553,166,o),
(551,146,o),
(548,125,cs),
(528,0,l),
(553,0,l),
(572,121,ls),
(576,144,o),
(577,165,o),
(577,185,cs),
(577,300,o),
(514,364,o),
(378,374,c),
(663,700,l),
(631,700,l),
(347,375,l),
(233,376,o),
(159,448,o),
(159,561,cs),
(159,576,o),
(160,591,o),
(163,607,cs),
(178,700,l),
(153,700,l),
(140,620,ls),
(137,599,o),
(135,580,o),
(135,561,cs),
(135,425,o),
(223,361,o),
(328,353,c),
(20,0,l)
);
}
);
width = 653;
},
{
anchors = (
{
name = bottom;
pos = (312,0);
},
{
name = top;
pos = (422,700);
}
);
background = {
shapes = (
{
closed = 1;
nodes = (
(183,0,l),
(394,287,l),
(477,287,o),
(517,233,o),
(504,164,cs),
(473,0,l),
(616,0,l),
(645,155,ls),
(669,285,o),
(606,374,o),
(498,403,c),
(728,700,l),
(563,700,l),
(353,414,l),
(289,422,o),
(254,473,o),
(266,536,cs),
(297,700,l),
(154,700,l),
(125,545,ls),
(102,423,o),
(156,338,o),
(249,303,c),
(18,0,l)
);
}
);
};
layerId = "2B2EB811-521F-412C-AF7C-8DB707505A49";
shapes = (
{
closed = 1;
nodes = (
(183,0,l),
(394,287,l),
(467,287,o),
(506,246,o),
(506,189,cs),
(506,181,o),
(506,173,o),
(504,164,cs),
(473,0,l),
(616,0,l),
(645,155,ls),
(648,174,o),
(650,191,o),
(650,208,cs),
(650,309,o),
(591,378,o),
(498,403,c),
(728,700,l),
(563,700,l),
(353,414,l),
(297,421,o),
(264,460,o),
(264,512,cs),
(264,520,o),
(264,528,o),
(266,536,cs),
(297,700,l),
(154,700,l),
(125,545,ls),
(121,526,o),
(120,508,o),
(120,491,cs),
(120,398,o),
(170,333,o),
(249,303,c),
(18,0,l)
);
}
);
width = 703;
},
{
anchors = (
{
name = bottom;
pos = (313,0);
},
{
name = top;
pos = (424,700);
}
);
background = {
shapes = (
{
closed = 1;
nodes = (
(210,0,l),
(406,258,l),
(439,248,o),
(461,214,o),
(453,161,cs),
(427,0,l),
(643,0,l),
(667,153,ls),
(686,269,o),
(638,358,o),
(538,400,c),
(765,700,l),
(526,700,l),
(339,456,l),
(313,463,o),
(299,490,o),
(306,532,cs),
(332,700,l),
(116,700,l),
(92,543,ls),
(76,439,o),
(114,358,o),
(201,307,c),
(-29,0,l)
);
}
);
};
layerId = "DFD58E85-E3C3-490B-B779-464E2464870B";
shapes = (
{
closed = 1;
nodes = (
(210,0,l),
(406,258,l),
(434,249,o),
(455,223,o),
(455,182,cs),
(455,175,o),
(454,168,o),
(453,161,cs),
(427,0,l),
(643,0,l),
(667,153,ls),
(670,170,o),
(671,186,o),
(671,201,cs),
(671,294,o),
(624,364,o),
(538,400,c),
(765,700,l),
(526,700,l),
(339,456,l),
(318,462,o),
(304,481,o),
(304,512,cs),
(304,518,o),
(305,525,o),
(306,532,cs),
(332,700,l),
(116,700,l),
(92,543,ls),
(90,527,o),
(88,512,o),
(88,498,cs),
(88,416,o),
(127,350,o),
(201,307,c),
(-29,0,l)
);
}
);
width = 708;
}
);
unicode = 88;
},
{
glyphname = Y;
kernLeft = Y_2nd;
kernRight = Y_1st;
layers = (
{
anchors = (
{
name = bottom;
pos = (287,0);
},
{
name = top;
pos = (398,700);
},
{
name = topleft;
pos = (90,700);
}
);
background = {
hints = (
{
place = (65, 143);
place = (65, 143);
type = Stem;
},
{
place = (284, 143);
place = (284, 143);
type = Stem;
},
{
place = (504, 143);
place = (504, 143);
type = Stem;
},
{
horizontal = 1;
place = (0, 21);
target = up;
type = BottomGhost;
},
{
horizontal = 1;
place = (700, -20);
target = down;
type = TopGhost;
}
);
shapes = (
{
closed = 1;
nodes = (
(299,0,l),
(333,217,l),
(494,215,o),
(593,303,o),
(617,453,cs),
(656,700,l),
(631,700,l),
(592,457,ls),
(566,298,o),
(457,240,o),
(348,240,cs),
(197,240,o),
(109,336,o),
(133,490,cs),
(166,700,l),
(141,700,l),
(108,488,ls),
(85,339,o),
(167,235,o),
(308,219,c),
(274,0,l)
);
},
{
closed = 1;
nodes = (
(299,0,l),
(333,217,l),
(494,215,o),
(593,303,o),
(617,453,cs),
(656,700,l),
(631,700,l),
(592,457,ls),
(566,298,o),
(457,240,o),
(348,240,cs),
(214,240,o),
(129,316,o),
(129,441,cs),
(129,460,o),
(132,486,o),
(135,503,cs),
(166,700,l),
(141,700,l),
(110,501,ls),
(107,484,o),
(104,459,o),
(104,440,cs),
(104,317,o),
(183,233,o),
(308,219,c),
(274,0,l)
);
}
);
};
layerId = "F0CAE04A-D5A8-412F-B560-CC5EB0DB4883";
shapes = (
{
closed = 1;
nodes = (
(309,0,l),
(343,217,l),
(494,218,o),
(593,303,o),
(617,453,cs),
(656,700,l),
(631,700,l),
(592,457,ls),
(566,298,o),
(457,240,o),
(348,240,cs),
(214,240,o),
(129,316,o),
(129,441,cs),
(129,460,o),
(132,486,o),
(135,503,cs),
(166,700,l),
(141,700,l),
(110,501,ls),
(107,484,o),
(104,459,o),
(104,440,cs),
(104,317,o),
(183,230,o),
(318,219,c),
(284,0,l)
);
}
);
width = 685;
},
{
anchors = (
{
name = bottom;
pos = (302,0);
},
{
name = top;
pos = (403,700);
},
{
name = topleft;
pos = (90,700);
}
);
background = {
shapes = (
{
closed = 1;
nodes = (
(372,0,l),
(402,193,l),
(537,219,o),
(642,322,o),
(666,474,cs),
(702,700,l),
(559,700,l),
(522,465,ls),
(509,381,o),
(441,312,o),
(350,312,cs),
(259,312,o),
(213,381,o),
(226,465,cs),
(263,700,l),
(120,700,l),
(84,474,ls),
(60,322,o),
(133,220,o),
(259,193,c),
(229,0,l)
);
},
{
closed = 1;
nodes = (
(371,0,l),
(405,213,l),
(263,213,l),
(229,0,l)
);
}
);
};
layerId = "2B2EB811-521F-412C-AF7C-8DB707505A49";
shapes = (
{
closed = 1;
nodes = (
(381,0,l),
(410,186,l),
(548,216,o),
(636,295,o),
(662,454,cs),
(702,700,l),
(559,700,l),
(521,469,ls),
(504,366,o),
(454,309,o),
(361,309,cs),
(277,309,o),
(223,359,o),
(223,435,cs),
(223,446,o),
(225,460,o),
(227,472,cs),
(263,700,l),
(120,700,l),
(84,474,ls),
(81,457,o),
(79,438,o),
(79,421,cs),
(79,307,o),
(147,215,o),
(269,190,c),
(239,0,l)
);
}
);
width = 712;
},
{
anchors = (
{
name = bottom;
pos = (307,0);
},
{
name = top;
pos = (417,700);
},
{
name = topleft;
pos = (90,700);
}
);
background = {
shapes = (
{
closed = 1;
nodes = (
(413,0,l),
(442,183,l),
(569,209,o),
(658,291,o),
(679,430,cs),
(720,700,l),
(512,700,l),
(473,450,ls),
(463,389,o),
(422,349,o),
(366,349,cs),
(304,349,o),
(272,390,o),
(282,459,cs),
(320,700,l),
(112,700,l),
(76,479,ls),
(54,347,o),
(105,236,o),
(226,192,c),
(197,0,l)
);
}
);
};
layerId = "DFD58E85-E3C3-490B-B779-464E2464870B";
shapes = (
{
closed = 1;
nodes = (
(413,0,l),
(442,183,l),
(569,209,o),
(658,291,o),
(679,430,cs),
(720,700,l),
(512,700,l),
(473,450,ls),
(463,389,o),
(422,349,o),
(366,349,cs),
(312,349,o),
(280,381,o),
(280,435,cs),
(280,445,o),
(282,458,o),
(284,471,cs),
(320,700,l),
(112,700,l),
(78,491,ls),
(74,469,o),
(71,443,o),
(71,421,cs),
(71,315,o),
(123,229,o),
(226,192,c),
(197,0,l)
);
}
);
width = 693;
}
);
unicode = 89;
},
{
glyphname = Z;
layers = (
{
anchors = (
{
name = bottom;
pos = (170,0);
},
{
name = center;
pos = (244,350);
},
{
name = top;
pos = (317,700);
}
);
layerId = "F0CAE04A-D5A8-412F-B560-CC5EB0DB4883";
shapes = (
{
closed = 1;
nodes = (
(358,-215,o),
(414,-53,o),
(414,51,cs),
(414,213,o),
(324,261,o),
(224,261,cs),
(180,261,ls),
(145,261,o),
(128,274,o),
(128,300,cs),
(128,336,o),
(163,354,o),
(197,370,cs),
(432,484,ls),
(493,513,o),
(542,556,o),
(542,621,cs),
(542,677,o),
(500,700,o),
(438,700,cs),
(118,700,l),
(113,677,l),
(435,677,ls),
(488,677,o),
(516,662,o),
(516,618,cs),
(516,568,o),
(478,532,o),
(420,504,cs),
(176,385,ls),
(128,362,o),
(103,336,o),
(103,299,cs),
(103,264,o),
(128,238,o),
(177,238,cs),
(223,238,ls),
(251,238,o),
(290,234,o),
(321,214,c),
(357,193,o),
(389,152,o),
(389,50,cs),
(389,-34,o),
(349,-192,o),
(219,-192,cs),
(161,-192,o),
(123,-161,o),
(123,-93,cs),
(123,19,o),
(216,140,o),
(340,216,c),
(316,225,l),
(185,140,o),
(98,19,o),
(98,-91,cs),
(98,-175,o),
(147,-215,o),
(218,-215,cs)
);
}
);
width = 532;
},
{
anchors = (
{
name = bottom;
pos = (226,0);
},
{
name = center;
pos = (281,350);
},
{
name = top;
pos = (314,700);
}
);
background = {
hints = (
{
horizontal = 1;
place = (190, 117);
place = (190, 117);
type = Stem;
},
{
horizontal = 1;
place = (583, 117);
place = (583, 117);
type = Stem;
}
);
shapes = (
{
closed = 1;
nodes = (
(368,-216,o),
(457,-65,o),
(457,77,cs),
(457,192,o),
(398,290,o),
(239,307,c),
(235,307,ls),
(229,307,o),
(227,311,o),
(227,315,cs),
(227,318,o),
(229,321,o),
(233,323,cs),
(471,445,ls),
(530,475,o),
(564,535,o),
(564,587,cs),
(564,647,o),
(523,700,o),
(436,700,cs),
(89,700,l),
(69,574,l),
(397,574,ls),
(407,574,o),
(413,566,o),
(413,557,cs),
(412,552,o),
(410,546,o),
(405,543,cs),
(156,417,ls),
(89,383,o),
(67,342,o),
(67,295,cs),
(67,239,o),
(108,196,o),
(180,196,cs),
(228,196,ls),
(251,196,o),
(268,192,o),
(288,177,c),
(311,153,o),
(323,110,o),
(323,67,cs),
(323,-9,o),
(293,-90,o),
(240,-90,cs),
(215,-90,o),
(204,-70,o),
(204,-42,cs),
(204,6,o),
(250,89,o),
(365,163,c),
(306,237,l),
(156,140,o),
(70,39,o),
(70,-74,cs),
(70,-151,o),
(120,-216,o),
(219,-216,cs)
);
}
);
};
guides = (
{
angle = 90;
pos = (70,209);
},
{
angle = 90;
pos = (204,209);
},
{
angle = 90;
pos = (323,209);
},
{
angle = 90;
pos = (457,209);
},
{
angle = 81.1001;
pos = (535,336);
}
);
layerId = "2B2EB811-521F-412C-AF7C-8DB707505A49";
shapes = (
{
closed = 1;
nodes = (
(368,-216,o),
(457,-59,o),
(457,83,cs),
(457,208,o),
(412,283,o),
(264,314,c),
(260,314,ls),
(254,314,o),
(252,318,o),
(252,322,cs),
(252,325,o),
(254,328,o),
(258,330,cs),
(464,434,ls),
(524,464,o),
(564,514,o),
(564,577,cs),
(564,646,o),
(517,700,o),
(430,700,cs),
(89,700,l),
(69,574,l),
(397,574,ls),
(407,574,o),
(413,566,o),
(413,557,cs),
(412,552,o),
(410,546,o),
(405,543,cs),
(166,417,ls),
(102,383,o),
(77,340,o),
(77,293,cs),
(77,237,o),
(115,196,o),
(187,196,cs),
(228,196,ls),
(251,196,o),
(268,192,o),
(288,177,c),
(311,153,o),
(323,110,o),
(323,67,cs),
(323,-9,o),
(293,-90,o),
(240,-90,cs),
(215,-90,o),
(204,-70,o),
(204,-42,cs),
(204,16,o),
(250,99,o),
(365,163,c),
(299,247,l),
(150,152,o),
(70,46,o),
(70,-69,cs),
(70,-146,o),
(120,-216,o),
(219,-216,cs)
);
}
);
width = 533;
},
{
anchors = (
{
name = bottom;
pos = (225,-42);
},
{
name = center;
pos = (263,350);
},
{
name = top;
pos = (317,700);
}
);
background = {
anchors = (
{
name = bottom;
pos = (318,0);
},
{
name = top;
pos = (429,700);
}
);
hints = (
{
place = (179, 133);
place = (179, 133);
type = Stem;
},
{
place = (397, 142);
place = (397, 142);
type = Stem;
},
{
horizontal = 1;
place = (-218, 128);
place = (-218, 128);
type = Stem;
},
{
horizontal = 1;
place = (574, 126);
place = (574, 126);
type = Stem;
}
);
shapes = (
{
closed = 1;
nodes = (
(399,-216,o),
(499,-59,o),
(499,94,cs),
(499,198,o),
(447,293,o),
(328,309,c),
(319,309,ls),
(311,309,o),
(308,312,o),
(308,316,cs),
(308,318,o),
(310,322,o),
(313,324,cs),
(464,415,ls),
(522,450,o),
(587,493,o),
(587,580,cs),
(587,652,o),
(541,700,o),
(439,700,cs),
(88,700,l),
(62,531,l),
(337,531,ls),
(341,531,o),
(344,528,o),
(344,525,cs),
(344,522,o),
(341,518,o),
(337,516,cs),
(164,412,ls),
(110,379,o),
(65,347,o),
(65,281,cs),
(65,215,o),
(114,178,o),
(178,178,cs),
(263,178,l),
(280,174,o),
(307,172,o),
(318,158,c),
(323,137,o),
(325,110,o),
(325,83,cs),
(325,22,o),
(309,-40,o),
(267,-40,cs),
(251,-40,o),
(241,-26,o),
(241,-6,cs),
(241,29,o),
(269,83,o),
(338,128,c),
(285,231,l),
(138,149,o),
(74,39,o),
(74,-58,cs),
(74,-148,o),
(133,-216,o),
(231,-216,cs)
);
}
);
};
guides = (
{
angle = 90;
pos = (343,-94);
},
{
angle = 90;
pos = (88,340);
},
{
angle = 90;
pos = (251,340);
}
);
layerId = "DFD58E85-E3C3-490B-B779-464E2464870B";
shapes = (
{
closed = 1;
nodes = (
(402,-216,o),
(499,-65,o),
(499,88,cs),
(499,192,o),
(476,274,o),
(360,312,c),
(349,315,ls),
(341,317,o),
(338,319,o),
(338,323,cs),
(338,325,o),
(340,329,o),
(343,331,cs),
(469,405,ls),
(526,439,o),
(587,486,o),
(587,573,cs),
(587,645,o),
(537,700,o),
(435,700,cs),
(88,700,l),
(62,531,l),
(337,531,ls),
(341,531,o),
(344,528,o),
(344,525,cs),
(344,522,o),
(341,518,o),
(337,516,cs),
(169,418,ls),
(115,387,o),
(74,350,o),
(74,281,cs),
(74,215,o),
(130,178,o),
(194,178,cs),
(263,178,l),
(280,174,o),
(307,172,o),
(318,158,c),
(323,137,o),
(325,110,o),
(325,83,cs),
(325,22,o),
(313,-42,o),
(275,-42,cs),
(259,-42,o),
(252,-29,o),
(252,-11,cs),
(252,29,o),
(286,97,o),
(338,119,c),
(284,241,l),
(139,159,o),
(78,58,o),
(78,-59,cs),
(78,-149,o),
(136,-216,o),
(234,-216,cs)
);
}
);
width = 552;
}
);
unicode = 90;
},
{
glyphname = A.ss01;
kernLeft = H_2nd;
kernRight = H_1st;
layers = (
{
anchors = (
{
name = bottom;
pos = (303,0);
},
{
name = ogonek;
pos = (578,10);
},
{
name = top;
pos = (404,700);
}
);
background = {
shapes = (
{
closed = 1;
nodes = (
(70,0,l),
(112,267,l),
(577,268,l),
(535,0,l),
(560,0,l),
(629,435,ls),
(656,605,o),
(548,713,o),
(399,713,cs),
(249,713,o),
(141,609,o),
(115,442,cs),
(45,0,l)
);
},
{
closed = 1;
nodes = (
(139,435,ls),
(162,578,o),
(251,690,o),
(396,690,cs),
(539,690,o),
(628,586,o),
(605,442,cs),
(581,292,l),
(116,291,l)
);
}
);
};
layerId = "F0CAE04A-D5A8-412F-B560-CC5EB0DB4883";
shapes = (
{
closed = 1;
nodes = (
(70,0,l),
(112,267,l),
(577,268,l),
(535,0,l),
(560,0,l),
(626,415,ls),
(629,435,o),
(634,466,o),
(634,489,cs),
(634,628,o),
(544,713,o),
(404,713,cs),
(254,713,o),
(141,609,o),
(115,442,cs),
(45,0,l)
);
},
{
closed = 1;
nodes = (
(139,438,ls),
(162,585,o),
(256,690,o),
(401,690,cs),
(535,690,o),
(609,612,o),
(609,488,cs),
(609,469,o),
(605,442,o),
(602,422,cs),
(581,292,l),
(116,291,l)
);
}
);
width = 685;
},
{
anchors = (
{
name = bottom;
pos = (316,0);
},
{
name = ogonek;
pos = (602,10);
},
{
name = top;
pos = (419,700);
}
);
background = {
shapes = (
{
closed = 1;
nodes = (
(202,315,l),
(182,189,l),
(510,189,l),
(530,315,l)
);
},
{
closed = 1;
nodes = (
(464,0,l),
(607,0,l),
(674,424,ls),
(702,602,o),
(598,712,o),
(428,712,cs),
(258,712,o),
(120,602,o),
(92,424,cs),
(25,0,l),
(168,0,l),
(201,205,l),
(216,299,l),
(236,433,ls),
(249,517,o),
(317,586,o),
(408,586,cs),
(499,586,o),
(545,517,o),
(532,433,cs),
(512,299,l),
(497,205,l)
);
},
{
closed = 1;
nodes = (
(226,712,o),
(123,615,o),
(95,441,cs),
(25,0,l),
(168,0,l),
(236,426,ls),
(252,529,o),
(303,586,o),
(396,586,cs),
(480,586,o),
(534,536,o),
(534,460,cs),
(534,451,o),
(533,442,o),
(532,433,cs),
(464,0,l),
(607,0,l),
(674,424,ls),
(677,441,o),
(678,458,o),
(678,474,cs),
(678,618,o),
(569,712,o),
(402,712,cs)
);
}
);
};
guides = (
{
angle = 90;
pos = (350,0);
}
);
layerId = "2B2EB811-521F-412C-AF7C-8DB707505A49";
shapes = (
{
closed = 1;
nodes = (
(168,0,l),
(198,189,l),
(494,189,l),
(464,0,l),
(607,0,l),
(672,412,ls),
(675,432,o),
(678,455,o),
(678,480,cs),
(678,624,o),
(576,712,o),
(409,712,cs),
(233,712,o),
(123,615,o),
(95,441,cs),
(25,0,l)
);
},
{
closed = 1;
nodes = (
(236,426,ls),
(253,529,o),
(308,586,o),
(401,586,cs),
(480,586,o),
(534,544,o),
(534,468,cs),
(534,456,o),
(532,433,o),
(530,421,cs),
(513,315,l),
(218,315,l)
);
}
);
width = 712;
},
{
anchors = (
{
name = bottom;
pos = (314,0);
},
{
name = ogonek;
pos = (599,10);
},
{
name = top;
pos = (415,700);
}
);
background = {
shapes = (
{
closed = 1;
nodes = (
(214,0,l),
(240,166,l),
(440,166,l),
(414,0,l),
(626,0,l),
(690,404,ls),
(718,590,o),
(593,713,o),
(406,713,cs),
(236,713,o),
(97,609,o),
(70,437,cs),
(2,0,l)
);
},
{
closed = 1;
nodes = (
(281,434,ls),
(290,497,o),
(334,539,o),
(393,539,cs),
(457,539,o),
(492,488,o),
(481,422,cs),
(467,335,l),
(267,335,l)
);
}
);
};
layerId = "DFD58E85-E3C3-490B-B779-464E2464870B";
shapes = (
{
closed = 1;
nodes = (
(214,0,l),
(240,166,l),
(440,166,l),
(414,0,l),
(626,0,l),
(688,393,ls),
(691,411,o),
(694,437,o),
(694,458,cs),
(694,615,o),
(578,713,o),
(409,713,cs),
(239,713,o),
(97,609,o),
(70,437,cs),
(2,0,l)
);
},
{
closed = 1;
nodes = (
(281,434,ls),
(290,497,o),
(334,539,o),
(393,539,cs),
(449,539,o),
(483,503,o),
(483,448,cs),
(483,437,o),
(481,419,o),
(479,409,cs),
(467,335,l),
(267,335,l)
);
}
);
width = 709;
}
);
},
{
glyphname = Aogonek.ss01;
layers = (
{
layerId = "F0CAE04A-D5A8-412F-B560-CC5EB0DB4883";
shapes = (
{
ref = A.ss01;
},
{
closed = 1;
nodes = (
(511,-215,o),
(524,-213,o),
(538,-208,c),
(540,-187,l),
(526,-192,o),
(513,-194,o),
(501,-194,cs),
(471,-194,o),
(449,-179,o),
(449,-149,cs),
(449,-89,o),
(542,-15,o),
(560,0,c),
(543,13,l),
(534,6,o),
(424,-83,o),
(424,-149,cs),
(424,-189,o),
(456,-215,o),
(498,-215,cs)
);
}
);
width = 685;
},
{
layerId = "2B2EB811-521F-412C-AF7C-8DB707505A49";
shapes = (
{
ref = A.ss01;
},
{
closed = 1;
nodes = (
(542,-218,o),
(566,-215,o),
(581,-211,c),
(590,-126,l),
(575,-131,o),
(561,-134,o),
(546,-134,cs),
(515,-134,o),
(493,-112,o),
(497,-80,cs),
(502,-29,o),
(570,57,o),
(577,66,c),
(544,86,l),
(536,78,o),
(416,-33,o),
(409,-104,cs),
(401,-181,o),
(456,-218,o),
(528,-218,cs)
);
}
);
width = 712;
},
{
layerId = "DFD58E85-E3C3-490B-B779-464E2464870B";
shapes = (
{
ref = A.ss01;
},
{
closed = 1;
nodes = (
(491,-219,o),
(524,-215,o),
(543,-210,c),
(557,-117,l),
(545,-121,o),
(528,-124,o),
(512,-124,cs),
(482,-124,o),
(467,-109,o),
(467,-87,cs),
(467,-39,o),
(545,52,o),
(560,69,c),
(507,95,l),
(474,66,o),
(350,-33,o),
(350,-121,cs),
(350,-184,o),
(400,-219,o),
(470,-219,cs)
);
}
);
width = 709;
}
);
},
{
glyphname = E.ss01;
kernLeft = H_2nd;
kernRight = E_1st;
layers = (
{
anchors = (
{
name = bottom;
pos = (258,0);
},
{
name = ogonek;
pos = (455,10);
},
{
name = top;
pos = (366,700);
},
{
name = topleft;
pos = (90,700);
}
);
background = {
shapes = (
{
closed = 1;
nodes = (
(553,0,l),
(553,126,l),
(287,126,ls),
(241,126,o),
(204,163,o),
(204,209,cs),
(204,255,o),
(241,293,o),
(287,293,cs),
(519,293,l),
(519,419,l),
(281,419,ls),
(238,419,o),
(204,453,o),
(204,496,cs),
(204,539,o),
(238,574,o),
(281,574,cs),
(553,574,l),
(553,700,l),
(265,700,ls),
(152,700,o),
(61,609,o),
(61,496,cs),
(61,441,o),
(87,390,o),
(128,353,c),
(87,316,o),
(61,265,o),
(61,209,cs),
(61,93,o),
(154,0,o),
(270,0,cs)
);
}
);
};
layerId = "F0CAE04A-D5A8-412F-B560-CC5EB0DB4883";
shapes = (
{
closed = 1;
nodes = (
(458,0,l),
(462,23,l),
(212,23,ls),
(119,23,o),
(73,95,o),
(73,167,cs),
(73,254,o),
(142,345,o),
(264,345,cs),
(472,345,l),
(476,369,l),
(278,369,ls),
(186,369,o),
(136,441,o),
(136,510,cs),
(136,593,o),
(195,676,o),
(304,676,cs),
(564,676,l),
(568,700,l),
(302,700,ls),
(184,700,o),
(111,607,o),
(111,510,cs),
(111,440,o),
(150,385,o),
(205,362,c),
(124,347,o),
(48,270,o),
(48,165,cs),
(48,80,o),
(101,0,o),
(213,0,cs)
);
}
);
width = 549;
},
{
anchors = (
{
name = bottom;
pos = (262,0);
},
{
name = ogonek;
pos = (476,10);
},
{
name = top;
pos = (373,700);
},
{
name = topleft;
pos = (90,700);
}
);
layerId = "2B2EB811-521F-412C-AF7C-8DB707505A49";
shapes = (
{
closed = 1;
nodes = (
(492,0,l),
(512,126,l),
(251,126,ls),
(205,126,o),
(181,162,o),
(181,205,cs),
(181,255,o),
(223,293,o),
(269,293,cs),
(504,293,l),
(524,419,l),
(295,419,ls),
(253,419,o),
(226,452,o),
(226,494,cs),
(226,540,o),
(260,574,o),
(315,574,cs),
(582,574,l),
(602,700,l),
(320,700,ls),
(181,700,o),
(88,602,o),
(88,495,cs),
(88,433,o),
(113,393,o),
(141,370,c),
(65,326,o),
(35,251,o),
(35,185,cs),
(35,92,o),
(98,0,o),
(221,0,cs)
);
}
);
width = 572;
},
{
anchors = (
{
name = bottom;
pos = (271,0);
},
{
name = ogonek;
pos = (497,10);
},
{
name = top;
pos = (383,700);
},
{
name = topleft;
pos = (90,700);
}
);
background = {
shapes = (
{
closed = 1;
nodes = (
(505,0,l),
(532,170,l),
(270,170,ls),
(236,170,o),
(214,187,o),
(219,218,cs),
(224,250,o),
(251,268,o),
(285,268,cs),
(512,268,l),
(539,436,l),
(311,436,ls),
(278,436,o),
(256,453,o),
(261,483,cs),
(266,514,o),
(292,531,o),
(325,531,cs),
(588,530,l),
(615,700,l),
(304,700,ls),
(187,700,o),
(79,619,o),
(61,502,cs),
(52,448,o),
(73,396,o),
(112,361,c),
(55,323,o),
(16,266,o),
(6,203,cs),
(-13,83,o),
(71,0,o),
(191,0,cs)
);
}
);
};
layerId = "DFD58E85-E3C3-490B-B779-464E2464870B";
shapes = (
{
closed = 1;
nodes = (
(517,0,l),
(544,170,l),
(284,170,ls),
(247,170,o),
(230,191,o),
(230,214,cs),
(230,240,o),
(252,268,o),
(295,268,cs),
(524,268,l),
(551,436,l),
(327,436,ls),
(290,436,o),
(272,459,o),
(272,482,cs),
(272,506,o),
(292,531,o),
(332,531,cs),
(600,530,l),
(627,700,l),
(308,700,ls),
(165,700,o),
(79,601,o),
(79,507,cs),
(79,454,o),
(100,405,o),
(142,372,c),
(62,330,o),
(21,263,o),
(21,191,cs),
(21,97,o),
(91,0,o),
(236,0,cs)
);
}
);
width = 596;
}
);
},
{
glyphname = Eogonek.ss01;
kernLeft = H_2nd;
kernRight = E_1st;
layers = (
{
background = {
shapes = (
{
closed = 1;
nodes = (
(401,-218,o),
(420,-212,o),
(427,-210,c),
(430,-185,l),
(408,-191,o),
(390,-194,o),
(374,-194,cs),
(321,-194,o),
(291,-169,o),
(291,-125,cs),
(291,-81,o),
(325,-27,o),
(359,14,c),
(330,14,l),
(296,-28,o),
(265,-81,o),
(265,-127,cs),
(265,-187,o),
(308,-218,o),
(375,-218,cs)
);
},
{
closed = 1;
nodes = (
(402,-218,o),
(421,-212,o),
(427,-210,c),
(430,-186,l),
(408,-192,o),
(391,-195,o),
(374,-195,cs),
(339,-195,o),
(307,-177,o),
(307,-134,cs),
(307,-85,o),
(352,-32,o),
(397,0,c),
(384,18,l),
(336,-18,o),
(281,-78,o),
(281,-139,cs),
(281,-194,o),
(325,-218,o),
(374,-218,cs)
);
}
);
};
layerId = "F0CAE04A-D5A8-412F-B560-CC5EB0DB4883";
shapes = (
{
closed = 1;
nodes = (
(402,-218,o),
(421,-212,o),
(427,-210,c),
(430,-186,l),
(408,-192,o),
(391,-195,o),
(374,-195,cs),
(339,-195,o),
(307,-177,o),
(307,-134,cs),
(307,-85,o),
(352,-32,o),
(397,0,c),
(384,18,l),
(336,-18,o),
(281,-78,o),
(281,-139,cs),
(281,-194,o),
(325,-218,o),
(374,-218,cs)
);
},
{
ref = E.ss01;
}
);
width = 549;
},
{
background = {
shapes = (
{
alignment = -1;
ref = E.ss01;
},
{
alignment = -1;
pos = (342,0);
ref = ogonek;
}
);
};
layerId = "2B2EB811-521F-412C-AF7C-8DB707505A49";
shapes = (
{
closed = 1;
nodes = (
(428,-218,o),
(452,-215,o),
(467,-211,c),
(476,-126,l),
(461,-131,o),
(447,-134,o),
(432,-134,cs),
(401,-134,o),
(379,-112,o),
(383,-80,cs),
(388,-29,o),
(456,57,o),
(463,66,c),
(430,86,l),
(422,78,o),
(302,-33,o),
(295,-104,cs),
(287,-181,o),
(342,-218,o),
(414,-218,cs)
);
},
{
alignment = -1;
ref = E.ss01;
}
);
width = 572;
},
{
layerId = "DFD58E85-E3C3-490B-B779-464E2464870B";
shapes = (
{
closed = 1;
nodes = (
(422,-219,o),
(455,-215,o),
(474,-210,c),
(488,-117,l),
(476,-121,o),
(459,-124,o),
(443,-124,cs),
(413,-124,o),
(398,-109,o),
(398,-87,cs),
(398,-39,o),
(476,52,o),
(491,69,c),
(438,95,l),
(405,66,o),
(281,-33,o),
(281,-121,cs),
(281,-184,o),
(331,-219,o),
(401,-219,cs)
);
},
{
alignment = -1;
ref = E.ss01;
}
);
width = 596;
}
);
},
{
glyphname = G.ss01;
kernLeft = O_2nd;
kernRight = H_1st;
layers = (
{
anchors = (
{
name = bottom;
pos = (347,0);
},
{
name = top;
pos = (427,700);
}
);
layerId = "F0CAE04A-D5A8-412F-B560-CC5EB0DB4883";
shapes = (
{
closed = 1;
nodes = (
(555,-239,l),
(648,352,l),
(476,352,l),
(472,328,l),
(616,328,l),
(568,24,l),
(388,24,ls),
(224,24,o),
(103,161,o),
(103,318,cs),
(103,559,o),
(295,677,o),
(490,677,cs),
(680,677,l),
(684,700,l),
(491,700,ls),
(248,700,o),
(75,542,o),
(75,318,cs),
(75,154,o),
(198,0,o),
(381,0,cs),
(565,0,l),
(527,-239,l)
);
}
);
width = 714;
},
{
anchors = (
{
name = bottom;
pos = (283,0);
},
{
name = top;
pos = (419,700);
}
);
background = {
shapes = (
{
closed = 1;
nodes = (
(660,574,l),
(680,700,l),
(460,700,l),
(443,574,l)
);
},
{
closed = 1;
nodes = (
(451,0,l),
(419,-203,l),
(562,-203,l),
(658,405,l),
(392,405,l),
(372,279,l),
(495,279,l),
(471,126,l),
(373,126,l),
(350,0,l)
);
},
{
closed = 1;
nodes = (
(313,-119,l),
(461,820,l),
(365,820,l),
(217,-119,l)
);
},
{
closed = 1;
nodes = (
(443,0,l),
(463,126,l),
(377,126,ls),
(266,126,o),
(171,190,o),
(171,325,cs),
(171,479,o),
(269,574,o),
(400,574,cs),
(533,574,l),
(553,700,l),
(414,700,ls),
(206,700,o),
(29,565,o),
(29,326,cs),
(29,123,o),
(167,0,o),
(359,0,cs)
);
}
);
};
layerId = "2B2EB811-521F-412C-AF7C-8DB707505A49";
shapes = (
{
closed = 1;
nodes = (
(562,-203,l),
(658,405,l),
(392,405,l),
(372,279,l),
(495,279,l),
(471,126,l),
(377,126,ls),
(266,126,o),
(171,191,o),
(171,326,cs),
(171,480,o),
(269,574,o),
(400,574,cs),
(660,574,l),
(680,700,l),
(414,700,ls),
(206,700,o),
(29,563,o),
(29,324,cs),
(29,124,o),
(163,0,o),
(350,0,cs),
(451,0,l),
(419,-203,l)
);
}
);
width = 698;
},
{
anchors = (
{
name = bottom;
pos = (274,0);
},
{
name = top;
pos = (435,700);
}
);
layerId = "DFD58E85-E3C3-490B-B779-464E2464870B";
shapes = (
{
closed = 1;
nodes = (
(613,-203,l),
(711,419,l),
(407,419,l),
(381,254,l),
(481,254,l),
(467,165,l),
(394,165,ls),
(305,165,o),
(261,230,o),
(261,324,cs),
(261,441,o),
(331,535,o),
(447,535,cs),
(698,535,l),
(724,700,l),
(456,700,ls),
(213,700,o),
(39,541,o),
(39,304,cs),
(39,131,o),
(160,0,o),
(365,0,cs),
(441,0,l),
(409,-203,l)
);
}
);
width = 729;
}
);
},
{
glyphname = J.ss01;
kernLeft = J_2nd;
kernRight = H_1st;
layers = (
{
anchors = (
{
name = bottom;
pos = (180,0);
},
{
name = top;
pos = (311,700);
}
);
background = {
shapes = (
{
closed = 1;
nodes = (
(165,0,ls),
(261,0,o),
(324,59,o),
(339,154,cs),
(425,700,l),
(202,700,l),
(198,677,l),
(396,677,l),
(313,149,ls),
(302,74,o),
(248,23,o),
(167,23,cs),
(9,23,l),
(5,0,l)
);
}
);
};
layerId = "F0CAE04A-D5A8-412F-B560-CC5EB0DB4883";
shapes = (
{
closed = 1;
nodes = (
(165,0,ls),
(261,0,o),
(324,59,o),
(339,154,cs),
(425,700,l),
(202,700,l),
(198,677,l),
(396,677,l),
(313,149,ls),
(301,74,o),
(248,23,o),
(167,23,cs),
(9,23,l),
(5,0,l)
);
}
);
width = 440;
},
{
anchors = (
{
name = bottom;
pos = (211,0);
},
{
name = top;
pos = (335,700);
}
);
layerId = "2B2EB811-521F-412C-AF7C-8DB707505A49";
shapes = (
{
closed = 1;
nodes = (
(180,0,ls),
(322,0,o),
(400,73,o),
(421,209,cs),
(498,700,l),
(177,700,l),
(157,573,l),
(335,573,l),
(275,192,ls),
(268,146,o),
(236,126,o),
(200,126,cs),
(0,126,l),
(-20,0,l)
);
}
);
width = 501;
},
{
anchors = (
{
name = bottom;
pos = (194,0);
},
{
name = top;
pos = (317,700);
}
);
background = {
shapes = (
{
closed = 1;
nodes = (
(157,0,ls),
(291,0,o),
(403,93,o),
(424,219,cs),
(499,700,l),
(142,700,l),
(116,531,l),
(264,531,l),
(212,207,ls),
(209,185,o),
(190,168,o),
(164,168,cs),
(10,168,l),
(-17,0,l)
);
}
);
};
layerId = "DFD58E85-E3C3-490B-B779-464E2464870B";
shapes = (
{
closed = 1;
nodes = (
(181,0,ls),
(301,0,o),
(402,84,o),
(420,196,cs),
(499,700,l),
(142,700,l),
(116,531,l),
(264,531,l),
(212,207,ls),
(208,185,o),
(190,168,o),
(164,168,cs),
(10,168,l),
(-17,0,l)
);
}
);
width = 470;
}
);
},
{
glyphname = K.ss01;
kernLeft = H_2nd;
kernRight = K_1st;
layers = (
{
anchors = (
{
name = bottom;
pos = (269,0);
},
{
name = top;
pos = (389,700);
}
);
layerId = "F0CAE04A-D5A8-412F-B560-CC5EB0DB4883";
shapes = (
{
closed = 1;
nodes = (
(55,0,l),
(109,345,l),
(361,345,l),
(536,0,l),
(567,0,l),
(381,358,l),
(649,700,l),
(618,700,l),
(359,368,l),
(113,368,l),
(165,700,l),
(140,700,l),
(30,0,l)
);
}
);
width = 637;
},
{
anchors = (
{
name = bottom;
pos = (319,0);
},
{
name = top;
pos = (416,700);
}
);
background = {
shapes = (
{
closed = 1;
nodes = (
(173,0,l),
(219,293,l),
(345,293,l),
(481,0,l),
(651,0,l),
(473,364,l),
(755,700,l),
(590,700,l),
(362,419,l),
(239,419,l),
(283,700,l),
(140,700,l),
(30,0,l)
);
}
);
};
layerId = "2B2EB811-521F-412C-AF7C-8DB707505A49";
shapes = (
{
closed = 1;
nodes = (
(173,0,l),
(221,307,l),
(338,307,l),
(481,0,l),
(646,0,l),
(466,357,l),
(761,700,l),
(585,700,l),
(349,404,l),
(236,404,l),
(283,700,l),
(140,700,l),
(30,0,l)
);
}
);
width = 691;
},
{
anchors = (
{
name = bottom;
pos = (335,0);
},
{
name = top;
pos = (436,700);
}
);
background = {
shapes = (
{
closed = 1;
nodes = (
(220,0,l),
(262,269,l),
(364,269,l),
(452,0,l),
(688,0,l),
(556,373,l),
(782,700,l),
(549,700,l),
(380,438,l),
(289,438,l),
(330,700,l),
(114,700,l),
(4,0,l)
);
}
);
};
layerId = "DFD58E85-E3C3-490B-B779-464E2464870B";
shapes = (
{
closed = 1;
nodes = (
(220,0,l),
(262,269,l),
(364,269,l),
(452,0,l),
(679,0,l),
(556,373,l),
(782,700,l),
(549,700,l),
(376,438,l),
(289,438,l),
(330,700,l),
(114,700,l),
(4,0,l)
);
}
);
width = 732;
}
);
},
{
glyphname = L.ss01;
kernLeft = H_2nd;
kernRight = L_1st;
layers = (
{
anchors = (
{
name = bottom;
pos = (138,0);
},
{
name = center;
pos = (193,350);
},
{
name = top;
pos = (169,700);
},
{
name = topright;
pos = (277,510);
}
);
background = {
hints = (
{
place = (58, 143);
place = (58, 143);
type = Stem;
},
{
horizontal = 1;
place = (0, 126);
place = (0, 126);
type = Stem;
},
{
horizontal = 1;
place = (700, -20);
target = down;
type = TopGhost;
}
);
shapes = (
{
closed = 1;
nodes = (
(237,0,l),
(241,23,l),
(190,23,ls),
(105,23,o),
(79,61,o),
(94,156,cs),
(180,700,l),
(155,700,l),
(70,159,ls),
(52,46,o),
(87,0,o),
(196,0,cs)
);
}
);
};
layerId = "F0CAE04A-D5A8-412F-B560-CC5EB0DB4883";
shapes = (
{
closed = 1;
nodes = (
(237,0,l),
(241,23,l),
(190,23,ls),
(122,23,o),
(90,47,o),
(90,103,cs),
(90,122,o),
(92,144,o),
(95,161,cs),
(180,699,l),
(155,699,l),
(71,166,ls),
(68,146,o),
(65,122,o),
(65,105,cs),
(65,31,o),
(107,0,o),
(196,0,cs)
);
}
);
width = 306;
},
{
anchors = (
{
name = bottom;
pos = (138,0);
},
{
name = center;
pos = (193,350);
},
{
name = top;
pos = (200,700);
},
{
name = topright;
pos = (279,508);
}
);
background = {
hints = (
{
place = (4, 89);
place = (4, 89);
type = Stem;
},
{
place = (489, 89);
place = (489, 89);
type = Stem;
},
{
horizontal = 1;
place = (-54, 72);
place = (-54, 72);
type = Stem;
},
{
horizontal = 1;
place = (519, 73);
place = (519, 73);
type = Stem;
}
);
shapes = (
{
closed = 1;
nodes = (
(296,0,l),
(316,126,l),
(246,126,ls),
(198,126,o),
(185,156,o),
(191,192,cs),
(271,700,l),
(128,700,l),
(51,209,ls),
(33,94,o),
(79,0,o),
(226,0,cs)
);
}
);
};
layerId = "2B2EB811-521F-412C-AF7C-8DB707505A49";
shapes = (
{
closed = 1;
nodes = (
(296,0,l),
(316,126,l),
(241,126,ls),
(200,126,o),
(190,146,o),
(190,172,cs),
(190,181,o),
(192,195,o),
(193,204,cs),
(271,700,l),
(128,700,l),
(53,220,ls),
(51,204,o),
(47,176,o),
(47,154,cs),
(47,69,o),
(99,0,o),
(226,0,cs)
);
}
);
width = 356;
},
{
anchors = (
{
name = bottom;
pos = (168,0);
},
{
name = center;
pos = (223,350);
},
{
name = top;
pos = (223,700);
},
{
name = topright;
pos = (402,516);
}
);
background = {
hints = (
{
place = (58, 143);
place = (58, 143);
type = Stem;
},
{
place = (543, 143);
place = (543, 143);
type = Stem;
},
{
horizontal = 1;
place = (0, 126);
place = (0, 126);
type = Stem;
},
{
horizontal = 1;
place = (573, 127);
place = (573, 127);
type = Stem;
}
);
shapes = (
{
closed = 1;
nodes = (
(329,0,l),
(356,169,l),
(283,169,ls),
(256,169,o),
(247,191,o),
(251,217,cs),
(327,700,l),
(111,700,l),
(35,219,ls),
(16,99,o),
(87,0,o),
(229,0,cs)
);
}
);
};
layerId = "DFD58E85-E3C3-490B-B779-464E2464870B";
shapes = (
{
closed = 1;
nodes = (
(329,0,l),
(356,169,l),
(287,169,ls),
(263,169,o),
(250,180,o),
(250,202,cs),
(250,210,o),
(252,221,o),
(254,234,cs),
(327,700,l),
(111,700,l),
(41,255,ls),
(38,237,o),
(33,199,o),
(33,175,cs),
(33,73,o),
(97,0,o),
(221,0,cs)
);
}
);
width = 417;
}
);
},
{
glyphname = Lslash.ss01;
kernLeft = H_2nd;
kernRight = L_1st;
layers = (
{
background = {
shapes = (
{
closed = 1;
nodes = (
(324,424,l),
(324,448,l),
(1,371,l),
(1,347,l)
);
}
);
};
layerId = "F0CAE04A-D5A8-412F-B560-CC5EB0DB4883";
shapes = (
{
closed = 1;
nodes = (
(324,424,l),
(324,448,l),
(1,371,l),
(1,347,l)
);
},
{
ref = L.ss01;
}
);
width = 356;
},
{
background = {
shapes = (
{
closed = 1;
nodes = (
(289,396,l),
(302,475,l),
(20,381,l),
(7,302,l)
);
}
);
};
layerId = "2B2EB811-521F-412C-AF7C-8DB707505A49";
shapes = (
{
closed = 1;
nodes = (
(342,402,l),
(354,486,l),
(19,375,l),
(7,291,l)
);
},
{
ref = L.ss01;
}
);
width = 356;
},
{
layerId = "DFD58E85-E3C3-490B-B779-464E2464870B";
shapes = (
{
closed = 1;
nodes = (
(389,399,l),
(407,516,l),
(14,405,l),
(-4,288,l)
);
},
{
alignment = -1;
ref = L.ss01;
}
);
width = 417;
}
);
},
{
glyphname = M.ss01;
kernLeft = H_2nd;
kernRight = P_1st;
layers = (
{
anchors = (
{
name = bottom;
pos = (507,0);
},
{
name = top;
pos = (617,700);
}
);
background = {
anchors = (
{
name = bottom;
pos = (507,0);
},
{
name = top;
pos = (617,700);
}
);
guides = (
{
angle = 81.0274;
pos = (430,350);
}
);
hints = (
{
place = (60, 143);
place = (60, 143);
type = Stem;
},
{
place = (334, 143);
place = (334, 143);
type = Stem;
},
{
place = (608, 143);
place = (608, 143);
type = Stem;
},
{
place = (882, 143);
place = (882, 143);
type = Stem;
},
{
horizontal = 1;
place = (54, 126);
place = (54, 126);
type = Stem;
},
{
horizontal = 1;
place = (586, 126);
place = (586, 126);
type = Stem;
},
{
horizontal = 1;
place = (0, 21);
target = up;
type = BottomGhost;
},
{
place = (60, 143);
place = (60, 143);
type = Stem;
},
{
place = (334, 143);
place = (334, 143);
type = Stem;
},
{
place = (608, 143);
place = (608, 143);
type = Stem;
},
{
place = (882, 143);
place = (882, 143);
type = Stem;
},
{
horizontal = 1;
place = (-11, 126);
place = (-11, 126);
type = Stem;
},
{
horizontal = 1;
place = (586, 126);
place = (586, 126);
type = Stem;
}
);
shapes = (
{
closed = 1;
nodes = (
(75,1,l),
(160,555,ls),
(172,634,o),
(239,690,o),
(312,690,cs),
(391,690,o),
(449,624,o),
(436,541,cs),
(390,257,ls),
(372,149,o),
(437,77,o),
(532,77,cs),
(620,77,o),
(691,141,o),
(706,241,cs),
(753,555,ls),
(765,634,o),
(830,690,o),
(905,690,cs),
(987,690,o),
(1042,625,o),
(1029,541,cs),
(944,1,l),
(969,1,l),
(1053,533,ls),
(1070,639,o),
(1008,713,o),
(907,713,cs),
(817,713,o),
(742,649,o),
(727,550,cs),
(680,235,ls),
(668,154,o),
(603,100,o),
(533,100,cs),
(459,100,o),
(399,161,o),
(414,249,cs),
(460,533,ls),
(476,639,o),
(412,713,o),
(313,713,cs),
(223,713,o),
(149,649,o),
(134,550,cs),
(50,1,l)
);
}
);
};
layerId = "F0CAE04A-D5A8-412F-B560-CC5EB0DB4883";
shapes = (
{
closed = 1;
nodes = (
(619,77,o),
(687,142,o),
(703,243,cs),
(752,555,ls),
(764,634,o),
(829,690,o),
(904,690,cs),
(978,690,o),
(1031,638,o),
(1031,564,cs),
(1031,552,o),
(1028,533,o),
(1026,521,cs),
(943,1,l),
(968,1,l),
(1051,521,ls),
(1053,533,o),
(1056,552,o),
(1056,566,cs),
(1056,654,o),
(996,713,o),
(906,713,cs),
(815,713,o),
(741,650,o),
(726,550,cs),
(679,246,ls),
(665,155,o),
(601,100,o),
(525,100,cs),
(455,100,o),
(413,149,o),
(413,221,cs),
(413,236,o),
(415,255,o),
(417,269,cs),
(457,521,ls),
(459,533,o),
(462,552,o),
(462,566,cs),
(462,654,o),
(400,713,o),
(311,713,cs),
(220,713,o),
(147,649,o),
(132,550,cs),
(47,1,l),
(72,1,l),
(158,555,ls),
(170,634,o),
(236,690,o),
(310,690,cs),
(382,690,o),
(437,636,o),
(437,564,cs),
(437,552,o),
(434,533,o),
(432,521,cs),
(393,277,ls),
(390,259,o),
(388,237,o),
(388,221,cs),
(388,135,o),
(443,77,o),
(525,77,cs)
);
}
);
width = 1094;
},
{
anchors = (
{
name = bottom;
pos = (503,0);
},
{
name = top;
pos = (613,700);
}
);
background = {
anchors = (
{
name = bottom;
pos = (503,0);
},
{
name = top;
pos = (613,700);
}
);
guides = (
{
angle = 80.9689;
pos = (491,345);
}
);
hints = (
{
place = (60, 143);
place = (60, 143);
type = Stem;
},
{
place = (334, 143);
place = (334, 143);
type = Stem;
},
{
place = (608, 143);
place = (608, 143);
type = Stem;
},
{
place = (882, 143);
place = (882, 143);
type = Stem;
},
{
horizontal = 1;
place = (54, 126);
place = (54, 126);
type = Stem;
},
{
horizontal = 1;
place = (586, 126);
place = (586, 126);
type = Stem;
},
{
horizontal = 1;
place = (0, 21);
target = up;
type = BottomGhost;
},
{
place = (60, 143);
place = (60, 143);
type = Stem;
},
{
place = (334, 143);
place = (334, 143);
type = Stem;
},
{
place = (608, 143);
place = (608, 143);
type = Stem;
},
{
place = (882, 143);
place = (882, 143);
type = Stem;
},
{
horizontal = 1;
place = (-11, 126);
place = (-11, 126);
type = Stem;
},
{
horizontal = 1;
place = (586, 126);
place = (586, 126);
type = Stem;
},
{
place = (60, 143);
place = (60, 143);
type = Stem;
},
{
place = (334, 143);
place = (334, 143);
type = Stem;
},
{
place = (608, 143);
place = (608, 143);
type = Stem;
},
{
horizontal = 1;
place = (-12, 126);
place = (-12, 126);
type = Stem;
},
{
horizontal = 1;
place = (586, 126);
place = (586, 126);
type = Stem;
}
);
shapes = (
{
closed = 1;
nodes = (
(163,0,l),
(245,523,ls),
(250,557,o),
(281,586,o),
(315,586,cs),
(353,586,o),
(381,555,o),
(375,517,cs),
(336,272,ls),
(317,151,o),
(400,54,o),
(520,54,cs),
(642,54,o),
(734,140,o),
(752,251,cs),
(795,523,ls),
(800,557,o),
(832,586,o),
(864,586,cs),
(899,586,o),
(931,558,o),
(924,517,cs),
(842,0,l),
(985,0,l),
(1063,494,ls),
(1082,616,o),
(1001,713,o),
(878,713,cs),
(766,713,o),
(669,627,o),
(651,515,cs),
(607,243,ls),
(602,209,o),
(569,180,o),
(535,180,cs),
(497,180,o),
(471,211,o),
(477,249,cs),
(514,494,ls),
(532,616,o),
(450,713,o),
(328,713,cs),
(214,713,o),
(119,628,o),
(101,515,cs),
(20,0,l)
);
}
);
};
layerId = "2B2EB811-521F-412C-AF7C-8DB707505A49";
shapes = (
{
closed = 1;
nodes = (
(653,54,o),
(731,132,o),
(752,263,cs),
(793,520,ls),
(799,560,o),
(827,586,o),
(868,586,cs),
(901,586,o),
(924,563,o),
(924,531,cs),
(924,525,o),
(923,514,o),
(922,508,cs),
(842,0,l),
(985,0,l),
(1063,497,ls),
(1065,510,o),
(1067,525,o),
(1067,539,cs),
(1067,637,o),
(1000,712,o),
(885,712,cs),
(744,712,o),
(668,636,o),
(647,503,cs),
(606,246,ls),
(600,207,o),
(571,180,o),
(530,180,cs),
(498,180,o),
(474,199,o),
(474,233,cs),
(474,240,o),
(475,248,o),
(477,260,cs),
(515,496,ls),
(517,510,o),
(519,524,o),
(519,539,cs),
(519,637,o),
(452,712,o),
(337,712,cs),
(196,712,o),
(120,637,o),
(99,503,cs),
(20,0,l),
(163,0,l),
(245,520,ls),
(251,561,o),
(279,586,o),
(320,586,cs),
(353,586,o),
(376,563,o),
(376,532,cs),
(376,524,o),
(375,514,o),
(374,506,cs),
(337,275,ls),
(334,257,o),
(332,242,o),
(332,227,cs),
(332,129,o),
(399,54,o),
(512,54,cs)
);
}
);
width = 1085;
},
{
anchors = (
{
name = bottom;
pos = (536,0);
},
{
name = top;
pos = (647,700);
}
);
background = {
anchors = (
{
name = bottom;
pos = (536,0);
},
{
name = top;
pos = (647,700);
}
);
guides = (
{
angle = 80.8909;
pos = (550,345);
}
);
hints = (
{
place = (6.75, 130.25);
place = (6.75, 130.25);
type = Stem;
},
{
place = (75.25, 130.25);
place = (75.25, 130.25);
type = Stem;
},
{
place = (192.5, 130.25);
place = (192.5, 130.25);
type = Stem;
},
{
place = (660, 130.25);
place = (660, 130.25);
type = Stem;
},
{
horizontal = 1;
place = (453, 126);
place = (453, 126);
type = Stem;
},
{
horizontal = 1;
place = (586, 126);
place = (586, 126);
type = Stem;
},
{
horizontal = 1;
place = (0, 21);
target = up;
type = BottomGhost;
},
{
place = (60, 143);
place = (60, 143);
type = Stem;
},
{
place = (334, 143);
place = (334, 143);
type = Stem;
},
{
place = (608, 143);
place = (608, 143);
type = Stem;
},
{
place = (882, 143);
place = (882, 143);
type = Stem;
},
{
horizontal = 1;
place = (-11, 126);
place = (-11, 126);
type = Stem;
},
{
horizontal = 1;
place = (586, 126);
place = (586, 126);
type = Stem;
}
);
shapes = (
{
closed = 1;
nodes = (
(207,0,l),
(283,486,ls),
(287,512,o),
(308,528,o),
(332,528,cs),
(355,528,o),
(370,512,o),
(366,486,cs),
(335,289,ls),
(313,149,o),
(412,53,o),
(555,53,cs),
(679,53,o),
(805,129,o),
(827,271,cs),
(861,489,ls),
(865,512,o),
(886,528,o),
(909,528,cs),
(930,528,o),
(948,512,o),
(944,489,cs),
(867,0,l),
(1072,0,l),
(1147,476,ls),
(1169,614,o),
(1070,713,o),
(928,713,cs),
(796,713,o),
(677,628,o),
(656,494,cs),
(622,279,ls),
(618,252,o),
(595,237,o),
(573,237,cs),
(553,237,o),
(535,252,o),
(539,279,cs),
(571,476,ls),
(594,615,o),
(493,713,o),
(351,713,cs),
(219,713,o),
(99,630,o),
(78,494,cs),
(1,0,l)
);
}
);
};
layerId = "DFD58E85-E3C3-490B-B779-464E2464870B";
shapes = (
{
closed = 1;
nodes = (
(679,53,o),
(805,129,o),
(827,271,cs),
(861,489,ls),
(865,512,o),
(886,528,o),
(909,528,cs),
(928,528,o),
(943,515,o),
(943,496,cs),
(943,488,o),
(942,480,o),
(941,474,cs),
(867,0,l),
(1072,0,l),
(1145,463,ls),
(1147,476,o),
(1150,496,o),
(1150,514,cs),
(1150,632,o),
(1057,713,o),
(928,713,cs),
(796,713,o),
(677,628,o),
(656,494,cs),
(622,279,ls),
(618,252,o),
(600,237,o),
(574,237,cs),
(555,237,o),
(539,249,o),
(539,271,cs),
(539,278,o),
(540,285,o),
(541,292,cs),
(569,463,ls),
(571,476,o),
(574,496,o),
(574,514,cs),
(574,632,o),
(480,713,o),
(351,713,cs),
(219,713,o),
(99,630,o),
(78,494,cs),
(1,0,l),
(207,0,l),
(283,486,ls),
(287,512,o),
(308,528,o),
(332,528,cs),
(352,528,o),
(366,515,o),
(366,496,cs),
(366,488,o),
(365,480,o),
(364,474,cs),
(337,301,ls),
(335,288,o),
(332,261,o),
(332,244,cs),
(332,128,o),
(425,53,o),
(555,53,cs)
);
}
);
width = 1153;
}
);
metricLeft = M;
metricRight = M;
},
{
glyphname = N.ss01;
kernLeft = H_2nd;
kernRight = P_1st;
layers = (
{
anchors = (
{
name = bottom;
pos = (303,0);
},
{
name = top;
pos = (404,700);
}
);
background = {
anchors = (
{
name = bottom;
pos = (303,0);
},
{
name = ogonek;
pos = (578,10);
},
{
name = top;
pos = (404,700);
}
);
hints = (
{
place = (65, 143);
place = (65, 143);
type = Stem;
},
{
place = (504, 143);
place = (504, 143);
type = Stem;
},
{
horizontal = 1;
place = (189, 126);
place = (189, 126);
type = Stem;
},
{
horizontal = 1;
place = (586, 126);
place = (586, 126);
type = Stem;
},
{
horizontal = 1;
place = (0, 21);
target = up;
type = BottomGhost;
}
);
};
layerId = "F0CAE04A-D5A8-412F-B560-CC5EB0DB4883";
shapes = (
{
closed = 1;
nodes = (
(70,0,l),
(139,438,ls),
(162,585,o),
(256,690,o),
(401,690,cs),
(535,690,o),
(609,612,o),
(609,488,cs),
(609,469,o),
(605,442,o),
(602,422,cs),
(535,0,l),
(560,0,l),
(626,415,ls),
(629,435,o),
(634,466,o),
(634,489,cs),
(634,628,o),
(544,713,o),
(404,713,cs),
(254,713,o),
(141,609,o),
(115,442,cs),
(45,0,l)
);
}
);
width = 686;
},
{
anchors = (
{
name = bottom;
pos = (316,0);
},
{
name = top;
pos = (419,700);
}
);
background = {
hints = (
{
place = (65, 143);
place = (65, 143);
type = Stem;
},
{
place = (504, 143);
place = (504, 143);
type = Stem;
},
{
horizontal = 1;
place = (189, 126);
place = (189, 126);
type = Stem;
},
{
horizontal = 1;
place = (586, 126);
place = (586, 126);
type = Stem;
},
{
horizontal = 1;
place = (0, 21);
target = up;
type = BottomGhost;
},
{
place = (663, -143);
place = (663, -143);
type = Stem;
},
{
place = (224, -143);
place = (224, -143);
type = Stem;
},
{
horizontal = 1;
place = (712, -126);
place = (712, -126);
type = Stem;
},
{
horizontal = 1;
place = (0, 21);
target = up;
type = BottomGhost;
}
);
shapes = (
{
closed = 1;
nodes = (
(169,0,l),
(237,433,ls),
(251,522,o),
(310,588,o),
(405,586,cs),
(500,584,o),
(543,517,o),
(529,428,cs),
(462,0,l),
(605,0,l),
(672,412,ls),
(701,590,o),
(588,709,o),
(420,712,cs),
(240,715,o),
(123,615,o),
(93,428,cs),
(25,0,l)
);
}
);
};
layerId = "2B2EB811-521F-412C-AF7C-8DB707505A49";
shapes = (
{
closed = 1;
nodes = (
(168,0,l),
(236,426,ls),
(252,529,o),
(308,586,o),
(401,586,cs),
(480,586,o),
(534,544,o),
(534,468,cs),
(534,456,o),
(532,433,o),
(530,421,cs),
(464,0,l),
(607,0,l),
(672,412,ls),
(675,432,o),
(678,455,o),
(678,480,cs),
(678,624,o),
(576,712,o),
(409,712,cs),
(233,712,o),
(123,615,o),
(95,441,cs),
(25,0,l)
);
}
);
width = 712;
},
{
anchors = (
{
name = bottom;
pos = (314,0);
},
{
name = top;
pos = (415,700);
}
);
background = {
anchors = (
{
name = bottom;
pos = (314,0);
},
{
name = ogonek;
pos = (599,10);
},
{
name = top;
pos = (415,700);
}
);
hints = (
{
place = (158, 130.25);
place = (158, 130.25);
type = Stem;
},
{
place = (431.25, -58.75);
place = (431.25, -58.75);
type = Stem;
},
{
horizontal = 1;
place = (486.75, 126);
place = (486.75, 126);
type = Stem;
},
{
horizontal = 1;
place = (680.5, -63);
place = (680.5, -63);
type = Stem;
},
{
horizontal = 1;
place = (525, 21);
target = up;
type = BottomGhost;
}
);
shapes = (
{
closed = 1;
nodes = (
(214,0,l),
(281,434,ls),
(290,497,o),
(334,539,o),
(393,539,cs),
(457,539,o),
(492,488,o),
(481,422,cs),
(414,0,l),
(626,0,l),
(690,404,ls),
(718,590,o),
(593,713,o),
(406,713,cs),
(236,713,o),
(97,609,o),
(70,437,cs),
(2,0,l)
);
}
);
};
layerId = "DFD58E85-E3C3-490B-B779-464E2464870B";
shapes = (
{
closed = 1;
nodes = (
(214,0,l),
(281,434,ls),
(291,497,o),
(334,539,o),
(393,539,cs),
(449,539,o),
(483,503,o),
(483,448,cs),
(483,437,o),
(481,419,o),
(479,409,cs),
(414,0,l),
(626,0,l),
(688,393,ls),
(691,411,o),
(694,437,o),
(694,458,cs),
(694,615,o),
(578,713,o),
(409,713,cs),
(239,713,o),
(97,609,o),
(70,437,cs),
(2,0,l)
);
}
);
width = 709;
}
);
},
{
glyphname = Eng.ss01;
kernLeft = H_2nd;
kernRight = H_1st;
layers = (
{
anchors = (
{
name = bottom;
pos = (303,0);
},
{
name = top;
pos = (413,700);
}
);
layerId = "F0CAE04A-D5A8-412F-B560-CC5EB0DB4883";
shapes = (
{
closed = 1;
nodes = (
(379,-216,ls),
(470,-216,o),
(534,-161,o),
(548,-71,cs),
(626,415,ls),
(629,435,o),
(634,466,o),
(634,489,cs),
(634,628,o),
(544,713,o),
(404,713,cs),
(254,713,o),
(141,609,o),
(115,442,cs),
(45,0,l),
(70,0,l),
(139,438,ls),
(162,585,o),
(256,690,o),
(401,690,cs),
(535,690,o),
(609,612,o),
(609,488,cs),
(609,469,o),
(605,442,o),
(602,422,cs),
(525,-61,ls),
(512,-146,o),
(463,-193,o),
(377,-193,cs),
(342,-193,l),
(337,-216,l)
);
}
);
width = 686;
},
{
anchors = (
{
name = bottom;
pos = (316,0);
},
{
name = top;
pos = (426,700);
}
);
layerId = "2B2EB811-521F-412C-AF7C-8DB707505A49";
shapes = (
{
closed = 1;
nodes = (
(396,-216,ls),
(526,-216,o),
(584,-143,o),
(603,-26,cs),
(672,412,ls),
(675,432,o),
(678,455,o),
(678,480,cs),
(678,624,o),
(576,712,o),
(409,712,cs),
(233,712,o),
(123,615,o),
(95,441,cs),
(25,0,l),
(168,0,l),
(236,426,ls),
(252,529,o),
(308,586,o),
(401,586,cs),
(480,586,o),
(534,544,o),
(534,468,cs),
(534,456,o),
(532,433,o),
(530,421,cs),
(462,-13,ls),
(454,-66,o),
(428,-88,o),
(384,-88,cs),
(318,-88,l),
(298,-216,l)
);
}
);
width = 713;
},
{
anchors = (
{
name = bottom;
pos = (314,0);
},
{
name = top;
pos = (425,700);
}
);
layerId = "DFD58E85-E3C3-490B-B779-464E2464870B";
shapes = (
{
closed = 1;
nodes = (
(387,-216,ls),
(523,-216,o),
(607,-122,o),
(625,-6,cs),
(688,393,ls),
(691,411,o),
(694,437,o),
(694,458,cs),
(694,615,o),
(578,713,o),
(409,713,cs),
(239,713,o),
(97,609,o),
(70,437,cs),
(2,0,l),
(214,0,l),
(281,434,ls),
(291,497,o),
(334,539,o),
(393,539,cs),
(449,539,o),
(483,503,o),
(483,448,cs),
(483,437,o),
(481,419,o),
(479,409,cs),
(411,-19,ls),
(406,-51,o),
(384,-66,o),
(356,-66,cs),
(263,-66,l),
(239,-216,l)
);
}
);
width = 709;
}
);
metricLeft = N.ss01;
metricRight = N.ss01;
},
{
glyphname = O.ss01;
kernLeft = O_2nd;
kernRight = O.alt1_1st;
layers = (
{
anchors = (
{
name = bottom;
pos = (409,0);
},
{
name = center;
pos = (434,350);
},
{
name = ogonek;
pos = (715,10);
},
{
name = top;
pos = (462,700);
},
{
name = topleft;
pos = (90,700);
},
{
name = topright;
pos = (695,700);
}
);
background = {
shapes = (
{
closed = 1;
nodes = (
(649,-13,o),
(791,172,o),
(791,368,cs),
(791,407,o),
(775,608,o),
(583,677,c),
(869,677,l),
(873,700,l),
(449,700,l),
(219,700,o),
(75,517,o),
(75,320,cs),
(75,272,o),
(99,-13,o),
(418,-13,cs)
);
},
{
closed = 1;
nodes = (
(155,10,o),
(100,229,o),
(100,322,cs),
(100,515,o),
(245,677,o),
(449,677,cs),
(711,677,o),
(766,458,o),
(766,366,cs),
(766,172,o),
(620,10,o),
(417,10,cs)
);
}
);
};
layerId = "F0CAE04A-D5A8-412F-B560-CC5EB0DB4883";
shapes = (
{
closed = 1;
nodes = (
(659,-13,o),
(790,181,o),
(790,366,cs),
(790,499,o),
(724,626,o),
(583,677,c),
(869,677,l),
(873,700,l),
(449,700,ls),
(219,700,o),
(75,517,o),
(75,320,cs),
(75,133,o),
(200,-13,o),
(418,-13,cs)
);
},
{
closed = 1;
nodes = (
(212,10,o),
(101,149,o),
(101,322,cs),
(101,515,o),
(245,677,o),
(449,677,cs),
(662,677,o),
(764,523,o),
(764,364,cs),
(764,190,o),
(641,10,o),
(414,10,cs)
);
}
);
width = 838;
},
{
anchors = (
{
name = bottom;
pos = (391,0);
},
{
name = center;
pos = (416,350);
},
{
name = ogonek;
pos = (482,80);
},
{
name = top;
pos = (440,700);
},
{
name = topleft;
pos = (90,700);
},
{
name = topright;
pos = (663,700);
}
);
background = {
shapes = (
{
pos = (-2,0);
ref = O;
scale = (1,0.9821);
}
);
};
layerId = "2B2EB811-521F-412C-AF7C-8DB707505A49";
shapes = (
{
closed = 1;
nodes = (
(598,-12,o),
(782,127,o),
(782,365,cs),
(782,450,o),
(755,520,o),
(713,574,c),
(820,574,l),
(840,700,l),
(437,700,ls),
(230,700,o),
(46,562,o),
(46,324,cs),
(46,109,o),
(212,-12,o),
(391,-12,cs)
);
},
{
closed = 1;
nodes = (
(288,114,o),
(188,180,o),
(188,327,cs),
(189,476,o),
(290,575,o),
(427,575,cs),
(540,575,o),
(640,509,o),
(640,361,cs),
(640,212,o),
(538,114,o),
(401,114,cs)
);
}
);
width = 801;
},
{
anchors = (
{
name = bottom;
pos = (391,0);
},
{
name = center;
pos = (419,350);
},
{
name = ogonek;
pos = (500,62);
},
{
name = top;
pos = (452,700);
},
{
name = topleft;
pos = (90,700);
},
{
name = topright;
pos = (650,700);
}
);
background = {
shapes = (
{
closed = 1;
nodes = (
(845,531,l),
(872,700,l),
(447,700,l),
(713,531,l)
);
},
{
closed = 1;
nodes = (
(626,-12,o),
(797,148,o),
(797,369,cs),
(797,472,o),
(748,557,o),
(672,617,cs),
(612,665,o),
(537,700,o),
(441,700,cs),
(218,700,o),
(39,540,o),
(39,319,cs),
(39,134,o),
(184,-12,o),
(397,-12,cs)
);
},
{
closed = 1;
nodes = (
(509,159,o),
(404,159,cs),
(324,159,o),
(256,218,o),
(256,326,cs),
(256,434,o),
(327,529,o),
(432,529,cs),
(512,529,o),
(580,470,o),
(580,362,cs),
(580,254,o)
);
}
);
};
layerId = "DFD58E85-E3C3-490B-B779-464E2464870B";
shapes = (
{
closed = 1;
nodes = (
(626,-12,o),
(797,148,o),
(797,369,cs),
(797,430,o),
(780,484,o),
(750,531,c),
(845,531,l),
(872,700,l),
(441,700,ls),
(218,700,o),
(39,540,o),
(39,319,cs),
(39,134,o),
(184,-12,o),
(397,-12,cs)
);
},
{
closed = 1;
nodes = (
(324,159,o),
(256,218,o),
(256,326,cs),
(256,434,o),
(327,529,o),
(432,529,cs),
(512,529,o),
(580,470,o),
(580,362,cs),
(580,254,o),
(509,159,o),
(404,159,cs)
);
}
);
width = 810;
}
);
metricLeft = O;
},
{
glyphname = Oogonek.ss01;
layers = (
{
layerId = "F0CAE04A-D5A8-412F-B560-CC5EB0DB4883";
shapes = (
{
ref = O.ss01;
},
{
closed = 1;
nodes = (
(482,-225,o),
(501,-219,o),
(507,-217,c),
(510,-193,l),
(488,-199,o),
(471,-202,o),
(454,-202,cs),
(419,-202,o),
(387,-184,o),
(387,-141,cs),
(387,-92,o),
(432,-39,o),
(477,-7,c),
(464,11,l),
(416,-25,o),
(361,-85,o),
(361,-146,cs),
(361,-201,o),
(405,-225,o),
(454,-225,cs)
);
}
);
width = 836;
},
{
layerId = "2B2EB811-521F-412C-AF7C-8DB707505A49";
shapes = (
{
ref = O.ss01;
},
{
closed = 1;
nodes = (
(396,-224,o),
(420,-221,o),
(435,-217,c),
(448,-132,l),
(434,-137,o),
(419,-140,o),
(404,-140,cs),
(376,-140,o),
(357,-122,o),
(357,-96,cs),
(357,-47,o),
(437,50,o),
(446,60,c),
(414,80,l),
(385,51,o),
(267,-48,o),
(267,-131,cs),
(267,-194,o),
(317,-224,o),
(382,-224,cs)
);
}
);
width = 799;
},
{
layerId = "DFD58E85-E3C3-490B-B779-464E2464870B";
shapes = (
{
ref = O.ss01;
},
{
closed = 1;
nodes = (
(400,-252,o),
(433,-248,o),
(452,-243,c),
(466,-150,l),
(454,-154,o),
(437,-157,o),
(421,-157,cs),
(391,-157,o),
(376,-142,o),
(376,-120,cs),
(376,-72,o),
(454,19,o),
(469,36,c),
(416,62,l),
(383,33,o),
(259,-66,o),
(259,-154,cs),
(259,-217,o),
(309,-252,o),
(379,-252,cs)
);
}
);
width = 809;
}
);
},
{
glyphname = Q.ss01;
kernLeft = O_2nd;
kernRight = O_1st;
layers = (
{
anchors = (
{
name = bottom;
pos = (379,0);
},
{
name = top;
pos = (489,700);
}
);
background = {
shapes = (
{
closed = 1;
nodes = (
(468,-203,l),
(468,-6,l),
(650,24,o),
(764,172,o),
(764,350,cs),
(764,550,o),
(620,712,o),
(397,712,cs),
(174,712,o),
(30,550,o),
(30,350,cs),
(30,172,o),
(144,24,o),
(326,-6,c),
(326,-203,l)
);
},
{
closed = 1;
nodes = (
(268,114,o),
(173,215,o),
(173,350,cs),
(173,485,o),
(268,586,o),
(397,586,cs),
(526,586,o),
(621,485,o),
(621,350,cs),
(621,215,o),
(526,114,o),
(397,114,cs)
);
}
);
};
layerId = "F0CAE04A-D5A8-412F-B560-CC5EB0DB4883";
shapes = (
{
closed = 1;
nodes = (
(374,-203,l),
(406,0,l),
(381,0,l),
(349,-203,l)
);
},
{
alignment = -1;
ref = O;
}
);
width = 838;
},
{
anchors = (
{
name = bottom;
pos = (361,0);
},
{
name = top;
pos = (471,700);
}
);
background = {
shapes = (
{
closed = 1;
nodes = (
(620,-12,o),
(764,150,o),
(764,350,cs),
(764,550,o),
(620,712,o),
(397,712,cs),
(174,712,o),
(30,550,o),
(30,350,cs),
(30,150,o),
(174,-12,o),
(397,-12,cs)
);
},
{
closed = 1;
nodes = (
(268,114,o),
(173,215,o),
(173,350,cs),
(173,485,o),
(268,586,o),
(397,586,cs),
(526,586,o),
(621,485,o),
(621,350,cs),
(621,215,o),
(526,114,o),
(397,114,cs)
);
},
{
closed = 1;
nodes = (
(326,10,l),
(326,-203,l),
(468,-203,l),
(468,10,l)
);
}
);
};
layerId = "2B2EB811-521F-412C-AF7C-8DB707505A49";
shapes = (
{
closed = 1;
nodes = (
(418,-203,l),
(452,10,l),
(310,10,l),
(276,-203,l)
);
},
{
ref = O;
}
);
width = 801;
},
{
anchors = (
{
name = bottom;
pos = (364,0);
},
{
name = top;
pos = (475,700);
}
);
layerId = "DFD58E85-E3C3-490B-B779-464E2464870B";
shapes = (
{
closed = 1;
nodes = (
(469,-203,l),
(505,24,l),
(290,24,l),
(254,-203,l)
);
},
{
alignment = -1;
ref = O;
}
);
width = 810;
}
);
metricLeft = O;
metricRight = O;
},
{
glyphname = R.ss01;
kernLeft = H_2nd;
kernRight = P_1st;
layers = (
{
anchors = (
{
name = bottom;
pos = (280,0);
},
{
name = top;
pos = (381,700);
}
);
background = {
shapes = (
{
closed = 1;
nodes = (
(553,313,o),
(627,391,o),
(642,490,cs),
(662,616,o),
(575,700,o),
(453,700,cs),
(155,700,l),
(45,0,l),
(70,0,l),
(114,281,l),
(381,281,ls),
(400,281,o),
(419,282,o),
(438,286,c),
(450,289,ls)
);
},
{
closed = 1;
nodes = (
(176,677,l),
(445,677,ls),
(553,677,o),
(636,608,o),
(617,490,cs),
(598,372,o),
(497,304,o),
(383,304,cs),
(118,304,l)
);
},
{
closed = 1;
nodes = (
(518,0,l),
(546,0,l),
(455,297,l),
(430,291,l)
);
}
);
};
layerId = "F0CAE04A-D5A8-412F-B560-CC5EB0DB4883";
shapes = (
{
closed = 1;
nodes = (
(70,0,l),
(113,280,l),
(379,280,ls),
(398,280,o),
(417,282,o),
(435,285,c),
(521,0,l),
(547,0,l),
(458,289,l),
(570,317,o),
(643,405,o),
(643,514,cs),
(643,621,o),
(562,700,o),
(452,700,cs),
(155,700,l),
(45,0,l)
);
},
{
closed = 1;
nodes = (
(176,677,l),
(444,677,ls),
(542,677,o),
(618,613,o),
(618,513,cs),
(618,397,o),
(529,303,o),
(381,303,cs),
(117,303,l)
);
}
);
width = 670;
},
{
anchors = (
{
name = bottom;
pos = (298,0);
},
{
name = top;
pos = (401,700);
}
);
background = {
shapes = (
{
closed = 1;
nodes = (
(173,0,l),
(205,202,l),
(357,202,ls),
(363,202,o),
(370,202,o),
(376,202,c),
(455,0,l),
(618,0,l),
(512,238,l),
(585,281,o),
(648,359,o),
(663,451,cs),
(686,598,o),
(590,700,o),
(453,700,cs),
(140,700,l),
(30,0,l)
);
},
{
closed = 1;
nodes = (
(263,574,l),
(416,574,ls),
(483,574,o),
(532,529,o),
(520,451,cs),
(508,373,o),
(446,328,o),
(378,328,cs),
(225,328,l)
);
}
);
};
layerId = "2B2EB811-521F-412C-AF7C-8DB707505A49";
shapes = (
{
closed = 1;
nodes = (
(173,0,l),
(205,202,l),
(350,202,l),
(355,202,o),
(370,202,o),
(376,202,c),
(455,0,l),
(618,0,l),
(514,234,l),
(613,284,o),
(664,384,o),
(664,479,cs),
(664,593,o),
(590,700,o),
(436,700,cs),
(140,700,l),
(30,0,l)
);
},
{
closed = 1;
nodes = (
(263,574,l),
(411,574,ls),
(484,574,o),
(519,522,o),
(519,466,cs),
(519,400,o),
(470,328,o),
(373,328,cs),
(225,328,l)
);
}
);
width = 673;
},
{
anchors = (
{
name = bottom;
pos = (322,0);
},
{
name = top;
pos = (397,700);
}
);
background = {
shapes = (
{
closed = 1;
nodes = (
(205,0,l),
(236,199,l),
(301,199,ls),
(305,199,o),
(309,199,o),
(313,199,c),
(392,0,l),
(634,0,l),
(526,250,l),
(755,401,o),
(699,700,o),
(431,700,cs),
(99,700,l),
(-11,0,l)
);
},
{
closed = 1;
nodes = (
(289,535,l),
(379,535,ls),
(481,535,o),
(463,364,o),
(361,364,cs),
(262,364,l)
);
}
);
};
layerId = "DFD58E85-E3C3-490B-B779-464E2464870B";
shapes = (
{
closed = 1;
nodes = (
(205,0,l),
(236,199,l),
(301,199,ls),
(305,199,o),
(309,199,o),
(313,199,c),
(392,0,l),
(634,0,l),
(518,246,l),
(616,299,o),
(665,392,o),
(665,479,cs),
(665,594,o),
(582,700,o),
(421,700,cs),
(99,700,l),
(-11,0,l)
);
},
{
closed = 1;
nodes = (
(289,535,l),
(379,535,ls),
(426,535,o),
(447,499,o),
(447,461,cs),
(447,415,o),
(416,364,o),
(361,364,cs),
(262,364,l)
);
}
);
width = 690;
}
);
},
{
glyphname = T.ss01;
kernLeft = T_2nd;
kernRight = T_1st;
layers = (
{
anchors = (
{
name = bottom;
pos = (247,0);
},
{
name = center;
pos = (302,350);
},
{
name = top;
pos = (357,700);
}
);
background = {
shapes = (
{
closed = 1;
nodes = (
(35,700,l),
(35,574,l),
(230,574,l),
(230,0,l),
(373,0,l),
(373,574,l),
(568,574,l),
(568,700,l)
);
}
);
};
layerId = "F0CAE04A-D5A8-412F-B560-CC5EB0DB4883";
shapes = (
{
closed = 1;
nodes = (
(261,0,l),
(367,677,l),
(606,677,l),
(610,700,l),
(106,700,l),
(102,677,l),
(342,677,l),
(236,0,l)
);
}
);
width = 574;
},
{
anchors = (
{
name = bottom;
pos = (242,0);
},
{
name = center;
pos = (297,350);
},
{
name = top;
pos = (352,700);
}
);
layerId = "2B2EB811-521F-412C-AF7C-8DB707505A49";
shapes = (
{
closed = 1;
nodes = (
(314,0,l),
(404,574,l),
(599,574,l),
(619,700,l),
(86,700,l),
(66,574,l),
(261,574,l),
(171,0,l)
);
}
);
width = 564;
},
{
anchors = (
{
name = bottom;
pos = (261,0);
},
{
name = center;
pos = (316,350);
},
{
name = top;
pos = (372,700);
}
);
layerId = "DFD58E85-E3C3-490B-B779-464E2464870B";
shapes = (
{
closed = 1;
nodes = (
(372,0,l),
(455,531,l),
(632,531,l),
(659,700,l),
(85,700,l),
(58,531,l),
(240,531,l),
(157,0,l)
);
}
);
width = 604;
}
);
},
{
glyphname = Tbar.ss01;
kernLeft = T_2nd;
kernRight = T_1st;
layers = (
{
layerId = "F0CAE04A-D5A8-412F-B560-CC5EB0DB4883";
shapes = (
{
closed = 1;
nodes = (
(528,406,l),
(532,429,l),
(107,429,l),
(103,406,l)
);
},
{
ref = T.ss01;
}
);
width = 574;
},
{
layerId = "2B2EB811-521F-412C-AF7C-8DB707505A49";
shapes = (
{
closed = 1;
nodes = (
(489,345,l),
(503,433,l),
(116,433,l),
(102,345,l)
);
},
{
ref = T.ss01;
}
);
width = 563;
},
{
layerId = "DFD58E85-E3C3-490B-B779-464E2464870B";
shapes = (
{
closed = 1;
nodes = (
(526,309,l),
(544,424,l),
(119,424,l),
(101,309,l)
);
},
{
alignment = -1;
ref = T.ss01;
}
);
width = 604;
}
);
metricLeft = T.ss01;
},
{
glyphname = Tcedilla.ss01;
kernLeft = T_2nd;
kernRight = T_1st;
layers = (
{
layerId = "F0CAE04A-D5A8-412F-B560-CC5EB0DB4883";
shapes = (
{
closed = 1;
nodes = (
(152,-203,l),
(261,0,l),
(262,10,l),
(243,14,l),
(127,-203,l)
);
},
{
ref = T.ss01;
}
);
width = 574;
},
{
layerId = "2B2EB811-521F-412C-AF7C-8DB707505A49";
shapes = (
{
closed = 1;
nodes = (
(206,-203,l),
(314,0,l),
(316,25,l),
(224,37,l),
(75,-203,l)
);
},
{
alignment = -1;
ref = T.ss01;
}
);
width = 563;
},
{
layerId = "DFD58E85-E3C3-490B-B779-464E2464870B";
shapes = (
{
closed = 1;
nodes = (
(264,-203,l),
(372,0,l),
(375,36,l),
(232,39,l),
(103,-203,l)
);
},
{
alignment = -1;
ref = T.ss01;
}
);
width = 604;
}
);
metricLeft = T.ss01;
},
{
glyphname = W.ss01;
kernLeft = H_2nd;
kernRight = H_1st;
layers = (
{
anchors = (
{
name = bottom;
pos = (507,0);
},
{
name = top;
pos = (617,700);
}
);
background = {
hints = (
{
place = (1043, -143);
place = (1043, -143);
type = Stem;
},
{
place = (769, -143);
place = (769, -143);
type = Stem;
},
{
place = (495, -143);
place = (495, -143);
type = Stem;
},
{
place = (221, -143);
place = (221, -143);
type = Stem;
},
{
horizontal = 1;
place = (711, -126);
place = (711, -126);
type = Stem;
},
{
horizontal = 1;
place = (114, -126);
place = (114, -126);
type = Stem;
},
{
place = (1043, 143);
place = (1043, 143);
type = Stem;
},
{
place = (769, 143);
place = (769, 143);
type = Stem;
},
{
place = (495, 143);
place = (495, 143);
type = Stem;
},
{
place = (221, 143);
place = (221, 143);
type = Stem;
},
{
horizontal = 1;
place = (-12, 126);
place = (-12, 126);
type = Stem;
},
{
horizontal = 1;
place = (585, 126);
place = (585, 126);
type = Stem;
},
{
place = (1043, -143);
place = (1043, -143);
type = Stem;
},
{
place = (769, -143);
place = (769, -143);
type = Stem;
},
{
place = (495, -143);
place = (495, -143);
type = Stem;
},
{
place = (221, -143);
place = (221, -143);
type = Stem;
},
{
horizontal = 1;
place = (711, -126);
place = (711, -126);
type = Stem;
},
{
horizontal = 1;
place = (114, -126);
place = (114, -126);
type = Stem;
}
);
shapes = (
{
closed = 1;
nodes = (
(309,-13,o),
(383,51,o),
(398,150,cs),
(459,544,ls),
(473,634,o),
(539,688,o),
(607,688,cs),
(685,688,o),
(738,627,o),
(724,539,cs),
(665,167,ls),
(648,61,o),
(713,-13,o),
(813,-13,cs),
(904,-13,o),
(977,51,o),
(992,150,cs),
(1077,699,l),
(1052,699,l),
(966,145,ls),
(954,66,o),
(888,10,o),
(814,10,cs),
(734,10,o),
(676,76,o),
(689,159,cs),
(748,531,ls),
(765,639,o),
(700,711,o),
(607,711,cs),
(521,711,o),
(451,647,o),
(435,547,cs),
(372,145,ls),
(360,66,o),
(295,10,o),
(220,10,cs),
(138,10,o),
(82,75,o),
(95,159,cs),
(181,699,l),
(156,699,l),
(71,167,ls),
(54,61,o),
(117,-13,o),
(218,-13,cs)
);
}
);
};
layerId = "F0CAE04A-D5A8-412F-B560-CC5EB0DB4883";
shapes = (
{
closed = 1;
nodes = (
(309,-13,o),
(383,51,o),
(398,150,cs),
(459,544,ls),
(473,634,o),
(537,690,o),
(613,690,cs),
(683,690,o),
(725,641,o),
(725,569,cs),
(725,554,o),
(723,535,o),
(721,521,cs),
(667,179,ls),
(665,167,o),
(662,148,o),
(662,134,cs),
(662,46,o),
(724,-13,o),
(813,-13,cs),
(904,-13,o),
(977,51,o),
(992,150,cs),
(1077,699,l),
(1052,699,l),
(966,145,ls),
(954,66,o),
(888,10,o),
(814,10,cs),
(742,10,o),
(687,64,o),
(687,136,cs),
(687,148,o),
(690,167,o),
(692,179,cs),
(745,513,ls),
(748,531,o),
(750,553,o),
(750,569,cs),
(750,655,o),
(695,713,o),
(613,713,cs),
(519,713,o),
(451,647,o),
(435,547,cs),
(372,145,ls),
(360,66,o),
(295,10,o),
(220,10,cs),
(146,10,o),
(93,62,o),
(93,136,cs),
(93,148,o),
(96,167,o),
(98,179,cs),
(181,699,l),
(156,699,l),
(73,179,ls),
(71,167,o),
(68,148,o),
(68,134,cs),
(68,46,o),
(128,-13,o),
(218,-13,cs)
);
}
);
width = 1094;
},
{
anchors = (
{
name = bottom;
pos = (503,0);
},
{
name = top;
pos = (613,700);
}
);
background = {
anchors = (
{
name = bottom;
pos = (502,0);
},
{
name = top;
pos = (612,700);
}
);
hints = (
{
place = (1055, -143);
place = (1055, -143);
type = Stem;
},
{
place = (781, -143);
place = (781, -143);
type = Stem;
},
{
place = (507, -143);
place = (507, -143);
type = Stem;
},
{
place = (233, -143);
place = (233, -143);
type = Stem;
},
{
horizontal = 1;
place = (711, -126);
place = (711, -126);
type = Stem;
},
{
horizontal = 1;
place = (114, -126);
place = (114, -126);
type = Stem;
},
{
place = (1055, -143);
place = (1055, -143);
type = Stem;
},
{
place = (781, -143);
place = (781, -143);
type = Stem;
},
{
place = (507, -143);
place = (507, -143);
type = Stem;
},
{
horizontal = 1;
place = (712, -126);
place = (712, -126);
type = Stem;
},
{
horizontal = 1;
place = (114, -126);
place = (114, -126);
type = Stem;
}
);
shapes = (
{
closed = 1;
nodes = (
(371,-12,o),
(447,63,o),
(468,197,cs),
(519,520,ls),
(525,560,o),
(554,586,o),
(595,586,cs),
(627,586,o),
(651,562,o),
(651,531,cs),
(651,527,o),
(651,524,o),
(650,520,cs),
(599,197,ls),
(597,185,o),
(596,173,o),
(596,161,cs),
(596,63,o),
(663,-12,o),
(778,-12,cs),
(919,-12,o),
(995,63,o),
(1016,197,cs),
(1095,700,l),
(952,700,l),
(870,180,ls),
(864,139,o),
(836,114,o),
(795,114,cs),
(762,114,o),
(738,138,o),
(738,170,cs),
(738,173,o),
(738,177,o),
(739,180,cs),
(790,503,ls),
(792,515,o),
(793,527,o),
(793,539,cs),
(793,637,o),
(726,712,o),
(613,712,cs),
(472,712,o),
(394,635,o),
(373,503,cs),
(322,180,ls),
(316,139,o),
(288,114,o),
(247,114,cs),
(214,114,o),
(190,138,o),
(190,170,cs),
(190,173,o),
(190,177,o),
(191,180,cs),
(273,700,l),
(130,700,l),
(51,197,ls),
(49,185,o),
(48,173,o),
(48,161,cs),
(48,63,o),
(115,-12,o),
(230,-12,cs)
);
}
);
};
layerId = "2B2EB811-521F-412C-AF7C-8DB707505A49";
shapes = (
{
closed = 1;
nodes = (
(371,-12,o),
(447,63,o),
(468,197,cs),
(519,520,ls),
(525,560,o),
(554,586,o),
(595,586,cs),
(627,586,o),
(651,567,o),
(651,533,cs),
(651,526,o),
(650,518,o),
(648,506,cs),
(600,204,ls),
(598,190,o),
(596,176,o),
(596,161,cs),
(596,63,o),
(663,-12,o),
(778,-12,cs),
(919,-12,o),
(995,63,o),
(1016,197,cs),
(1095,700,l),
(952,700,l),
(870,180,ls),
(864,139,o),
(836,114,o),
(795,114,cs),
(762,114,o),
(739,137,o),
(739,168,cs),
(739,176,o),
(740,186,o),
(741,194,cs),
(788,491,ls),
(791,509,o),
(793,524,o),
(793,539,cs),
(793,637,o),
(726,712,o),
(613,712,cs),
(472,712,o),
(394,635,o),
(373,503,cs),
(322,180,ls),
(316,139,o),
(288,114,o),
(247,114,cs),
(214,114,o),
(191,137,o),
(191,169,cs),
(191,175,o),
(192,186,o),
(193,192,cs),
(273,700,l),
(130,700,l),
(52,203,ls),
(50,190,o),
(48,175,o),
(48,161,cs),
(48,63,o),
(115,-12,o),
(230,-12,cs)
);
}
);
width = 1085;
},
{
anchors = (
{
name = bottom;
pos = (536,0);
},
{
name = top;
pos = (647,700);
}
);
background = {
anchors = (
{
name = bottom;
pos = (535,0);
},
{
name = top;
pos = (646,700);
}
);
hints = (
{
place = (1122, -143);
place = (1122, -143);
type = Stem;
},
{
place = (848, -143);
place = (848, -143);
type = Stem;
},
{
place = (574, -143);
place = (574, -143);
type = Stem;
},
{
place = (300, -143);
place = (300, -143);
type = Stem;
},
{
horizontal = 1;
place = (711, -126);
place = (711, -126);
type = Stem;
},
{
horizontal = 1;
place = (114, -126);
place = (114, -126);
type = Stem;
}
);
shapes = (
{
closed = 1;
nodes = (
(386,-13,o),
(505,72,o),
(526,206,cs),
(570,487,ls),
(574,514,o),
(597,529,o),
(619,529,cs),
(639,529,o),
(657,514,o),
(653,487,cs),
(611,224,ls),
(589,85,o),
(689,-13,o),
(831,-13,cs),
(963,-13,o),
(1083,70,o),
(1104,206,cs),
(1181,700,l),
(975,700,l),
(899,214,ls),
(895,188,o),
(874,172,o),
(850,172,cs),
(827,172,o),
(812,188,o),
(816,214,cs),
(857,477,ls),
(879,617,o),
(780,713,o),
(637,713,cs),
(513,713,o),
(387,637,o),
(365,495,cs),
(321,211,ls),
(317,188,o),
(296,172,o),
(273,172,cs),
(252,172,o),
(234,188,o),
(238,211,cs),
(315,700,l),
(110,700,l),
(35,224,ls),
(13,86,o),
(112,-13,o),
(254,-13,cs)
);
}
);
};
layerId = "DFD58E85-E3C3-490B-B779-464E2464870B";
shapes = (
{
closed = 1;
nodes = (
(386,-13,o),
(505,72,o),
(526,206,cs),
(570,487,ls),
(574,514,o),
(592,529,o),
(618,529,cs),
(637,529,o),
(653,517,o),
(653,495,cs),
(653,488,o),
(652,481,o),
(651,474,cs),
(613,237,ls),
(611,224,o),
(608,204,o),
(608,186,cs),
(608,68,o),
(702,-13,o),
(831,-13,cs),
(963,-13,o),
(1083,70,o),
(1104,206,cs),
(1181,700,l),
(975,700,l),
(899,214,ls),
(895,188,o),
(874,172,o),
(850,172,cs),
(830,172,o),
(816,185,o),
(816,204,cs),
(816,212,o),
(817,220,o),
(818,226,cs),
(855,465,ls),
(857,478,o),
(860,505,o),
(860,522,cs),
(860,638,o),
(767,713,o),
(637,713,cs),
(513,713,o),
(387,637,o),
(365,495,cs),
(321,211,ls),
(317,188,o),
(296,172,o),
(273,172,cs),
(254,172,o),
(239,185,o),
(239,204,cs),
(239,212,o),
(240,220,o),
(241,226,cs),
(315,700,l),
(110,700,l),
(37,237,ls),
(35,224,o),
(32,204,o),
(32,186,cs),
(32,68,o),
(125,-13,o),
(254,-13,cs)
);
}
);
width = 1152;
}
);
},
{
glyphname = X.ss01;
kernLeft = X_2nd;
kernRight = X_1st;
layers = (
{
anchors = (
{
name = bottom;
pos = (280,0);
},
{
name = top;
pos = (390,700);
}
);
layerId = "F0CAE04A-D5A8-412F-B560-CC5EB0DB4883";
shapes = (
{
closed = 1;
nodes = (
(587,0,l),
(592,24,l),
(532,24,ls),
(449,24,o),
(427,66,o),
(409,131,cs),
(283,580,ls),
(263,650,o),
(231,700,o),
(142,700,cs),
(83,700,l),
(78,676,l),
(138,676,ls),
(221,676,o),
(243,634,o),
(261,569,cs),
(387,120,ls),
(407,50,o),
(439,0,o),
(528,0,cs)
);
},
{
closed = 1;
nodes = (
(31,0,l),
(339,343,l),
(330,367,l),
(-1,0,l)
);
},
{
closed = 1;
nodes = (
(666,700,l),
(634,700,l),
(332,365,l),
(341,341,l)
);
}
);
width = 637;
},
{
anchors = (
{
name = bottom;
pos = (294,0);
},
{
name = top;
pos = (404,700);
}
);
background = {
shapes = (
{
closed = 1;
nodes = (
(374,283,l),
(493,283,o),
(623,345,o),
(649,510,cs),
(679,700,l),
(536,700,l),
(508,524,ls),
(495,443,o),
(447,409,o),
(374,409,c)
);
},
{
closed = 1;
nodes = (
(329,417,l),
(210,417,o),
(80,355,o),
(54,190,cs),
(24,0,l),
(167,0,l),
(195,176,ls),
(208,257,o),
(256,291,o),
(329,291,c)
);
}
);
};
guides = (
{
angle = 260.9807;
pos = (77,637);
}
);
layerId = "2B2EB811-521F-412C-AF7C-8DB707505A49";
shapes = (
{
closed = 1;
nodes = (
(613,0,l),
(633,126,l),
(567,126,ls),
(510,126,o),
(487,162,o),
(468,219,cs),
(359,551,ls),
(329,642,o),
(283,700,o),
(182,700,cs),
(87,700,l),
(67,574,l),
(133,574,ls),
(190,574,o),
(213,538,o),
(232,481,cs),
(341,149,ls),
(371,58,o),
(417,0,o),
(518,0,cs)
);
},
{
closed = 1;
nodes = (
(139,-2,l),
(360,306,l),
(328,480,l),
(-21,-2,l)
);
},
{
closed = 1;
nodes = (
(710,700,l),
(550,700,l),
(329,402,l),
(361,228,l)
);
}
);
width = 668;
},
{
anchors = (
{
name = bottom;
pos = (306,0);
},
{
name = top;
pos = (417,700);
}
);
guides = (
{
angle = 261.0452;
pos = (92,618);
},
{
angle = 81.0452;
pos = (637,83);
}
);
layerId = "DFD58E85-E3C3-490B-B779-464E2464870B";
shapes = (
{
closed = 1;
nodes = (
(624,0,l),
(650,165,l),
(577,165,ls),
(537,165,o),
(529,181,o),
(515,222,cs),
(399,563,ls),
(368,653,o),
(321,700,o),
(210,700,cs),
(105,700,l),
(79,535,l),
(152,535,ls),
(192,535,o),
(200,519,o),
(214,478,cs),
(330,137,ls),
(361,47,o),
(408,0,o),
(519,0,cs)
);
},
{
closed = 1;
nodes = (
(208,0,l),
(391,341,l),
(308,492,l),
(-1,0,l)
);
},
{
closed = 1;
nodes = (
(728,700,l),
(519,700,l),
(341,359,l),
(424,208,l)
);
}
);
width = 693;
}
);
},
{
glyphname = Z.ss01;
kernLeft = Z_2nd;
kernRight = Z_1st;
layers = (
{
anchors = (
{
name = bottom;
pos = (272,0);
},
{
name = center;
pos = (327,350);
},
{
name = top;
pos = (382,700);
}
);
layerId = "F0CAE04A-D5A8-412F-B560-CC5EB0DB4883";
shapes = (
{
closed = 1;
nodes = (
(511,0,l),
(515,23,l),
(174,23,ls),
(112,23,o),
(68,50,o),
(68,107,cs),
(68,154,o),
(107,192,o),
(158,225,cs),
(508,454,ls),
(560,488,o),
(611,527,o),
(611,596,cs),
(611,656,o),
(559,700,o),
(495,700,cs),
(165,700,l),
(160,677,l),
(493,677,ls),
(549,677,o),
(586,641,o),
(586,592,cs),
(586,538,o),
(543,505,o),
(495,473,cs),
(144,243,ls),
(81,202,o),
(43,165,o),
(43,104,cs),
(43,37,o),
(96,0,o),
(173,0,cs)
);
}
);
width = 623;
},
{
anchors = (
{
name = bottom;
pos = (260,0);
},
{
name = center;
pos = (315,350);
},
{
name = top;
pos = (370,700);
}
);
layerId = "2B2EB811-521F-412C-AF7C-8DB707505A49";
shapes = (
{
closed = 1;
nodes = (
(525,0,l),
(545,126,l),
(184,126,ls),
(174,126,o),
(168,134,o),
(168,143,cs),
(168,148,o),
(170,153,o),
(175,157,cs),
(540,441,ls),
(585,476,o),
(606,525,o),
(606,571,cs),
(606,639,o),
(560,700,o),
(472,700,cs),
(122,700,l),
(102,574,l),
(440,574,ls),
(450,574,o),
(456,566,o),
(456,557,cs),
(456,552,o),
(454,547,o),
(449,543,cs),
(77,252,ls),
(35,219,o),
(14,174,o),
(14,130,cs),
(14,62,o),
(64,0,o),
(162,0,cs)
);
}
);
width = 600;
},
{
anchors = (
{
name = bottom;
pos = (269,0);
},
{
name = center;
pos = (324,350);
},
{
name = top;
pos = (380,700);
}
);
background = {
anchors = (
{
name = bottom;
pos = (318,0);
},
{
name = top;
pos = (429,700);
}
);
hints = (
{
place = (179, 133);
place = (179, 133);
type = Stem;
},
{
place = (397, 142);
place = (397, 142);
type = Stem;
},
{
horizontal = 1;
place = (-218, 128);
place = (-218, 128);
type = Stem;
},
{
horizontal = 1;
place = (574, 126);
place = (574, 126);
type = Stem;
}
);
shapes = (
{
closed = 1;
nodes = (
(402,-216,o),
(464,-115,o),
(488,36,cs),
(593,700,l),
(262,700,l),
(236,532,l),
(375,532,l),
(336,286,l),
(197,207,o),
(83,81,o),
(83,-56,cs),
(83,-156,o),
(155,-216,o),
(256,-216,cs)
);
},
{
closed = 1;
nodes = (
(247,-40,o),
(235,-28,o),
(235,-7,cs),
(235,39,o),
(271,88,o),
(323,128,c),
(304,6,ls),
(299,-24,o),
(281,-40,o),
(263,-40,cs)
);
}
);
};
guides = (
{
angle = 90;
pos = (343,-94);
}
);
layerId = "DFD58E85-E3C3-490B-B779-464E2464870B";
shapes = (
{
closed = 1;
nodes = (
(554,0,l),
(581,170,l),
(261,170,ls),
(253,170,o),
(250,173,o),
(250,177,cs),
(250,179,o),
(252,183,o),
(255,185,cs),
(554,414,ls),
(603,452,o),
(626,503,o),
(626,552,cs),
(626,629,o),
(566,700,o),
(459,700,cs),
(98,700,l),
(72,531,l),
(373,531,ls),
(377,531,o),
(380,528,o),
(380,525,cs),
(380,522,o),
(378,519,o),
(374,516,cs),
(79,290,ls),
(29,252,o),
(9,207,o),
(9,153,cs),
(9,73,o),
(75,0,o),
(183,0,cs)
);
}
);
width = 619;
}
);
},
{
glyphname = K.ss02;
kernLeft = H_2nd;
kernRight = K_1st;
layers = (
{
anchors = (
{
name = bottom;
pos = (297,0);
},
{
name = top;
pos = (407,700);
}
);
background = {
shapes = (
{
closed = 1;
nodes = (
(70,0,l),
(126,355,l),
(389,355,ls),
(494,355,o),
(565,281,o),
(550,179,cs),
(523,0,l),
(548,0,l),
(575,172,ls),
(593,285,o),
(523,361,o),
(425,375,c),
(684,700,l),
(653,700,l),
(399,377,l),
(389,378,o),
(385,378,o),
(381,378,cs),
(129,378,l),
(180,700,l),
(155,700,l),
(45,0,l)
);
}
);
};
layerId = "F0CAE04A-D5A8-412F-B560-CC5EB0DB4883";
shapes = (
{
closed = 1;
nodes = (
(70,0,l),
(126,355,l),
(389,355,ls),
(484,355,o),
(551,295,o),
(551,198,cs),
(551,187,o),
(550,176,o),
(548,164,cs),
(523,0,l),
(548,0,l),
(573,157,ls),
(575,172,o),
(576,186,o),
(576,199,cs),
(576,302,o),
(512,363,o),
(425,375,c),
(684,700,l),
(653,700,l),
(399,377,l),
(389,378,o),
(385,378,o),
(381,378,cs),
(129,378,l),
(180,700,l),
(155,700,l),
(45,0,l)
);
}
);
width = 673;
},
{
anchors = (
{
name = bottom;
pos = (306,0);
},
{
name = top;
pos = (416,700);
}
);
background = {
shapes = (
{
closed = 1;
nodes = (
(173,0,l),
(219,293,l),
(375,293,ls),
(457,293,o),
(490,247,o),
(479,170,cs),
(452,0,l),
(595,0,l),
(620,161,ls),
(638,280,o),
(590,365,o),
(500,400,c),
(707,700,l),
(553,700,l),
(364,419,l),
(359,419,o),
(353,419,o),
(348,419,cs),
(239,419,l),
(283,700,l),
(140,700,l),
(30,0,l)
);
}
);
};
layerId = "2B2EB811-521F-412C-AF7C-8DB707505A49";
shapes = (
{
closed = 1;
nodes = (
(173,0,l),
(219,293,l),
(375,293,ls),
(446,293,o),
(481,258,o),
(481,198,cs),
(481,190,o),
(481,180,o),
(479,170,cs),
(452,0,l),
(595,0,l),
(618,152,ls),
(621,174,o),
(623,194,o),
(623,213,cs),
(623,310,o),
(579,369,o),
(494,392,c),
(707,700,l),
(553,700,l),
(364,419,l),
(359,419,o),
(353,419,o),
(348,419,cs),
(239,419,l),
(283,700,l),
(140,700,l),
(30,0,l)
);
}
);
width = 692;
},
{
anchors = (
{
name = bottom;
pos = (318,0);
},
{
name = top;
pos = (429,700);
}
);
layerId = "DFD58E85-E3C3-490B-B779-464E2464870B";
shapes = (
{
closed = 1;
nodes = (
(221,0,l),
(263,269,l),
(383,269,ls),
(427,269,o),
(453,240,o),
(453,202,cs),
(453,197,o),
(453,193,o),
(452,188,cs),
(422,0,l),
(637,0,l),
(661,152,ls),
(664,173,o),
(666,192,o),
(666,211,cs),
(666,296,o),
(632,356,o),
(570,392,c),
(772,700,l),
(541,700,l),
(382,438,l),
(378,438,o),
(375,438,o),
(372,438,cs),
(290,438,l),
(331,700,l),
(115,700,l),
(5,0,l)
);
}
);
width = 717;
}
);
},
{
glyphname = M.ss02;
kernLeft = H_2nd;
kernRight = P_1st;
layers = (
{
anchors = (
{
name = bottom;
pos = (538,0);
},
{
name = top;
pos = (648,700);
}
);
background = {
hints = (
{
place = (1112, -143);
place = (1112, -143);
type = Stem;
},
{
place = (703, -143);
place = (703, -143);
type = Stem;
},
{
place = (294, -143);
place = (294, -143);
type = Stem;
},
{
horizontal = 1;
place = (712, -126);
place = (712, -126);
type = Stem;
},
{
horizontal = 1;
place = (0, 21);
target = up;
type = BottomGhost;
},
{
place = (1112, 143);
place = (1112, 143);
type = Stem;
},
{
place = (703, 143);
place = (703, 143);
type = Stem;
},
{
place = (294, 143);
place = (294, 143);
type = Stem;
},
{
horizontal = 1;
place = (586, 126);
place = (586, 126);
type = Stem;
},
{
horizontal = 1;
place = (0, -20);
target = down;
type = TopGhost;
}
);
shapes = (
{
closed = 1;
nodes = (
(71,0,l),
(139,435,ls),
(161,578,o),
(248,690,o),
(390,690,cs),
(531,690,o),
(618,586,o),
(596,443,cs),
(527,0,l),
(552,0,l),
(619,435,ls),
(641,578,o),
(729,690,o),
(870,690,cs),
(1010,690,o),
(1096,586,o),
(1074,442,cs),
(1006,0,l),
(1031,0,l),
(1098,435,ls),
(1124,605,o),
(1019,713,o),
(873,713,cs),
(755,713,o),
(665,646,o),
(620,520,c),
(601,645,o),
(510,713,o),
(393,713,cs),
(246,713,o),
(141,609,o),
(115,442,cs),
(46,0,l)
);
}
);
};
layerId = "F0CAE04A-D5A8-412F-B560-CC5EB0DB4883";
shapes = (
{
closed = 1;
nodes = (
(71,0,l),
(144,471,ls),
(162,584,o),
(256,690,o),
(389,690,cs),
(515,690,o),
(601,611,o),
(601,500,cs),
(601,486,o),
(599,470,o),
(597,458,cs),
(525,0,l),
(550,0,l),
(622,462,ls),
(641,586,o),
(742,690,o),
(875,690,cs),
(1002,690,o),
(1082,611,o),
(1082,494,cs),
(1082,475,o),
(1079,452,o),
(1076,436,cs),
(1006,0,l),
(1031,0,l),
(1101,432,ls),
(1104,450,o),
(1107,473,o),
(1107,496,cs),
(1107,627,o),
(1017,713,o),
(877,713,cs),
(769,713,o),
(666,651,o),
(620,537,c),
(602,649,o),
(508,713,o),
(391,713,cs),
(240,713,o),
(139,601,o),
(118,465,cs),
(46,0,l)
);
}
);
width = 1158;
},
{
anchors = (
{
name = bottom;
pos = (501,0);
},
{
name = top;
pos = (611,700);
}
);
background = {
hints = (
{
place = (1051, -143);
place = (1051, -143);
type = Stem;
},
{
place = (642, -143);
place = (642, -143);
type = Stem;
},
{
place = (233, -143);
place = (233, -143);
type = Stem;
},
{
horizontal = 1;
place = (712, -126);
place = (712, -126);
type = Stem;
},
{
horizontal = 1;
place = (0, 21);
target = up;
type = BottomGhost;
},
{
place = (1049.887, -143.56);
place = (1049.887, -143.56);
type = Stem;
},
{
place = (682.079, -143.56);
place = (682.079, -143.56);
type = Stem;
},
{
place = (314.271, -143.56);
place = (314.271, -143.56);
type = Stem;
},
{
horizontal = 1;
place = (711.575, -122.603);
place = (711.575, -122.603);
type = Stem;
},
{
horizontal = 1;
place = (164.578, 21);
target = up;
type = BottomGhost;
},
{
place = (1090.755, -102.693);
place = (1090.755, -102.693);
type = Stem;
},
{
place = (712.468, -102.693);
place = (712.468, -102.693);
type = Stem;
},
{
horizontal = 1;
place = (752.442, -81.735);
place = (752.442, -81.735);
type = Stem;
},
{
horizontal = 1;
place = (205.445, 21);
target = up;
type = BottomGhost;
}
);
shapes = (
{
closed = 1;
nodes = (
(163,0,l),
(232,441,ls),
(244,520,o),
(305,584,o),
(387,584,cs),
(469,584,o),
(514,532,o),
(501,453,cs),
(429,0,l),
(572,0,l),
(641,441,ls),
(653,520,o),
(714,584,o),
(796,584,cs),
(878,584,o),
(920,525,o),
(908,446,cs),
(838,0,l),
(981,0,l),
(1049,434,ls),
(1076,606,o),
(978,712,o),
(817,712,cs),
(726,712,o),
(650,678,o),
(592,620,c),
(552,679,o),
(488,713,o),
(386,712,cs),
(226,711,o),
(115,606,o),
(88,434,cs),
(20,0,l)
);
}
);
};
layerId = "2B2EB811-521F-412C-AF7C-8DB707505A49";
shapes = (
{
closed = 1;
nodes = (
(163,0,l),
(232,441,ls),
(244,520,o),
(305,584,o),
(387,584,cs),
(460,584,o),
(503,543,o),
(503,479,cs),
(503,467,o),
(501,452,o),
(499,440,cs),
(429,0,l),
(572,0,l),
(641,441,ls),
(653,520,o),
(714,584,o),
(796,584,cs),
(869,584,o),
(910,538,o),
(910,472,cs),
(910,461,o),
(908,446,o),
(906,434,cs),
(838,0,l),
(981,0,l),
(1046,415,ls),
(1050,441,o),
(1053,472,o),
(1053,492,cs),
(1053,628,o),
(960,712,o),
(817,712,cs),
(726,712,o),
(650,678,o),
(592,620,c),
(553,678,o),
(490,712,o),
(390,712,cs),
(228,712,o),
(115,607,o),
(88,434,cs),
(20,0,l)
);
}
);
width = 1081;
},
{
anchors = (
{
name = bottom;
pos = (485,0);
},
{
name = top;
pos = (596,700);
}
);
background = {
hints = (
{
place = (1016, -143);
place = (1016, -143);
type = Stem;
},
{
place = (607, -143);
place = (607, -143);
type = Stem;
},
{
place = (198, -143);
place = (198, -143);
type = Stem;
},
{
horizontal = 1;
place = (712, -126);
place = (712, -126);
type = Stem;
},
{
horizontal = 1;
place = (0, 21);
target = up;
type = BottomGhost;
}
);
shapes = (
{
closed = 1;
nodes = (
(210,0,l),
(278,436,ls),
(287,494,o),
(326,532,o),
(378,529,cs),
(430,526,o),
(457,485,o),
(448,427,cs),
(380,0,l),
(591,0,l),
(659,415,ls),
(671,491,o),
(706,531,o),
(759,528,cs),
(811,525,o),
(839,487,o),
(829,426,cs),
(761,0,l),
(969,0,l),
(1037,414,ls),
(1066,589,o),
(959,703,o),
(805,710,cs),
(710,715,o),
(637,689,o),
(583,634,c),
(540,689,o),
(469,713,o),
(393,713,cs),
(228,712,o),
(95,615,o),
(69,445,cs),
(1,0,l)
);
}
);
};
layerId = "DFD58E85-E3C3-490B-B779-464E2464870B";
shapes = (
{
closed = 1;
nodes = (
(209,0,l),
(277,433,ls),
(286,491,o),
(321,526,o),
(371,526,cs),
(423,526,o),
(449,495,o),
(449,448,cs),
(449,437,o),
(447,424,o),
(445,412,cs),
(379,0,l),
(590,0,l),
(658,436,ls),
(667,495,o),
(704,533,o),
(752,533,cs),
(797,533,o),
(826,502,o),
(826,452,cs),
(826,443,o),
(824,430,o),
(822,419,cs),
(756,0,l),
(965,0,l),
(1031,413,ls),
(1034,432,o),
(1037,454,o),
(1037,477,cs),
(1037,615,o),
(943,713,o),
(796,713,cs),
(709,713,o),
(639,684,o),
(584,630,c),
(539,681,o),
(472,713,o),
(385,713,cs),
(224,713,o),
(94,610,o),
(69,445,cs),
(1,0,l)
);
}
);
width = 1047;
}
);
},
{
glyphname = X.ss02;
kernLeft = H_2nd;
kernRight = H_1st;
layers = (
{
anchors = (
{
name = bottom;
pos = (266,0);
},
{
name = top;
pos = (376,700);
}
);
background = {
shapes = (
{
closed = 1;
nodes = (
(70,0,l),
(86,106,ls),
(107,239,o),
(214,348,o),
(358,348,cs),
(484,348,o),
(555,263,o),
(555,151,cs),
(555,136,o),
(553,121,o),
(551,106,cs),
(535,0,l),
(560,0,l),
(575,95,ls),
(578,115,o),
(580,134,o),
(580,152,cs),
(580,259,o),
(527,336,o),
(432,360,c),
(552,388,o),
(637,488,o),
(659,625,cs),
(670,700,l),
(645,700,l),
(632,614,ls),
(611,481,o),
(504,372,o),
(361,372,cs),
(234,372,o),
(163,457,o),
(163,569,cs),
(163,584,o),
(165,599,o),
(167,614,cs),
(180,700,l),
(155,700,l),
(144,625,ls),
(141,605,o),
(139,585,o),
(139,566,cs),
(139,460,o),
(192,384,o),
(287,360,c),
(166,332,o),
(81,232,o),
(60,95,cs),
(45,0,l)
);
}
);
};
layerId = "F0CAE04A-D5A8-412F-B560-CC5EB0DB4883";
shapes = (
{
closed = 1;
nodes = (
(7,0,l),
(257,346,l),
(386,346,l),
(529,0,l),
(557,0,l),
(407,361,l),
(657,700,l),
(627,700,l),
(382,369,l),
(261,369,l),
(119,700,l),
(93,700,l),
(238,361,l),
(-25,0,l)
);
}
);
width = 612;
},
{
anchors = (
{
name = bottom;
pos = (303,0);
},
{
name = top;
pos = (413,700);
}
);
background = {
shapes = (
{
closed = 1;
nodes = (
(165,0,l),
(185,133,ls),
(198,221,o),
(256,286,o),
(349,286,cs),
(436,286,o),
(479,233,o),
(479,159,cs),
(479,149,o),
(479,139,o),
(477,128,cs),
(458,0,l),
(601,0,l),
(620,112,ls),
(623,131,o),
(625,150,o),
(625,167,cs),
(625,235,o),
(603,291,o),
(564,333,c),
(634,372,o),
(675,440,o),
(692,542,cs),
(718,700,l),
(575,700,l),
(553,573,ls),
(535,470,o),
(486,412,o),
(393,412,cs),
(308,412,o),
(254,463,o),
(254,539,cs),
(254,548,o),
(255,557,o),
(256,566,cs),
(278,700,l),
(135,700,l),
(114,575,ls),
(111,558,o),
(110,541,o),
(110,525,cs),
(110,460,o),
(136,405,o),
(179,365,c),
(108,321,o),
(58,249,o),
(44,152,cs),
(21,0,l)
);
}
);
};
guides = (
{
angle = 90;
pos = (582,0);
}
);
layerId = "2B2EB811-521F-412C-AF7C-8DB707505A49";
shapes = (
{
closed = 1;
nodes = (
(135,0,l),
(333,293,l),
(375,293,l),
(481,0,l),
(646,0,l),
(498,364,l),
(750,700,l),
(580,700,l),
(382,419,l),
(346,419,l),
(236,700,l),
(76,700,l),
(222,364,l),
(-40,0,l)
);
}
);
width = 686;
},
{
anchors = (
{
name = bottom;
pos = (330,0);
},
{
name = top;
pos = (441,700);
}
);
background = {
shapes = (
{
closed = 1;
nodes = (
(212,0,l),
(238,170,ls),
(245,217,o),
(289,259,o),
(350,259,cs),
(406,259,o),
(447,226,o),
(447,176,cs),
(447,171,o),
(447,166,o),
(446,161,cs),
(420,0,l),
(626,0,l),
(651,142,ls),
(654,157,o),
(655,171,o),
(655,186,cs),
(655,245,o),
(632,298,o),
(589,341,c),
(654,385,o),
(700,449,o),
(711,527,cs),
(735,700,l),
(528,700,l),
(502,520,ls),
(495,472,o),
(451,430,o),
(389,430,cs),
(333,430,o),
(294,469,o),
(294,516,cs),
(294,520,o),
(294,525,o),
(295,529,cs),
(322,700,l),
(116,700,l),
(92,560,ls),
(90,547,o),
(89,534,o),
(89,521,cs),
(89,463,o),
(110,405,o),
(155,361,c),
(87,317,o),
(42,252,o),
(31,175,cs),
(6,0,l)
);
}
);
};
layerId = "DFD58E85-E3C3-490B-B779-464E2464870B";
shapes = (
{
closed = 1;
nodes = (
(199,0,l),
(371,265,l),
(383,265,l),
(471,0,l),
(701,0,l),
(554,363,l),
(796,700,l),
(565,700,l),
(399,448,l),
(388,448,l),
(301,700,l),
(85,700,l),
(220,363,l),
(-41,0,l)
);
}
);
width = 742;
}
);
},
